<?xml version="1.0" encoding="UTF-8"?>
<svg width="174px" height="52px" viewBox="0 0 174 52" version="1.1" xmlns="http://www.w3.org/2000/svg" xmlns:xlink="http://www.w3.org/1999/xlink">
    <!-- Generator: Sketch 48.2 (47327) - http://www.bohemiancoding.com/sketch -->
    <title>Download_on_the_App_Store_Badge</title>
    <desc>Created with Sketch.</desc>
    <defs></defs>
    <g id="Page-1" stroke="none" stroke-width="1" fill="none" fill-rule="evenodd">
        <g id="Download_on_the_App_Store_Badge" transform="translate(-1.000000, -1.000000)" fill-rule="nonzero">
            <g id="Group">
                <g fill="#000000" id="Shape">
                    <path d="M174.941075,4.935625 C174.941075,2.86465 173.257,1.17925 171.186025,1.17925 L4.940925,1.17925 C2.8673,1.17925 1.17925,2.86465 1.17925,4.935625 L1.17925,48.8395 C1.17925,50.907825 2.865975,52.58925 4.940925,52.58925 L171.18735,52.58925 C173.257,52.58925 174.9424,50.9065 174.9424,48.8395 L174.941075,4.935625 Z"></path>
                </g>
                <g transform="translate(9.275000, 9.275000)" fill="#FFFFFF" id="Shape">
                    <g transform="translate(42.400000, 0.000000)">
                        <path d="M4.2771,0.9169 C7.408075,0.9169 8.597925,2.9097 8.597925,5.7558 C8.597925,8.574075 7.437225,10.630475 4.2771,10.630475 L0.854625,10.630475 L0.854625,0.9169 L4.2771,0.9169 Z M2.577125,9.194175 L4.071725,9.194175 C5.879025,9.194175 6.8264,8.181875 6.8264,5.78495 C6.8264,3.764325 6.1427,2.354525 4.071725,2.354525 L2.577125,2.354525 L2.577125,9.194175 Z"></path>
                        <path d="M9.398225,7.1868 L9.398225,6.446125 C9.398225,4.304925 10.68745,2.9733 12.665675,2.9733 C14.6863,2.9733 15.925175,4.376475 15.925175,6.51105 L15.925175,7.23715 L11.049175,7.23715 L11.049175,7.4306 C11.049175,8.6549 11.719625,9.45785 12.750475,9.45785 C13.53355,9.45785 14.0821,9.06565 14.25965,8.427 L15.83905,8.427 C15.63235,9.64335 14.6439,10.76165 12.7359,10.76165 C10.702025,10.760325 9.398225,9.443275 9.398225,7.1868 Z M14.282175,6.104275 L14.282175,6.091025 C14.282175,5.0509 13.6475,4.25325 12.6723,4.25325 C11.6918,4.25325 11.049175,5.057525 11.049175,6.091025 L11.049175,6.104275 L14.282175,6.104275 Z"></path>
                        <path d="M19.79285,2.9733 C21.580275,2.9733 22.611125,3.899475 22.611125,5.258925 L21.108575,5.258925 C21.05955,4.7541 20.7389,4.18435 19.75045,4.18435 C18.974,4.18435 18.4546,4.53945 18.4546,5.144975 C18.4546,5.92805 19.5146,6.069825 20.3679,6.226175 C21.763125,6.475275 22.831075,6.9165 22.831075,8.332925 C22.831075,9.869925 21.620025,10.760325 19.69215,10.760325 C17.8345,10.760325 16.695,9.891125 16.695,8.54625 L18.3327,8.54625 C18.410875,9.1372 18.930275,9.54265 19.791525,9.54265 C20.753475,9.54265 21.193375,9.080225 21.193375,8.54625 C21.193375,7.784375 20.310925,7.6638 19.322475,7.46505 C17.9564,7.180175 16.8381,6.69655 16.8381,5.30795 C16.8381,3.66495 18.249225,2.9733 19.79285,2.9733 Z"></path>
                        <path d="M23.639325,6.496475 C23.639325,4.4255 24.857,2.9733 26.92135,2.9733 C28.779,2.9733 29.9026,4.161825 29.959575,5.5226 L28.3815,5.5226 C28.2596,4.895875 27.733575,4.339375 27.007475,4.339375 C25.9541,4.339375 25.327375,5.1728 25.327375,6.530925 L25.327375,7.15765 C25.327375,8.523725 25.973975,9.3863 27.0141,9.3863 C27.874025,9.3863 28.3232,8.881475 28.42125,8.3051 L29.99535,8.3051 C29.80985,9.87125 28.6783,10.76165 26.9134,10.76165 C24.863625,10.76165 23.639325,9.3015 23.639325,7.158975 L23.639325,6.496475 Z"></path>
                        <path d="M33.123675,10.744425 C31.66485,10.744425 30.653875,9.869925 30.653875,8.46675 C30.653875,7.121875 31.586675,6.268575 33.32375,6.26195 L35.2026,6.26195 L35.2026,5.563675 C35.2026,4.7382 34.718975,4.275775 33.86435,4.275775 C33.038875,4.275775 32.561875,4.717 32.511525,5.356975 L30.932125,5.356975 C30.995725,4.082325 31.8371,2.979925 33.8988,2.979925 C35.593475,2.979925 36.868125,3.8054 36.868125,5.513325 L36.868125,10.62915 L35.272825,10.62915 L35.272825,9.71225 L35.2079,9.71225 C34.888575,10.283325 34.2327,10.744425 33.123675,10.744425 Z M35.201275,8.15405 L35.201275,7.336525 L33.635125,7.336525 C32.752675,7.336525 32.33265,7.755225 32.33265,8.36075 C32.33265,9.1213 32.97395,9.485675 33.6497,9.485675 C34.5242,9.485675 35.201275,8.945075 35.201275,8.15405 Z"></path>
                        <path d="M38.31635,3.10315 L39.99645,3.10315 L39.99645,4.106175 L40.066675,4.106175 C40.2535,3.637125 40.813975,2.9892 41.852775,2.9892 C42.080675,2.9892 42.25955,3.0104 42.409275,3.038225 L42.409275,4.5103 C42.2675,4.469225 41.982625,4.453325 41.711,4.453325 C40.458875,4.453325 40.0309,5.2152 40.0309,6.234125 L40.0309,10.630475 L38.317675,10.630475 L38.317675,3.10315 L38.31635,3.10315 Z"></path>
                        <path d="M47.992825,10.4887 L47.992825,9.350525 L47.9279,9.350525 C47.643025,10.005075 46.83875,10.53905 45.801275,10.53905 C44.0695,10.53905 42.8823,9.31475 42.8823,7.015875 L42.8823,6.5031 C42.8823,4.233375 44.065525,2.995825 45.801275,2.995825 C46.8308,2.995825 47.6364,3.52185 47.95705,4.1976 L48.021975,4.1976 L48.021975,3.10315 L49.672925,3.10315 L49.672925,10.574825 C49.672925,12.59545 47.965,13.436825 46.262375,13.436825 C44.171525,13.436825 43.175125,12.432475 43.045275,11.18035 L44.696225,11.18035 C44.826075,11.7289 45.40245,12.1688 46.2849,12.1688 C47.34225,12.1688 47.992825,11.550025 47.992825,10.4887 Z M44.59685,6.575975 L44.59685,7.015875 C44.59685,8.4323 45.24345,9.244525 46.318025,9.244525 C47.35815,9.244525 47.992825,8.427 47.992825,7.015875 L47.992825,6.575975 C47.992825,5.187375 47.330325,4.3619 46.318025,4.3619 C45.24345,4.3619 44.59685,5.144975 44.59685,6.575975 Z"></path>
                        <path d="M53.268975,10.744425 C51.808825,10.744425 50.8005,9.869925 50.8005,8.46675 C50.8005,7.121875 51.731975,6.268575 53.46905,6.26195 L55.3479,6.26195 L55.3479,5.563675 C55.3479,4.7382 54.864275,4.275775 54.00965,4.275775 C53.184175,4.275775 52.7085,4.717 52.656825,5.356975 L51.07875,5.356975 C51.143675,4.082325 51.9824,2.979925 54.04675,2.979925 C55.738775,2.979925 57.0121,3.8054 57.0121,5.513325 L57.0121,10.62915 L55.418125,10.62915 L55.418125,9.71225 L55.35585,9.71225 C55.033875,10.283325 54.379325,10.744425 53.268975,10.744425 Z M55.346575,8.15405 L55.346575,7.336525 L53.78175,7.336525 C52.8993,7.336525 52.4806,7.755225 52.4806,8.36075 C52.4806,9.1213 53.11925,9.485675 53.795,9.485675 C54.67215,9.485675 55.346575,8.945075 55.346575,8.15405 Z"></path>
                        <path d="M58.460325,3.10315 L60.140425,3.10315 L60.140425,4.106175 L60.2133,4.106175 C60.397475,3.637125 60.95795,2.9892 61.9994,2.9892 C62.2273,2.9892 62.406175,3.0104 62.55325,3.038225 L62.55325,4.5103 C62.411475,4.469225 62.1266,4.453325 61.857625,4.453325 C60.6055,4.453325 60.177525,5.2152 60.177525,6.234125 L60.177525,10.630475 L58.46165,10.630475 L58.46165,3.10315 L58.460325,3.10315 Z"></path>
                        <path d="M70.5536,4.18435 L70.610575,4.18435 L70.610575,0.40545 L72.2973,0.40545 L72.2973,10.6318 L70.65165,10.6318 L70.65165,9.480375 L70.589375,9.480375 C70.21175,10.2555 69.42205,10.7325 68.403125,10.7325 C66.532225,10.7325 65.4868,9.3439 65.4868,7.1868 L65.4868,6.53225 C65.4868,4.41225 66.57595,2.995825 68.403125,2.995825 C69.415425,2.995825 70.2038,3.486075 70.5536,4.18435 Z M67.202675,6.589225 L67.202675,7.137775 C67.202675,8.632375 67.90625,9.366425 68.88675,9.366425 C69.956025,9.366425 70.623825,8.582025 70.623825,7.145725 L70.623825,6.589225 C70.623825,5.216525 69.948075,4.3619 68.874825,4.3619 C67.90625,4.3619 67.202675,5.102575 67.202675,6.589225 Z"></path>
                        <path d="M73.54015,7.1868 L73.54015,6.446125 C73.54015,4.304925 74.826725,2.9733 76.806275,2.9733 C78.8269,2.9733 80.06445,4.376475 80.06445,6.51105 L80.06445,7.23715 L75.1911,7.23715 L75.1911,7.4306 C75.1911,8.6549 75.8589,9.45785 76.891075,9.45785 C77.672825,9.45785 78.221375,9.06565 78.40025,8.427 L79.978325,8.427 C79.774275,9.64335 78.783175,10.76165 76.875175,10.76165 C74.8413,10.760325 73.54015,9.443275 73.54015,7.1868 Z M78.42145,6.104275 L78.42145,6.091025 C78.42145,5.0509 77.786775,4.25325 76.814225,4.25325 C75.831075,4.25325 75.1911,5.057525 75.1911,6.091025 L75.1911,6.104275 L78.42145,6.104275 Z"></path>
                        <polygon points="83.751925 0.40545 85.432025 0.40545 85.432025 10.6318 83.751925 10.6318"></polygon>
                        <path d="M89.065175,10.744425 C87.607675,10.744425 86.5967,9.869925 86.5967,8.46675 C86.5967,7.121875 87.528175,6.268575 89.26525,6.26195 L91.1441,6.26195 L91.1441,5.563675 C91.1441,4.7382 90.660475,4.275775 89.80585,4.275775 C88.980375,4.275775 88.5047,4.717 88.45435,5.356975 L86.873625,5.356975 C86.93855,4.082325 87.779925,2.979925 89.841625,2.979925 C91.5363,2.979925 92.809625,3.8054 92.809625,5.513325 L92.809625,10.62915 L91.21565,10.62915 L91.21565,9.71225 L91.150725,9.71225 C90.830075,10.283325 90.175525,10.744425 89.065175,10.744425 Z M91.142775,8.15405 L91.142775,7.336525 L89.576625,7.336525 C88.694175,7.336525 88.275475,7.755225 88.275475,8.36075 C88.275475,9.1213 88.916775,9.485675 89.592525,9.485675 C90.467025,9.485675 91.142775,8.945075 91.142775,8.15405 Z"></path>
                    </g>
                    <g transform="translate(41.075000, 13.250000)">
                        <path d="M1.185875,18.262475 L6.7416,1.482675 L10.959075,1.482675 L16.489625,18.262475 L12.692175,18.262475 L11.45065,14.094025 L5.992975,14.094025 L4.7382,18.262475 L1.185875,18.262475 Z M8.6602,4.826975 L6.6939,11.478475 L10.762975,11.478475 L8.8192,4.826975 L8.6602,4.826975 Z"></path>
                        <path d="M21.34575,16.3452 L21.198675,16.3452 L21.198675,22.589925 L17.732475,22.589925 L17.732475,5.1834 L21.14965,5.1834 L21.14965,7.1497 L21.296725,7.1497 C21.935375,5.871075 23.263025,5.023075 25.04515,5.023075 C27.945575,5.023075 29.9503,7.20005 29.9503,11.16975 L29.9503,12.2642 C29.9503,16.21005 27.972075,18.421475 25.009375,18.421475 C23.263025,18.421475 21.972475,17.5854 21.34575,16.3452 Z M26.397975,12.127725 L26.397975,11.279725 C26.397975,9.0047 25.414825,7.75125 23.8288,7.75125 C22.23085,7.75125 21.1735,9.066975 21.1735,11.266475 L21.1735,12.1264 C21.1735,14.363 22.23085,15.69065 23.864575,15.69065 C25.3658,15.6933 26.397975,14.47695 26.397975,12.127725 Z"></path>
                        <path d="M35.6796,16.3452 L35.532525,16.3452 L35.532525,22.589925 L32.066325,22.589925 L32.066325,5.1834 L35.4835,5.1834 L35.4835,7.1497 L35.630575,7.1497 C36.269225,5.871075 37.596875,5.023075 39.380325,5.023075 C42.28075,5.023075 44.28415,7.20005 44.28415,11.16975 L44.28415,12.2642 C44.28415,16.21005 42.30725,18.421475 39.343225,18.421475 C37.596875,18.421475 36.30765,17.5854 35.6796,16.3452 Z M40.73315,12.127725 L40.73315,11.279725 C40.73315,9.0047 39.75,7.75125 38.163975,7.75125 C36.5647,7.75125 35.508675,9.066975 35.508675,11.266475 L35.508675,12.1264 C35.508675,14.363 36.5647,15.69065 38.201075,15.69065 C39.700975,15.6933 40.73315,14.47695 40.73315,12.127725 Z"></path>
                        <path d="M53.406775,13.44345 C53.504825,14.684975 54.623125,15.790025 56.74975,15.790025 C58.7293,15.790025 59.785325,14.904925 59.785325,13.60245 C59.785325,12.4603 58.926725,11.90645 57.228075,11.526175 L54.710575,10.94715 C52.35075,10.44365 50.383125,9.116 50.383125,6.2646 C50.383125,2.97065 53.1855,1.138175 56.7365,1.138175 C60.48625,1.138175 63.0064,3.20385 63.0435,6.16655 L59.7257,6.16655 C59.63825,4.985975 58.667025,3.891525 56.7259,3.891525 C55.004725,3.891525 53.934125,4.702425 53.934125,5.992975 C53.934125,6.9642 54.721175,7.6161 56.2224,7.9235 L58.7664,8.489275 C61.224275,9.01795 63.3032,10.21045 63.3032,13.259275 C63.3032,16.553225 60.734025,18.5818 56.58015,18.5818 C51.6379,18.5818 50.03995,15.816525 49.990925,13.444775 L53.406775,13.444775 L53.406775,13.44345 Z"></path>
                        <path d="M66.524275,2.097475 L69.87785,2.097475 L69.87785,5.1834 L72.398,5.1834 L72.398,7.850625 L69.87785,7.850625 L69.87785,14.046325 C69.87785,15.299775 70.4317,15.6933 71.7355,15.6933 C72.017725,15.6933 72.29995,15.6933 72.447025,15.668125 L72.447025,18.21345 C72.18865,18.262475 71.588425,18.323425 70.899425,18.323425 C67.61475,18.323425 66.44875,17.242225 66.44875,14.5485 L66.44875,7.8493 L64.5805,7.8493 L64.5805,5.182075 L66.524275,5.182075 L66.524275,2.097475 Z"></path>
                        <path d="M85.99515,11.218775 L85.99515,12.13965 C85.99515,16.0007 83.844675,18.495675 79.959775,18.495675 C76.06295,18.495675 73.885975,16.0007 73.885975,12.1529 L73.885975,11.232025 C73.885975,7.6055 76.06295,4.9502 79.959775,4.9502 C83.83275,4.948875 85.99515,7.580325 85.99515,11.218775 Z M77.3906,11.205525 L77.3906,12.215175 C77.3906,14.1563 78.128625,15.840375 79.94785,15.840375 C81.767075,15.840375 82.5051,14.168225 82.5051,12.215175 L82.5051,11.205525 C82.5051,9.178275 81.7419,7.59225 79.94785,7.59225 C78.15115,7.59225 77.3906,9.1902 77.3906,11.205525 Z"></path>
                        <path d="M88.060825,5.1834 L91.5257,5.1834 L91.5257,7.026475 L91.672775,7.026475 C91.95765,6.178475 92.92755,4.999225 94.69775,4.999225 C95.176075,4.999225 95.520575,5.036325 95.767025,5.097275 L95.767025,8.0719 C95.50865,7.9871 94.966725,7.93675 94.439375,7.93675 C92.351175,7.93675 91.61315,9.178275 91.61315,10.93655 L91.61315,18.262475 L88.0595,18.262475 L88.0595,5.1834 L88.060825,5.1834 Z"></path>
                        <path d="M96.61635,12.2271 L96.61635,11.08495 C96.61635,7.174875 99.0517,4.9502 102.49405,4.9502 C106.083475,4.9502 108.332,7.370975 108.332,11.157825 L108.332,12.4497 L100.009675,12.4497 L100.009675,12.843225 C100.009675,14.711475 101.104125,15.89205 102.651725,15.89205 C103.9065,15.89205 104.80485,15.27725 105.03805,14.245075 L108.2207,14.245075 C107.951725,16.32135 106.2544,18.498325 102.627875,18.498325 C99.0252,18.495675 96.61635,16.282925 96.61635,12.2271 Z M105.00095,10.333675 L105.00095,10.3085 C105.00095,8.6973 104.0178,7.48095 102.516575,7.48095 C101.00475,7.48095 100.00835,8.71055 100.00835,10.3085 L100.00835,10.333675 L105.00095,10.333675 Z"></path>
                    </g>
                    <g>
                        <path d="M24.0196,18.2638 C23.981175,13.993325 27.516275,11.915725 27.677925,11.819 C25.67585,8.900025 22.5727,8.5012 21.482225,8.4694 C18.87595,8.195125 16.34785,10.028925 15.0202,10.028925 C13.66605,10.028925 11.621575,8.4959 9.4181,8.54095 C6.5826,8.584675 3.92995,10.22635 2.4751,12.77565 C-0.52735,17.9723 1.7119,25.61225 4.588475,29.813825 C6.027425,31.872875 7.70885,34.1691 9.909675,34.088275 C12.0628,34.000825 12.867075,32.7169 15.4654,32.7169 C18.039875,32.7169 18.795125,34.088275 21.039675,34.0366 C23.350475,34.000825 24.805325,31.9696 26.193925,29.893325 C27.8568,27.53615 28.5246,25.2121 28.5511,25.09285 C28.496775,25.0743 24.063325,23.38095 24.0196,18.2638 Z"></path>
                        <path d="M19.7796,5.70545 C20.93765,4.257225 21.73,2.28695 21.51005,0.287525 C19.833925,0.361725 17.737775,1.4469 16.5307,2.863325 C15.46275,4.111475 14.50875,6.157275 14.7552,8.081175 C16.638025,8.221625 18.5712,7.13115 19.7796,5.70545 Z"></path>
                    </g>
                </g>
            </g>
        </g>
    </g>
</svg>