<?xml version="1.0" encoding="UTF-8"?>
<svg width="176px" height="53px" viewBox="0 0 176 53" version="1.1" xmlns="http://www.w3.org/2000/svg" xmlns:xlink="http://www.w3.org/1999/xlink">
    <!-- Generator: Sketch 48.2 (47327) - http://www.bohemiancoding.com/sketch -->
    <title>es-419_get</title>
    <desc>Created with Sketch.</desc>
    <defs>
        <linearGradient x1="91.488428%" y1="4.9481245%" x2="-38.3517333%" y2="71.9074222%" id="linearGradient-1">
            <stop stop-color="#00A0FF" offset="0%"></stop>
            <stop stop-color="#00A1FF" offset="1%"></stop>
            <stop stop-color="#00BEFF" offset="26%"></stop>
            <stop stop-color="#00D2FF" offset="51%"></stop>
            <stop stop-color="#00DFFF" offset="76%"></stop>
            <stop stop-color="#00E3FF" offset="100%"></stop>
        </linearGradient>
        <linearGradient x1="107.684729%" y1="50%" x2="-130.640394%" y2="50%" id="linearGradient-2">
            <stop stop-color="#FFE000" offset="0%"></stop>
            <stop stop-color="#FFBD00" offset="41%"></stop>
            <stop stop-color="#FFA500" offset="78%"></stop>
            <stop stop-color="#FF9C00" offset="100%"></stop>
        </linearGradient>
        <linearGradient x1="86.219293%" y1="17.8768889%" x2="-50.1497903%" y2="194.702638%" id="linearGradient-3">
            <stop stop-color="#FF3A44" offset="0%"></stop>
            <stop stop-color="#C31162" offset="100%"></stop>
        </linearGradient>
        <linearGradient x1="-18.7537448%" y1="-54.0521474%" x2="42.1210306%" y2="24.9170664%" id="linearGradient-4">
            <stop stop-color="#32A071" offset="0%"></stop>
            <stop stop-color="#2DA771" offset="7%"></stop>
            <stop stop-color="#15CF74" offset="48%"></stop>
            <stop stop-color="#06E775" offset="80%"></stop>
            <stop stop-color="#00F076" offset="100%"></stop>
        </linearGradient>
    </defs>
    <g id="Page-1" stroke="none" stroke-width="1" fill="none" fill-rule="evenodd">
        <g id="es-419_get" fill-rule="nonzero">
            <rect id="Rectangle-path" fill="#000000" x="0" y="0" width="176" height="52.1481481" rx="5"></rect>
            <path d="M88.8343704,28.3555556 C85.7777392,28.3699399 83.3101526,30.8569473 83.3197309,33.9135972 C83.3293092,36.9702472 85.8124337,39.4417412 88.8690949,39.4369689 C91.9257562,39.4321967 94.4011513,36.9529613 94.4011852,33.8962963 C94.4226611,32.4157762 93.8421982,30.9899623 92.7927474,29.945427 C91.7432967,28.9008917 90.3147733,28.3271291 88.8343704,28.3555556 Z M88.8343704,37.2598519 C87.456652,37.3562024 86.1600477,36.6005865 85.5647093,35.3544069 C84.9693708,34.1082272 85.1963015,32.6247717 86.1369629,31.6135607 C87.0776243,30.6023497 88.5408256,30.2689133 89.8267338,30.7727305 C91.1126419,31.2765477 91.9598942,32.515217 91.9632593,33.8962963 C92.0056854,34.7602241 91.6973463,35.6046602 91.1082126,36.237979 C90.5190788,36.8712978 89.6991068,37.2397962 88.8343704,37.2598519 Z M76.6968889,28.3555556 C73.6385297,28.3627517 71.1643974,30.8466033 71.169192,33.9049672 C71.1739866,36.9633311 73.6558947,39.4394131 76.7142614,39.43702 C79.7726281,39.4346269 82.2506582,36.954664 82.2506667,33.8962963 C82.2721426,32.4157762 81.6916797,30.9899623 80.6422289,29.945427 C79.5927781,28.9008917 78.1642548,28.3271291 76.6838519,28.3555556 L76.6968889,28.3555556 Z M76.6968889,37.2598519 C75.3184513,37.361636 74.0180666,36.6097878 73.4185326,35.3643926 C72.8189986,34.1189975 73.0423763,32.6336091 73.9816826,31.6196299 C74.9209889,30.6056507 76.3849876,30.2695198 77.6725206,30.7722215 C78.9600535,31.2749233 79.808988,32.5141111 79.8127407,33.8962963 C79.8551669,34.7602241 79.5468278,35.6046602 78.9576941,36.237979 C78.3685603,36.8712978 77.5485882,37.2397962 76.6838519,37.2598519 L76.6968889,37.2598519 Z M62.2388148,30.0634074 L62.2388148,32.4100741 L67.8708148,32.4100741 C67.7825064,33.515359 67.3230567,34.5583098 66.5671111,35.3694815 C65.4277039,36.5300706 63.8509008,37.1551097 62.2257778,37.0903704 C58.7697025,37.0903704 55.968,34.2886678 55.968,30.8325926 C55.968,27.3765174 58.7697025,24.5748148 62.2257778,24.5748148 C63.8134226,24.5489217 65.3465341,25.1537272 66.4888889,26.2565926 L68.1445926,24.6008889 C66.5865618,23.0232224 64.4560477,22.1437387 62.2388148,22.162963 C59.082497,22.0401267 56.1119205,23.6539721 54.4972319,26.3687855 C52.8825434,29.0835989 52.8825434,32.4642529 54.4972319,35.1790663 C56.1119205,37.8938798 59.082497,39.5077251 62.2388148,39.3848889 C64.4965233,39.4869094 66.6880175,38.6074594 68.2488889,36.973037 C69.6147476,35.4723719 70.3439969,33.4996591 70.2826667,31.4714074 C70.2868735,30.9772883 70.2432129,30.4839233 70.1522963,29.9982222 L62.2388148,30.0634074 Z M121.30963,31.8885926 C120.613556,29.840748 118.725595,28.4351506 116.564148,28.3555556 C115.122726,28.3527373 113.744426,28.9466647 112.756524,29.9963104 C111.768622,31.0459562 111.259242,32.4576894 111.349333,33.8962963 C111.317316,35.3685638 111.88537,36.7905555 112.922972,37.8355336 C113.960574,38.8805118 115.378506,39.4586248 116.850963,39.437037 C118.703341,39.4470221 120.436987,38.526329 121.466074,36.9860741 L119.575704,35.6823704 C119.001743,36.6392135 117.966746,37.2235659 116.850963,37.2207407 C115.695349,37.2647865 114.630288,36.5978309 114.165333,35.538963 L121.583407,32.4752593 L121.30963,31.8885926 Z M113.748148,33.7398519 C113.694764,32.9252512 113.971506,32.1234483 114.515986,31.5152003 C115.060466,30.9069523 115.826852,30.5434593 116.64237,30.5066667 C117.501993,30.4500228 118.312501,30.9117047 118.702222,31.68 L113.748148,33.7398519 Z M107.725037,39.1111111 L110.162963,39.1111111 L110.162963,22.8148148 L107.725037,22.8148148 L107.725037,39.1111111 Z M103.735704,29.5940741 L103.644444,29.5940741 C102.901284,28.7631934 101.838889,28.2889102 100.724148,28.2903704 C97.7649322,28.4338712 95.4393728,30.8749364 95.4393728,33.8376296 C95.4393728,36.8003229 97.7649322,39.2413881 100.724148,39.3848889 C101.842503,39.4036932 102.911784,38.9263357 103.644444,38.0811852 L103.722667,38.0811852 L103.722667,38.8764444 C103.722667,41.0014815 102.588444,42.1357037 100.763259,42.1357037 C99.519921,42.1066017 98.4175418,41.3287547 97.9733333,40.1671111 L95.8482963,41.0536296 C96.6666072,43.0441388 98.6111454,44.3387783 100.763259,44.3259259 C103.61837,44.3259259 105.978074,42.6441481 105.978074,38.5505185 L105.978074,28.6814815 L103.735704,28.6814815 L103.735704,29.5940741 Z M100.945778,37.2598519 C99.2025794,37.1062231 97.8656166,35.6462513 97.8656166,33.8962963 C97.8656166,32.1463413 99.2025794,30.6863695 100.945778,30.5327407 C101.788126,30.5759683 102.577345,30.9574485 103.1345,31.5906917 C103.691656,32.2239349 103.969553,33.055299 103.905185,33.8962963 C103.977065,34.7411607 103.700057,35.5786361 103.138569,36.2140047 C102.57708,36.8493733 101.780031,37.2272773 100.932741,37.2598519 L100.945778,37.2598519 Z M132.730074,22.8148148 L126.902519,22.8148148 L126.902519,39.1111111 L129.340444,39.1111111 L129.340444,32.9315556 L132.743111,32.9315556 C134.636981,33.067615 136.448203,32.1343524 137.436614,30.5131499 C138.425025,28.8919475 138.425025,26.8544229 137.436614,25.2332204 C136.448203,23.612018 134.636981,22.6787553 132.743111,22.8148148 L132.730074,22.8148148 Z M132.730074,30.637037 L129.327407,30.637037 L129.327407,25.0832593 L132.782222,25.0832593 C134.326656,25.0832593 135.578667,26.3352701 135.578667,27.8797037 C135.578667,29.4241373 134.326656,30.6761481 132.782222,30.6761481 L132.730074,30.637037 Z M147.761778,28.2903704 C145.947951,28.181953 144.242673,29.1600555 143.420444,30.7804444 L145.584593,31.68 C146.020559,30.8764859 146.889763,30.4060932 147.800889,30.4805926 C148.426051,30.4075782 149.05434,30.588761 149.544629,30.9834444 C150.034919,31.3781278 150.346108,31.9532236 150.408296,32.5795556 L150.408296,32.749037 C149.625282,32.3344581 148.752061,32.1195113 147.866074,32.1232593 C145.532444,32.1232593 143.172741,33.426963 143.172741,35.7866667 C143.219267,36.8031759 143.67498,37.7576444 144.436201,38.432921 C145.197422,39.1081976 146.199417,39.4468574 147.214222,39.3718519 C148.464773,39.461655 149.664623,38.8617297 150.343111,37.8074074 L150.421333,37.8074074 L150.421333,39.1111111 L152.768,39.1111111 L152.768,32.8402963 C152.768,29.9851852 150.603852,28.3294815 147.826963,28.3294815 L147.761778,28.2903704 Z M147.461926,37.2207407 C146.666667,37.2207407 145.558519,36.8165926 145.558519,35.8388148 C145.558519,34.5351111 146.940444,34.1048889 148.165926,34.1048889 C148.940381,34.0857791 149.705771,34.2748754 150.382222,34.6524444 C150.213648,36.11183 148.995764,37.2240528 147.527111,37.2598519 L147.461926,37.2207407 Z M161.320296,28.6814815 L158.53037,35.7475556 L158.452148,35.7475556 L155.557926,28.6814815 L152.950519,28.6814815 L157.291852,38.5635556 L154.814815,44.0521481 L157.357037,44.0521481 L164.032,28.6814815 L161.320296,28.6814815 Z M139.405037,39.1111111 L141.842963,39.1111111 L141.842963,22.8148148 L139.405037,22.8148148 L139.405037,39.1111111 Z" id="Shape" fill="#FFFFFF"></path>
            <path d="M13.6106667,9.82992593 C13.1857439,10.3398153 12.9712699,10.9925623 13.010963,11.6551111 L13.010963,40.493037 C12.9712699,41.1555859 13.1857439,41.8083328 13.6106667,42.3182222 L13.7019259,42.4094815 L29.8548148,26.2696296 L29.8548148,25.8915556 L13.7019259,9.73866667 L13.6106667,9.82992593 Z" id="Shape" fill="url(#linearGradient-1)"></path>
            <path d="M35.2,31.6539259 L29.8548148,26.2696296 L29.8548148,25.8915556 L35.2,20.4942222 L35.3173333,20.5594074 L41.7185185,24.1967407 C43.5437037,25.2266667 43.5437037,26.9214815 41.7185185,27.9644444 L35.3434074,31.5887407 L35.2,31.6539259 Z" id="Shape" fill="url(#linearGradient-2)"></path>
            <path d="M35.3564444,31.5757037 L29.8548148,26.0740741 L13.6106667,42.3182222 C14.3781802,42.9929181 15.5172407,43.0257756 16.3223704,42.3964444 L35.3694815,31.5757037" id="Shape" fill="url(#linearGradient-3)"></path>
            <path d="M35.3564444,20.5724444 L16.3093333,9.7517037 C15.5042037,9.12237254 14.3651431,9.15523006 13.5976296,9.82992593 L29.8548148,26.0740741 L35.3564444,20.5724444 Z" id="Shape" fill="url(#linearGradient-4)"></path>
            <path d="M35.2,31.4583704 L16.3093333,42.2139259 C15.5362873,42.7919053 14.474972,42.7919053 13.7019259,42.2139259 L13.6106667,42.3051852 L13.7019259,42.3964444 C14.4735175,42.9787818 15.5377418,42.9787818 16.3093333,42.3964444 L35.3564444,31.5757037 L35.2,31.4583704 Z" id="Shape" fill="#000000" opacity="0.2"></path>
            <path d="M13.6106667,42.1357037 C13.1857439,41.6258143 12.9712699,40.9730674 13.010963,40.3105185 L13.010963,40.5060741 C12.9712699,41.1686229 13.1857439,41.8213699 13.6106667,42.3312593 L13.7019259,42.24 L13.6106667,42.1357037 Z M41.7185185,27.7688889 L35.2,31.4583704 L35.3173333,31.5757037 L41.7185185,27.9514074 C42.4578099,27.6041179 42.9550403,26.8881062 43.0222222,26.0740741 C42.8736384,26.8104554 42.39215,27.4363904 41.7185185,27.7688889 Z" id="Shape" fill="#000000" opacity="0.12"></path>
            <path d="M16.3093333,9.93422222 L41.7185185,24.3792593 C42.39215,24.7117578 42.8736384,25.3376927 43.0222222,26.0740741 C42.9550403,25.2600419 42.4578099,24.5440302 41.7185185,24.1967407 L16.3093333,9.7517037 C14.4841481,8.72177778 12.9979259,9.58222222 12.9979259,11.6681481 L12.9979259,11.8637037 C13.037037,9.76474074 14.4971852,8.9042963 16.3093333,9.93422222 Z" id="Shape" fill="#FFFFFF" opacity="0.25"></path>
            <path d="M53.8168889,16.9481481 L53.8168889,9.12592593 L56.2026667,9.12592593 C57.2705825,9.07771047 58.3116937,9.46871605 59.0838519,10.208 C59.8224162,10.9602791 60.2185208,11.9835494 60.178963,13.037037 C60.2219764,14.0886165 59.8306903,15.1116173 59.0968889,15.8660741 C58.3247308,16.605358 57.2836195,16.9963636 56.2157037,16.9481481 L53.8168889,16.9481481 Z M54.8207407,15.9834074 L56.2026667,15.9834074 C56.9960454,16.0247248 57.7722534,15.7424673 58.3537778,15.2011852 C58.9058112,14.6202432 59.193558,13.8371947 59.149037,13.037037 C59.2167506,12.2390892 58.9300095,11.4517549 58.3650042,10.8842385 C57.7999989,10.3167221 57.013944,10.0264923 56.2157037,10.0906667 L54.8207407,10.0906667 L54.8207407,15.9834074 Z M61.586963,16.9481481 L61.586963,9.12592593 L62.5777778,9.12592593 L62.5777778,16.9481481 L61.586963,16.9481481 Z M66.5931852,17.1176296 C65.9925173,17.1068608 65.409787,16.9110998 64.9244444,16.557037 C64.3845214,16.1880678 64.0029583,15.6296828 63.8554074,14.9925926 L64.768,14.6275556 C64.8725717,15.0482525 65.1048365,15.4262522 65.4328889,15.7096296 C65.7463151,15.9958247 66.1557164,16.1540025 66.5801481,16.1528889 C66.9809665,16.1661454 67.3749934,16.047021 67.7013333,15.8139259 C68.0072762,15.601254 68.1840948,15.2476167 68.1706667,14.8752593 C68.187443,14.484096 68.0122446,14.1093661 67.7013333,13.8714074 C67.2514064,13.5680603 66.7532774,13.343241 66.2281481,13.2065185 C65.643863,13.0498439 65.1038844,12.7597728 64.6506667,12.3591111 C64.3000552,12.0170369 64.1065832,11.545154 64.1161481,11.0554074 C64.1170367,10.4956252 64.359372,9.9634379 64.781037,9.59525926 C65.2462603,9.16942838 65.8584057,8.94045797 66.4888889,8.95644444 C67.0687659,8.93016358 67.6398944,9.10518683 68.1054815,9.45185185 C68.477374,9.72327944 68.7590102,10.1003086 68.9137778,10.5339259 L68.0011852,10.912 C67.9213176,10.6346314 67.7516608,10.3916094 67.5188148,10.221037 C66.9230009,9.79242457 66.1199621,9.79242457 65.5241481,10.221037 C65.2655342,10.4083174 65.1146559,10.7100739 65.12,11.0293333 C65.1188931,11.3234938 65.2596486,11.6001513 65.4980741,11.7724444 C65.8342945,12.0124699 66.2090761,12.1932469 66.6062222,12.306963 C66.9342157,12.4109664 67.2562767,12.5328273 67.570963,12.672 C67.8472384,12.8009617 68.1093835,12.9582487 68.3531852,13.1413333 C68.6111316,13.3251111 68.8176152,13.5719936 68.9528889,13.8583704 C69.095977,14.1733869 69.1672274,14.5162791 69.1614815,14.8622222 C69.1679158,15.2153089 69.0873219,15.5645494 68.9268148,15.8791111 C68.780497,16.1624989 68.565316,16.4045776 68.301037,16.5831111 C68.0448225,16.7590238 67.7635333,16.8952733 67.4666667,16.9872593 C67.1831345,17.0717955 66.8890451,17.1156894 66.5931852,17.1176296 Z M71.7037037,16.9481481 L70.6998519,16.9481481 L70.6998519,9.12592593 L73.3072593,9.12592593 C73.9451025,9.11770283 74.5615297,9.35586789 75.0281481,9.79081481 C75.4946004,10.220331 75.759991,10.8254721 75.759991,11.4595556 C75.759991,12.093639 75.4946004,12.6987801 75.0281481,13.1282963 C74.5622629,13.5644127 73.945346,13.8027669 73.3072593,13.7931852 L71.7037037,13.7931852 L71.7037037,16.9481481 Z M71.7037037,12.8154074 L73.3854815,12.8154074 C73.7714373,12.8297056 74.1438673,12.672139 74.4023704,12.3851852 C74.6573121,12.1394589 74.8013375,11.8006042 74.8013375,11.4465185 C74.8013375,11.0924328 74.6573121,10.7535781 74.4023704,10.5078519 C74.1438673,10.220898 73.7714373,10.0633314 73.3854815,10.0776296 L71.7037037,10.0776296 L71.7037037,12.8154074 Z M83.437037,15.9312593 C81.8504164,17.5090378 79.2873614,17.5090378 77.7007407,15.9312593 C76.162721,14.3032382 76.162721,11.7577988 77.7007407,10.1297778 C78.4594943,9.36547717 79.4919198,8.93562816 80.5688889,8.93562816 C81.6458579,8.93562816 82.6782835,9.36547717 83.437037,10.1297778 C84.9816203,11.7551832 84.9816203,14.3058538 83.437037,15.9312593 Z M78.4438519,15.2794074 C79.6189112,16.4495663 81.5188666,16.4495663 82.6939259,15.2794074 C83.8479622,14.0072157 83.8479622,12.0668584 82.6939259,10.7946667 C81.5188666,9.62450776 79.6189112,9.62450776 78.4438519,10.7946667 C77.2898155,12.0668584 77.2898155,14.0072157 78.4438519,15.2794074 Z M86.0444444,16.9481481 L86.0444444,9.12592593 L87.2699259,9.12592593 L91.0767407,15.2142222 L91.0767407,9.12592593 L92.0805926,9.12592593 L92.0805926,16.9481481 L91.0376296,16.9481481 L87.0613333,10.573037 L87.0613333,16.9481481 L86.0444444,16.9481481 Z M93.8666667,16.9481481 L93.8666667,9.12592593 L94.8705185,9.12592593 L94.8705185,16.9481481 L93.8666667,16.9481481 Z M96.6044444,16.9481481 L96.6044444,9.12592593 L99.4334815,9.12592593 C100.020879,9.11483246 100.590154,9.3294773 101.024,9.72562963 C101.460178,10.1108146 101.703594,10.6692389 101.688889,11.250963 C101.695007,11.598481 101.594947,11.9395935 101.402074,12.2287407 C101.21066,12.509599 100.944118,12.7309644 100.632889,12.8675556 C101.01105,12.9927398 101.342706,13.2289877 101.584593,13.5454815 C101.83528,13.8648938 101.96874,14.2606723 101.962667,14.6666667 C101.976142,15.2751389 101.718133,15.8580477 101.258667,16.2571852 C100.804722,16.6759189 100.207445,16.904564 99.5899259,16.896 L96.6044444,16.9481481 Z M97.6082963,12.4764444 L99.4334815,12.4764444 C99.7784922,12.4908473 100.11233,12.3525429 100.346074,12.0983704 C100.577519,11.885092 100.712395,11.5869431 100.71977,11.2723002 C100.727144,10.9576572 100.606384,10.6535169 100.385185,10.4296296 C100.164619,10.1801405 99.8445628,10.0416085 99.5117037,10.0515556 L97.6082963,10.0515556 L97.6082963,12.4764444 Z M97.6082963,15.9834074 L99.629037,15.9834074 C99.986537,15.9954012 100.330733,15.8472055 100.567704,15.5792593 C100.797566,15.3408443 100.928079,15.0238854 100.932741,14.6927407 C100.932741,13.9727251 100.349053,13.389037 99.629037,13.389037 L97.6082963,13.389037 L97.6082963,15.9834074 Z M103.305481,16.9481481 L103.305481,9.12592593 L104.296296,9.12592593 L104.296296,15.9834074 L107.685926,15.9834074 L107.685926,16.9481481 L103.305481,16.9481481 Z M113.539556,10.0906667 L109.967407,10.0906667 L109.967407,12.5677037 L113.174519,12.5677037 L113.174519,13.5063704 L109.967407,13.5063704 L109.967407,15.9834074 L113.526519,15.9834074 L113.526519,16.9481481 L108.963556,16.9481481 L108.963556,9.12592593 L113.526519,9.12592593 L113.539556,10.0906667 Z M122.300444,10.0906667 L118.741333,10.0906667 L118.741333,12.5677037 L121.948444,12.5677037 L121.948444,13.5063704 L118.741333,13.5063704 L118.741333,15.9834074 L122.300444,15.9834074 L122.300444,16.9481481 L117.737481,16.9481481 L117.737481,9.12592593 L122.300444,9.12592593 L122.300444,10.0906667 Z M123.851852,16.9481481 L123.851852,9.12592593 L125.155556,9.12592593 L128.96237,15.2142222 L128.96237,9.12592593 L129.966222,9.12592593 L129.966222,16.9481481 L128.923259,16.9481481 L124.946963,10.573037 L124.946963,16.9481481 L123.851852,16.9481481 Z" id="Shape" stroke="#FFFFFF" stroke-width="0.2" fill="#FFFFFF"></path>
        </g>
    </g>
</svg>