<?xml version="1.0" encoding="utf-8"?>
<!-- Generator: Adobe Illustrator 16.0.0, SVG Export Plug-In . SVG Version: 6.00 Build 0)  -->
<!DOCTYPE svg PUBLIC "-//W3C//DTD SVG 1.1//EN" "http://www.w3.org/Graphics/SVG/1.1/DTD/svg11.dtd">
<svg version="1.1" id="Layer_1" xmlns="http://www.w3.org/2000/svg" xmlns:xlink="http://www.w3.org/1999/xlink" x="0px" y="0px"
	 width="142.508px" height="140.61px" viewBox="0 0 142.508 140.61" enable-background="new 0 0 142.508 140.61"
	 xml:space="preserve">
<g>
	<g>
		<path d="M1083.751,216.994l-9.884-9.217c0-0.133-0.134-0.267-0.267-0.4l-39.803-107.521c-7.079-18.833-25.11-31.388-45.279-31.388
			H706.693c-20.168,0-38.199,12.555-45.278,31.388l-39.401,106.318l-14.96,12.422c-14.825,12.422-23.374,30.72-23.508,50.087V423.62
			c0,26.58,22.173,48.218,48.752,48.218h29.117c26.446,0,47.683-21.504,47.683-47.816c0-0.134,0-0.268,0-0.268v-20.035h269.804
			v19.901c-0.267,26.446,20.971,47.95,47.416,48.218c0.134,0,0.268,0,0.268,0h29.117c26.58,0,48.752-21.638,48.752-48.218v-158.81
			C1104.454,246.646,1096.975,229.415,1083.751,216.994z M686.525,108.938c3.205-8.415,11.22-13.891,20.168-13.757h281.691
			c8.949-0.134,16.963,5.342,20.169,13.757l33.258,89.089h-20.436c-6.411-36.063-38.334-64.513-76.801-64.513
			s-70.256,28.45-76.533,64.513H653.401L686.525,108.938z M994.128,198.027h-98.839c7.347-27.247,35.529-43.409,62.776-36.063
			C975.696,166.772,989.453,180.396,994.128,198.027z M682.519,423.62c0.267,11.621-8.948,21.237-20.569,21.505
			c-0.133,0-0.268,0-0.4,0h-29.117c-11.888,0-22.039-9.617-22.039-21.505v-24.843c6.945,3.339,14.426,4.941,22.039,4.941h50.087
			V423.62z M1077.874,423.62c0,11.888-10.15,21.505-22.038,21.505h-29.117c-11.62,0-20.97-9.483-20.97-21.104
			c0-0.134,0-0.268,0-0.401v-19.901h50.087c7.613,0,15.227-1.603,22.038-4.941V423.62z M1055.836,377.006H632.432
			c-11.888,0-22.039-9.483-22.039-21.37v-86.818c0.134-11.62,5.209-22.572,14.025-30.053l16.428-14.024h412.586l12.021,11.354
			c7.88,7.479,12.421,17.765,12.421,28.583v90.959l0,0C1077.874,367.522,1067.724,377.006,1055.836,377.006z"/>
	</g>
</g>
<g>
	<g>
		<path d="M731.938,264.811h-82.811c-7.346,0-13.356,6.011-13.356,13.356v57.434c0,7.346,6.011,13.356,13.356,13.356h82.811
			c7.347,0,13.357-6.011,13.357-13.356v-57.434C745.295,270.821,739.284,264.811,731.938,264.811z M718.582,322.244h-56.099v-30.721
			h56.099V322.244z"/>
	</g>
</g>
<g>
	<g>
		<path d="M1039.141,264.811h-82.812c-7.346,0-13.356,6.011-13.356,13.356v57.434c0,7.346,6.011,13.356,13.356,13.356h82.812
			c7.346,0,13.356-6.011,13.356-13.356v-57.434C1052.497,270.821,1046.486,264.811,1039.141,264.811z M1025.783,322.244h-56.098
			v-30.721h56.098V322.244z"/>
	</g>
</g>
<g>
	<g>
		<path d="M897.293,310.223H790.841c-7.347,0-13.356,6.011-13.356,13.356c0,7.347,6.01,13.357,13.356,13.357h106.452
			c7.346,0,13.356-6.011,13.356-13.357C910.649,316.233,904.772,310.223,897.293,310.223z"/>
	</g>
</g>
<g>
	<g>
		<path d="M897.293,276.831H790.841c-7.347,0-13.356,6.011-13.356,13.356c0,7.347,6.01,13.357,13.356,13.357h106.452
			c7.346,0,13.356-6.011,13.356-13.357C910.649,282.842,904.772,276.831,897.293,276.831z"/>
	</g>
</g>
<g>
	<g>
		<path d="M1059.709-61.625c7.347,0.667,13.758-4.809,14.426-12.155c0.133-1.603,0-3.206-0.534-4.808
			c-5.076-18.299-16.296-34.193-31.789-45.146c-15.36-10.686-33.525-16.429-52.225-16.429c-37.131,0-67.317,18.966-80.94,51.022
			H775.614c-16.161-26.713-46.214-44.344-77.067-44.344c-20.035,0-38.2,5.744-52.625,16.429
			c-15.494,11.487-26.18,28.583-30.988,49.419c-1.603,7.213,2.805,14.425,10.018,16.028c1.336,0.267,2.672,0.401,4.008,0.267
			l43.542-3.339c3.206,7.346,3.206,15.627,0,22.84l-43.81-3.473c-7.346-0.668-13.758,4.808-14.426,12.154
			c-0.133,1.603,0,3.206,0.535,4.809c10.686,36.998,43.81,60.906,84.414,60.906c37.131,0,67.316-19.5,80.94-51.556h132.498
			c14.024,24.042,41.271,44.478,75.865,44.478c0.268,0,0.534,0.133,0.802,0.133c19.901,0,38.199-5.61,52.625-16.162
			c15.493-11.353,26.445-28.182,31.521-48.618c1.736-7.212-2.538-14.425-9.75-16.161c-1.336-0.401-2.806-0.534-4.274-0.401
			l-43.543,3.339c-3.205-7.346-3.205-15.627,0-22.84L1059.709-61.625z M998.136-20.22c2.805,3.606,7.078,5.61,11.62,5.209
			l30.186-2.404c-10.284,16.963-28.049,26.312-50.889,26.446c-26.847,0.267-48.217-18.966-56.498-36.73
			c-2.138-4.675-6.945-7.747-12.155-7.881h-149.86c-5.877,0-11.086,4.007-12.822,9.617c-7.748,25.778-30.32,41.939-58.77,41.939
			c-20.836,0-38.334-8.281-49.286-22.706l28.583,2.404c4.541,0.4,8.949-1.603,11.754-5.209l0.268-0.401
			c15.227-19.901,15.093-47.283-0.268-66.783c-2.805-3.606-7.078-5.476-11.62-5.076l-30.72,2.404
			c10.018-17.363,27.648-26.98,50.755-26.98c23.24,0,46.614,14.959,57.032,36.731c2.271,4.541,6.945,7.479,12.021,7.346h150.396
			c5.877,0.133,11.086-3.606,12.822-9.216c7.747-25.778,30.319-41.672,58.636-41.672c20.702,0.133,38.199,8.682,49.152,23.107
			l-28.584-2.404c-4.541-0.401-8.948,1.603-11.753,5.209l-0.268,0.401C982.909-67.102,983.042-39.854,998.136-20.22z"/>
	</g>
</g>
<g>
	<g>
		<g>
			<path fill="#000685" d="M124.644,81.697l-2.2-2.052c0-0.029-0.031-0.06-0.06-0.089l-8.863-23.944
				c-1.577-4.193-5.592-6.99-10.083-6.99H40.676c-4.491,0-8.506,2.796-10.083,6.99l-8.774,23.677l-3.332,2.766
				c-3.301,2.767-5.206,6.842-5.235,11.154v34.504c0,5.919,4.938,10.737,10.857,10.737h6.484c5.89,0,10.619-4.789,10.619-10.647
				c0-0.031,0-0.06,0-0.06v-4.462h60.083v4.433c-0.059,5.889,4.67,10.677,10.56,10.737c0.029,0,0.06,0,0.06,0h6.484
				c5.919,0,10.857-4.818,10.857-10.737V92.346C129.255,88.3,127.589,84.464,124.644,81.697z M36.185,57.634
				c0.713-1.874,2.499-3.093,4.491-3.063h62.73c1.993-0.03,3.778,1.189,4.492,3.063l7.406,19.84h-4.551
				c-1.428-8.031-8.536-14.367-17.103-14.367s-15.646,6.336-17.044,14.367H28.809L36.185,57.634z M104.686,77.474H82.675
				c1.637-6.068,7.913-9.668,13.98-8.031C100.581,70.514,103.645,73.547,104.686,77.474z M35.292,127.712
				c0.06,2.587-1.992,4.729-4.581,4.789c-0.029,0-0.059,0-0.089,0h-6.484c-2.647,0-4.907-2.143-4.907-4.789v-5.533
				c1.546,0.743,3.212,1.1,4.907,1.1h11.154V127.712z M123.336,127.712c0,2.646-2.261,4.789-4.908,4.789h-6.484
				c-2.587,0-4.67-2.112-4.67-4.699c0-0.031,0-0.06,0-0.089v-4.433h11.154c1.695,0,3.392-0.357,4.908-1.1V127.712z M118.428,117.331
				H24.139c-2.647,0-4.907-2.112-4.907-4.758V93.238c0.029-2.587,1.16-5.027,3.123-6.693l3.658-3.123h91.88l2.678,2.528
				c1.754,1.666,2.766,3.956,2.766,6.365v20.257l0,0C123.336,115.218,121.075,117.331,118.428,117.331z"/>
		</g>
	</g>
	<g>
		<g>
			<path fill="#000685" d="M46.299,92.346H27.856c-1.635,0-2.974,1.338-2.974,2.974v12.791c0,1.635,1.338,2.974,2.974,2.974h18.442
				c1.635,0,2.974-1.338,2.974-2.974V95.319C49.272,93.684,47.934,92.346,46.299,92.346z M43.324,105.135H30.832v-6.841h12.492
				V105.135z"/>
		</g>
	</g>
	<g>
		<g>
			<path fill="#000685" d="M114.709,92.346h-18.44c-1.637,0-2.975,1.338-2.975,2.974v12.791c0,1.635,1.338,2.974,2.975,2.974h18.44
				c1.637,0,2.975-1.338,2.975-2.974V95.319C117.685,93.684,116.346,92.346,114.709,92.346z M111.736,105.135H99.243v-6.841h12.493
				V105.135z"/>
		</g>
	</g>
	<g>
		<g>
			<path fill="#000685" d="M83.122,102.458H59.416c-1.637,0-2.975,1.338-2.975,2.975c0,1.636,1.338,2.974,2.975,2.974h23.706
				c1.635,0,2.975-1.338,2.975-2.974C86.096,103.797,84.788,102.458,83.122,102.458z"/>
		</g>
	</g>
	<g>
		<g>
			<path fill="#000685" d="M83.122,95.022H59.416c-1.637,0-2.975,1.338-2.975,2.974c0,1.637,1.338,2.975,2.975,2.975h23.706
				c1.635,0,2.975-1.338,2.975-2.975C86.096,96.361,84.788,95.022,83.122,95.022z"/>
		</g>
	</g>
	<g>
		<g>
			<path fill="#F4D200" d="M119.291,19.651c1.637,0.148,3.064-1.07,3.212-2.707c0.031-0.357,0-0.714-0.119-1.071
				c-1.13-4.075-3.628-7.614-7.079-10.054c-3.421-2.38-7.466-3.658-11.63-3.658c-8.269,0-14.991,4.224-18.024,11.363H56.025
				c-3.599-5.95-10.292-9.875-17.162-9.875c-4.462,0-8.508,1.278-11.72,3.658c-3.451,2.558-5.83,6.365-6.901,11.006
				c-0.357,1.606,0.625,3.212,2.23,3.569c0.298,0.06,0.595,0.089,0.893,0.06l9.697-0.744c0.714,1.636,0.714,3.481,0,5.087
				l-9.756-0.774c-1.636-0.149-3.064,1.071-3.213,2.708c-0.029,0.356,0,0.713,0.12,1.07c2.38,8.239,9.756,13.563,18.798,13.563
				c8.27,0,14.992-4.342,18.025-11.481h29.507c3.123,5.354,9.191,9.905,16.895,9.905c0.059,0,0.119,0.031,0.179,0.031
				c4.432,0,8.506-1.25,11.718-3.6c3.451-2.529,5.89-6.276,7.021-10.828c0.386-1.606-0.566-3.212-2.172-3.598
				c-0.297-0.089-0.625-0.12-0.952-0.089l-9.696,0.743c-0.714-1.635-0.714-3.479,0-5.085L119.291,19.651z M105.579,28.872
				c0.625,0.803,1.577,1.249,2.587,1.16l6.722-0.535c-2.291,3.778-6.246,5.859-11.333,5.89c-5.979,0.059-10.737-4.224-12.582-8.18
				c-0.477-1.042-1.547-1.725-2.707-1.755H54.895c-1.309,0-2.469,0.893-2.855,2.143c-1.726,5.741-6.753,9.339-13.087,9.339
				c-4.641,0-8.538-1.844-10.977-5.056l6.365,0.536c1.012,0.089,1.994-0.357,2.618-1.16l0.06-0.089
				c3.39-4.432,3.361-10.529-0.06-14.872c-0.625-0.803-1.577-1.22-2.587-1.131l-6.841,0.536c2.23-3.867,6.156-6.008,11.302-6.008
				c5.176,0,10.382,3.332,12.701,8.18c0.506,1.011,1.546,1.665,2.677,1.635h33.492c1.309,0.029,2.469-0.803,2.855-2.052
				c1.726-5.741,6.751-9.28,13.058-9.28c4.61,0.029,8.506,1.934,10.946,5.146l-6.367-0.535c-1.011-0.089-1.992,0.357-2.617,1.16
				l-0.06,0.089C102.188,18.431,102.217,24.5,105.579,28.872z"/>
		</g>
	</g>
</g>
</svg>
