<?xml version="1.0" encoding="utf-8"?>
<!-- Generator: Adobe Illustrator 16.0.0, SVG Export Plug-In . SVG Version: 6.00 Build 0)  -->
<!DOCTYPE svg PUBLIC "-//W3C//DTD SVG 1.1//EN" "http://www.w3.org/Graphics/SVG/1.1/DTD/svg11.dtd">
<svg version="1.1" id="Layer_1" xmlns="http://www.w3.org/2000/svg" xmlns:xlink="http://www.w3.org/1999/xlink" x="0px" y="0px"
	 width="142.508px" height="140.61px" viewBox="0 0 142.508 140.61" enable-background="new 0 0 142.508 140.61"
	 xml:space="preserve">
<g id="Taxi_Driver-Customer-Driver-Taxi-Transport">
	<path fill="#000685" d="M54.42,53.832l-10.672-4.753v-3.146c4.072-2.372,7.034-6.268,8.23-10.826h0.572
		c3.646,0,6.602-2.956,6.602-6.602c0-3.646-2.956-6.601-6.602-6.601v-1.848l4.291-4.065c0.256-0.794,0.053-1.666-0.528-2.267
		l-4.401-4.401c-0.419-0.405-0.979-0.633-1.562-0.638H19.542C18.959,8.688,18.4,8.917,17.98,9.321l-4.401,4.401
		c-0.581,0.601-0.784,1.472-0.527,2.267l4.291,4.065v1.848c-3.646,0-6.602,2.956-6.602,6.601c0,3.646,2.956,6.602,6.602,6.602h0.572
		c1.196,4.559,4.156,8.455,8.229,10.826v3.146l-10.672,4.753c-5.552,2.475-9.129,7.983-9.132,14.062v33.227
		c0,4.861,3.941,8.802,8.802,8.802v19.804c0,1.215,0.985,2.201,2.201,2.201H52.55c1.215,0,2.201-0.985,2.201-2.201v-19.804
		c4.861,0,8.802-3.941,8.802-8.802V67.893C63.549,61.815,59.972,56.307,54.42,53.832z M52.55,26.304c1.215,0,2.201,0.985,2.201,2.2
		c0,1.216-0.986,2.201-2.201,2.201V26.304z M17.342,30.705c-1.216,0-2.201-0.985-2.201-2.201c0-1.215,0.985-2.2,2.201-2.2V30.705z
		 M47.774,21.903c-0.94,2.633-3.432,4.394-6.228,4.401H28.344c-2.796-0.007-5.286-1.768-6.227-4.401H47.774z M17.65,15.879
		l2.794-2.794h29.003l2.794,2.794l-1.707,1.606H19.463L17.65,15.879z M21.743,30.705v-2.266c1.89,1.463,4.21,2.26,6.601,2.266
		h13.203c2.391-0.006,4.711-0.803,6.602-2.266v2.266c0,7.292-5.911,13.203-13.203,13.203C27.654,43.908,21.743,37.997,21.743,30.705
		z M30.544,48.925v-1.188c2.885,0.763,5.917,0.763,8.802,0v1.188l-4.401,1.474L30.544,48.925z M30.875,53.677l-2.508,2.487
		l-2.2-2.288l2.288-1.013L30.875,53.677z M41.438,52.863l2.288,1.013l-2.201,2.288l-2.508-2.487L41.438,52.863z M15.141,105.521
		c-2.427-0.007-4.394-1.974-4.401-4.401h4.401V105.521z M50.349,127.526H37.146v-17.604h-4.401v17.604H19.542V103.32h30.807V127.526
		z M54.75,105.521v-4.401h4.401C59.144,103.547,57.178,105.514,54.75,105.521z M59.151,96.719H54.75V65.912h-4.401v33.007H19.542
		V65.912h-4.401v30.807H10.74V67.893c0.004-4.348,2.564-8.287,6.535-10.057l4.622-2.046l4.862,5.039
		c0.404,0.435,0.969,0.682,1.562,0.682h0.022c0.583-0.008,1.141-0.236,1.563-0.638l5.039-5.061l5.039,5.061
		c0.422,0.401,0.98,0.629,1.562,0.638h0.022c0.593,0,1.16-0.248,1.562-0.682l4.863-5.039l4.622,2.046
		c3.971,1.77,6.531,5.708,6.536,10.057V96.719z"/>
	<path fill="#F4D200" d="M81.156,109.922h22.005v4.401H81.156V109.922z"/>
	<path fill="#F4D200" d="M81.156,101.12h22.005v4.401H81.156V101.12z"/>
	<path fill="#F4D200" d="M125.165,107.722c0-3.646-2.955-6.602-6.601-6.602s-6.602,2.956-6.602,6.602s2.956,6.602,6.602,6.602
		S125.165,111.368,125.165,107.722z M116.363,107.722c0-1.216,0.986-2.2,2.201-2.2c1.215,0,2.2,0.984,2.2,2.2
		c0,1.215-0.985,2.201-2.2,2.201C117.349,109.922,116.363,108.937,116.363,107.722z"/>
	<path fill="#F4D200" d="M65.752,114.323c3.646,0,6.602-2.956,6.602-6.602s-2.956-6.602-6.602-6.602l0,0v4.401
		c1.216,0.001,2.2,0.987,2.199,2.202c-0.001,1.215-0.988,2.2-2.203,2.199c-0.786-0.001-1.511-0.42-1.903-1.101l-3.81,2.201
		C61.218,113.062,63.395,114.319,65.752,114.323z"/>
	<path fill="#F4D200" d="M136.168,90.118c-0.011-3.641-2.96-6.591-6.602-6.601c-1.269,0.002-2.508,0.377-3.565,1.078l-3.125-8.34
		l-1.76-7.02c-0.489-1.958-2.251-3.33-4.269-3.323h-8.66h-2.826H67.953v4.401h48.895l1.1,4.401H67.953v4.401h51.293l4.951,13.203
		H85.249c-1.193-4.691-5.964-7.526-10.655-6.333c-3.111,0.792-5.541,3.221-6.333,6.333h-0.308v4.401h59.414
		c1.215,0,2.2,0.985,2.2,2.2v17.604c0,1.215-0.985,2.201-2.2,2.201H59.151v4.401h4.401v4.401h-4.401v4.4h4.401
		c2.427-0.007,4.393-1.974,4.4-4.4v-4.401h48.411v4.401c0.008,2.427,1.974,4.394,4.401,4.4h8.802c2.428-0.007,4.394-1.974,4.401-4.4
		V98.919c-0.004-1.137-0.308-2.252-0.881-3.234C135.005,94.485,136.169,92.38,136.168,90.118z M72.97,92.318
		c1.19-2.09,3.849-2.82,5.939-1.631c0.68,0.388,1.244,0.951,1.631,1.631H72.97z M129.566,127.526h-8.802v-4.401h6.602
		c0.75-0.006,1.494-0.14,2.2-0.396V127.526z M129.566,92.318c-0.249-0.001-0.494-0.045-0.726-0.132l-1.167-3.147
		c0.375-0.693,1.103-1.125,1.893-1.121c1.215,0,2.201,0.984,2.201,2.2S130.781,92.318,129.566,92.318z"/>
</g>
</svg>
