<svg width="100" height="32" viewBox="0 0 100 32" fill="none" xmlns="http://www.w3.org/2000/svg">
<path d="M11.2636 31.8182C9.66266 31.8182 8.11893 31.5305 6.74671 30.8976C5.3745 30.3222 4.17381 29.4592 3.20183 28.481C2.22985 27.4453 1.42939 26.2946 0.857633 24.9137C0.285878 23.5328 0 22.0944 0 20.5409V20.4833C0 18.9298 0.285878 17.4914 0.857633 16.1105C1.42939 14.7296 2.22985 13.5213 3.25901 12.4856C4.28816 11.4499 5.48885 10.6444 6.91824 10.0115C8.34763 9.43614 9.89137 9.09091 11.6066 9.09091C13.8365 9.09091 15.7233 9.55121 17.2098 10.4143C18.6964 11.2773 20.2973 12.8884 21.1549 14.557L15.7233 17.8366C15.2087 17.0886 14.6369 16.5708 14.008 16.168C13.3791 15.7653 12.6358 15.5926 11.721 15.5926C11.0921 15.5926 10.5203 15.7077 10.0057 15.9954C9.49114 16.2255 9.03373 16.5708 8.69068 17.0311C8.29045 17.4914 8.00457 18.0092 7.83305 18.5846C7.60435 19.16 7.48999 19.7929 7.48999 20.4258V20.4833C7.48999 21.1738 7.60435 21.8067 7.83305 22.4396C8.06175 23.015 8.34763 23.5903 8.69068 23.9931C9.09091 24.4534 9.49114 24.7986 10.0629 25.0288C10.5775 25.2589 11.2064 25.4315 11.8353 25.4315C12.7501 25.4315 13.4934 25.2589 14.1224 24.8562C14.7513 24.4534 15.3802 23.878 15.952 23.1876L21.2121 26.4097C20.2973 28.0783 18.7536 29.5742 17.2098 30.4948C15.6089 31.3579 13.665 31.8182 11.2636 31.8182Z" fill="#004EC9"/>
<path d="M25 9.44038H31.9031V13.7988C32.5255 12.3078 33.3176 11.1608 34.3927 10.3006C35.4677 9.44038 36.8823 9.03894 38.6364 9.09629V15.7487H38.014C36.0336 15.7487 34.5058 16.3221 33.4874 17.5265C32.4123 18.6734 31.9031 20.5659 31.9031 23.0319V31.0606H25V9.44038Z" fill="#004EC9"/>
<path fill-rule="evenodd" clip-rule="evenodd" d="M43.8811 31.3496C44.7552 31.6425 45.7459 31.8182 46.7949 31.8182C48.2517 31.8182 49.4755 31.5253 50.641 31.1153C51.69 30.5881 52.5641 29.8852 53.3217 29.0651V31.3496H60.6061V18.6387C60.6061 16.12 60.4312 11.1996 55.2448 9.79382C55.122 9.75782 55.0046 9.72273 54.8906 9.68865C53.7063 9.33462 52.891 9.09091 50.2331 9.09091C48.404 9.09091 46.8912 9.40885 45.5443 9.69193C45.4751 9.70648 45.4063 9.72093 45.338 9.73524C44.0335 10.0084 42.2221 10.7911 40.9913 11.323C40.9024 11.3614 40.8166 11.3984 40.7343 11.4339L42.7156 16.3543C42.8424 16.3065 43.0036 16.2414 43.1938 16.1646C44.4031 15.6763 46.7858 14.7142 48.951 14.7142C50.4662 14.7142 51.5734 15.007 52.2727 15.6514C52.972 16.2957 53.3217 16.94 53.3217 18.1115C53.3217 18.1115 49.0676 17.9944 48.0186 17.9944C46.6783 17.9944 45.5128 18.1701 44.4639 18.463C43.4149 18.7559 42.5408 19.1659 41.7832 19.7516C41.0256 20.3374 40.4429 21.0403 40.035 21.9189C39.627 22.7976 39.3939 23.7933 39.3939 24.9649V25.0234C39.3939 26.1364 39.5688 27.1321 39.9767 27.9522C40.3846 28.7723 40.9091 29.4752 41.5501 30.0609C42.1911 30.5881 43.007 31.0567 43.8811 31.3496ZM52.0396 25.7263C51.282 26.3707 50.4079 26.6635 49.1259 26.6635C48.2517 26.6635 47.5524 26.4878 47.028 26.0192C46.4452 25.6092 46.1538 25.0234 46.1538 24.3205V24.262C46.1538 23.5005 46.5035 22.9147 47.1445 22.3875C47.8107 21.8519 49.9321 21.9285 51.7808 21.9953C52.3579 22.0162 52.9085 22.0361 53.3799 22.0361V23.2076C53.3799 24.262 52.7972 25.082 52.0396 25.7263Z" fill="#004EC9"/>
<path fill-rule="evenodd" clip-rule="evenodd" d="M72.5008 28.2603C72.9983 28.8876 74.722 31.0606 78.8653 31.0606C82.2937 31.0606 84.8651 29.2319 85.7793 28.2604C86.6364 27.2888 87.3221 26.0887 87.8364 24.7172C88.3507 23.2885 88.6364 21.7455 88.6364 19.9739V19.9168C88.6364 18.1452 88.3507 16.6022 87.8364 15.2306C87.3221 13.8591 86.5222 12.9447 85.665 11.9732C84.7508 11.0017 83.608 10.3731 82.4652 9.85874C81.3223 9.34441 80.0652 9.05867 78.8082 9.05867C74.8884 9.05867 72.9869 11.3295 72.44 11.9828C72.4049 12.0247 72.3754 12.0599 72.3512 12.0875L72.4084 1.51515H65.1515V30.7749H72.4084V28.1461C72.4325 28.1742 72.4632 28.2128 72.5008 28.2603ZM80.1224 23.7457C79.2081 24.7172 78.1796 25.1744 76.8654 25.1744C76.2368 25.1744 75.6654 25.0029 75.094 24.7743C74.5797 24.4886 74.0655 24.1457 73.6655 23.6885C73.2655 23.2313 72.9227 22.6599 72.6941 22.0312C72.4655 21.3455 72.3512 20.6597 72.3512 19.9168V19.8596C72.3512 19.1167 72.4655 18.4309 72.6941 17.8023C72.9227 17.2308 73.2655 16.6593 73.6655 16.2022C74.0655 15.745 74.5226 15.3449 75.094 15.1163C75.6654 14.8306 76.2368 14.7163 76.8654 14.7163C78.1796 14.7163 79.2653 15.1735 80.1224 16.145C80.9795 17.1165 81.4366 18.3166 81.4366 19.8596V19.9739C81.4366 21.5169 80.9795 22.7742 80.1224 23.7457Z" fill="#004EC9"/>
<path fill-rule="evenodd" clip-rule="evenodd" d="M96.2121 0C98.31 0 100 1.68366 100 3.77372C100 5.86378 98.31 7.54744 96.2121 7.54744C94.1142 7.54744 92.4242 5.86378 92.4242 3.77372C92.4242 1.68366 94.1142 0 96.2121 0ZM99.7669 9.17304H92.4825V31.0606H99.7669V9.17304Z" fill="#004EC9"/>
</svg>
