<svg width="540" height="464" viewBox="0 0 540 464" fill="none" xmlns="http://www.w3.org/2000/svg">
<g opacity="0.3">
<path d="M128.81 155.89H154.65V139.27H139.2L128.81 155.89Z" fill="url(#paint0_linear)"/>
<rect x="259.17" y="121.02" width="82.19" height="201.29" fill="url(#paint1_linear)"/>
<path d="M362.41 43.4H397.52V15.54H376.52L362.41 43.4Z" fill="url(#paint2_linear)"/>
<path d="M362.41 43.4H397.52V35.8H366.25L362.41 43.4Z" fill="#4584FF"/>
<rect x="419.45" y="134.01" width="68.36" height="188.3" fill="url(#paint3_linear)"/>
<rect x="425.99" y="148.17" width="13.92" height="7.19" fill="white"/>
<rect x="444.19" y="148.17" width="13.92" height="7.19" fill="white"/>
<rect x="462.38" y="148.17" width="13.92" height="7.19" fill="white"/>
<rect x="425.99" y="164.32" width="13.92" height="7.19" fill="white"/>
<rect x="444.19" y="164.32" width="13.92" height="7.19" fill="white"/>
<rect x="462.38" y="164.32" width="13.92" height="7.19" fill="white"/>
<rect x="425.99" y="180.47" width="13.92" height="7.19" fill="white"/>
<rect x="444.19" y="180.47" width="13.92" height="7.19" fill="white"/>
<rect x="462.38" y="180.47" width="13.92" height="7.19" fill="white"/>
<rect x="425.99" y="196.63" width="13.92" height="7.19" fill="white"/>
<rect x="444.19" y="196.63" width="13.92" height="7.19" fill="white"/>
<rect x="462.38" y="196.63" width="13.92" height="7.19" fill="white"/>
<rect x="425.99" y="212.78" width="13.92" height="7.19" fill="white"/>
<rect x="444.19" y="212.78" width="13.92" height="7.19" fill="white"/>
<rect x="462.38" y="212.78" width="13.92" height="7.19" fill="white"/>
<g style="mix-blend-mode:multiply">
<rect x="458.1" y="134.01" width="29.7" height="188.3" fill="url(#paint4_linear)"/>
</g>
<rect x="267.04" y="136.16" width="16.73" height="7.69" fill="white"/>
<rect x="288.92" y="136.16" width="16.73" height="7.69" fill="white"/>
<rect x="310.79" y="136.16" width="16.73" height="7.69" fill="white"/>
<rect x="267.04" y="153.43" width="16.73" height="7.69" fill="white"/>
<rect x="288.92" y="153.43" width="16.73" height="7.69" fill="white"/>
<rect x="310.79" y="153.43" width="16.73" height="7.69" fill="white"/>
<rect x="267.04" y="170.69" width="16.73" height="7.69" fill="white"/>
<rect x="288.92" y="170.69" width="16.73" height="7.69" fill="white"/>
<rect x="310.79" y="170.69" width="16.73" height="7.69" fill="white"/>
<rect x="267.04" y="187.96" width="16.73" height="7.69" fill="white"/>
<rect x="288.92" y="187.96" width="16.73" height="7.69" fill="white"/>
<rect x="310.79" y="187.96" width="16.73" height="7.69" fill="white"/>
<rect x="267.04" y="205.22" width="16.73" height="7.69" fill="white"/>
<rect x="288.92" y="205.22" width="16.73" height="7.69" fill="white"/>
<rect x="310.79" y="205.22" width="16.73" height="7.69" fill="white"/>
<rect x="294.5" y="107.83" width="42.44" height="13.2" fill="url(#paint5_linear)"/>
<g style="mix-blend-mode:multiply">
<rect x="305.65" y="121.02" width="35.71" height="201.28" fill="url(#paint6_linear)"/>
</g>
<rect x="294.5" y="116.87" width="42.44" height="4.15" fill="#4584FF"/>
<rect x="322.74" y="43.49" width="82.19" height="278.82" fill="url(#paint7_linear)"/>
<rect x="333.16" y="55.33" width="4.59" height="187.36" fill="white"/>
<rect x="344.86" y="55.33" width="4.59" height="187.36" fill="white"/>
<rect x="356.56" y="55.33" width="4.59" height="187.36" fill="white"/>
<rect x="368.26" y="55.33" width="4.59" height="187.36" fill="white"/>
<rect x="379.96" y="55.33" width="4.59" height="187.36" fill="white"/>
<rect x="391.66" y="55.33" width="4.59" height="187.36" fill="white"/>
<rect x="469.71" y="62.89" width="68.36" height="259.42" fill="url(#paint8_linear)"/>
<rect x="476.26" y="82.4" width="13.92" height="9.91" fill="white"/>
<rect x="494.45" y="82.4" width="13.92" height="9.91" fill="white"/>
<rect x="512.64" y="82.4" width="13.92" height="9.91" fill="white"/>
<rect x="476.26" y="104.65" width="13.92" height="9.91" fill="white"/>
<rect x="494.45" y="104.65" width="13.92" height="9.91" fill="white"/>
<rect x="512.64" y="104.65" width="13.92" height="9.91" fill="white"/>
<rect x="476.26" y="126.9" width="13.92" height="9.91" fill="white"/>
<rect x="494.45" y="126.9" width="13.92" height="9.91" fill="white"/>
<rect x="512.64" y="126.9" width="13.92" height="9.91" fill="white"/>
<rect x="476.26" y="149.16" width="13.92" height="9.91" fill="white"/>
<rect x="494.45" y="149.16" width="13.92" height="9.91" fill="white"/>
<rect x="512.64" y="149.16" width="13.92" height="9.91" fill="white"/>
<rect x="476.26" y="171.41" width="13.92" height="9.91" fill="white"/>
<rect x="494.45" y="171.41" width="13.92" height="9.91" fill="white"/>
<rect x="512.64" y="171.41" width="13.92" height="9.91" fill="white"/>
<rect x="480.92" y="46.7" width="52.86" height="16.19" fill="url(#paint9_linear)"/>
<rect x="490.11" y="31.51" width="34.48" height="16.19" fill="url(#paint10_linear)"/>
<rect x="505.53" y="11" width="3.64" height="20.51" fill="#4584FF"/>
<rect x="480.92" y="59.78" width="52.86" height="3.1" fill="#4584FF"/>
<rect x="490.11" y="44.07" width="34.48" height="2.63" fill="#4584FF"/>
<g style="mix-blend-mode:multiply">
<path d="M538.06 62.88V322.31H521.98V62.88H517.7V46.7H508.51V31.51H524.59V46.7H533.77V62.88H538.06Z" fill="url(#paint11_linear)"/>
</g>
<rect x="171.79" y="209.96" width="50.3" height="112.35" fill="url(#paint12_linear)"/>
<rect x="176.61" y="218.41" width="10.24" height="4.29" fill="white"/>
<rect x="189.99" y="218.41" width="10.24" height="4.29" fill="white"/>
<rect x="203.38" y="218.41" width="10.24" height="4.29" fill="white"/>
<rect x="176.61" y="228.04" width="10.24" height="4.29" fill="white"/>
<rect x="189.99" y="228.04" width="10.24" height="4.29" fill="white"/>
<rect x="203.38" y="228.04" width="10.24" height="4.29" fill="white"/>
<rect x="176.61" y="237.68" width="10.24" height="4.29" fill="white"/>
<rect x="189.99" y="237.68" width="10.24" height="4.29" fill="white"/>
<rect x="203.38" y="237.68" width="10.24" height="4.29" fill="white"/>
<rect x="176.61" y="247.32" width="10.24" height="4.29" fill="white"/>
<rect x="189.99" y="247.32" width="10.24" height="4.29" fill="white"/>
<rect x="203.38" y="247.32" width="10.24" height="4.29" fill="white"/>
<rect x="176.61" y="256.96" width="10.24" height="4.29" fill="white"/>
<rect x="189.99" y="256.96" width="10.24" height="4.29" fill="white"/>
<rect x="203.38" y="256.96" width="10.24" height="4.29" fill="white"/>
<g style="mix-blend-mode:multiply">
<rect x="200.23" y="209.96" width="21.85" height="112.35" fill="url(#paint13_linear)"/>
</g>
<rect x="52.84" y="202.21" width="60.48" height="120.1" fill="url(#paint14_linear)"/>
<rect x="58.64" y="211.24" width="12.31" height="4.59" fill="white"/>
<rect x="74.73" y="211.24" width="12.31" height="4.59" fill="white"/>
<rect x="90.83" y="211.24" width="12.31" height="4.59" fill="white"/>
<rect x="58.64" y="221.54" width="12.31" height="4.59" fill="white"/>
<rect x="74.73" y="221.54" width="12.31" height="4.59" fill="white"/>
<rect x="90.83" y="221.54" width="12.31" height="4.59" fill="white"/>
<rect x="58.64" y="231.85" width="12.31" height="4.59" fill="white"/>
<rect x="74.73" y="231.85" width="12.31" height="4.59" fill="white"/>
<rect x="90.83" y="231.85" width="12.31" height="4.59" fill="white"/>
<rect x="58.64" y="242.15" width="12.31" height="4.59" fill="white"/>
<rect x="74.73" y="242.15" width="12.31" height="4.59" fill="white"/>
<rect x="90.83" y="242.15" width="12.31" height="4.59" fill="white"/>
<rect x="58.64" y="252.45" width="12.31" height="4.59" fill="white"/>
<rect x="74.73" y="252.45" width="12.31" height="4.59" fill="white"/>
<rect x="90.83" y="252.45" width="12.31" height="4.59" fill="white"/>
<rect x="78.84" y="194.33" width="31.23" height="7.87" fill="url(#paint15_linear)"/>
<g style="mix-blend-mode:multiply">
<rect x="87.05" y="202.21" width="26.28" height="120.1" fill="url(#paint16_linear)"/>
</g>
<rect x="78.84" y="199.73" width="31.23" height="2.48" fill="#4584FF"/>
<rect x="99.62" y="155.95" width="60.48" height="166.36" fill="url(#paint17_linear)"/>
<rect x="107.29" y="163.01" width="3.38" height="111.79" fill="white"/>
<rect x="115.9" y="163.01" width="3.38" height="111.79" fill="white"/>
<rect x="124.51" y="163.01" width="3.38" height="111.79" fill="white"/>
<rect x="133.12" y="163.01" width="3.38" height="111.79" fill="white"/>
<rect x="141.73" y="163.01" width="3.38" height="111.79" fill="white"/>
<rect x="150.34" y="163.01" width="3.38" height="111.79" fill="white"/>
<rect x="208.77" y="167.52" width="50.3" height="154.79" fill="url(#paint18_linear)"/>
<rect x="213.59" y="179.16" width="10.24" height="5.91" fill="white"/>
<rect x="226.98" y="179.16" width="10.24" height="5.91" fill="white"/>
<rect x="240.37" y="179.16" width="10.24" height="5.91" fill="white"/>
<rect x="213.59" y="192.44" width="10.24" height="5.91" fill="white"/>
<rect x="226.98" y="192.44" width="10.24" height="5.91" fill="white"/>
<rect x="240.37" y="192.44" width="10.24" height="5.91" fill="white"/>
<rect x="213.59" y="205.72" width="10.24" height="5.91" fill="white"/>
<rect x="226.98" y="205.72" width="10.24" height="5.91" fill="white"/>
<rect x="240.37" y="205.72" width="10.24" height="5.91" fill="white"/>
<rect x="213.59" y="218.99" width="10.24" height="5.91" fill="white"/>
<rect x="226.98" y="218.99" width="10.24" height="5.91" fill="white"/>
<rect x="240.37" y="218.99" width="10.24" height="5.91" fill="white"/>
<rect x="213.59" y="232.27" width="10.24" height="5.91" fill="white"/>
<rect x="226.98" y="232.27" width="10.24" height="5.91" fill="white"/>
<rect x="240.37" y="232.27" width="10.24" height="5.91" fill="white"/>
<rect x="217.02" y="157.86" width="38.89" height="9.66" fill="url(#paint19_linear)"/>
<rect x="223.79" y="148.8" width="25.37" height="9.66" fill="url(#paint20_linear)"/>
<rect x="235.13" y="136.56" width="2.68" height="12.24" fill="#4584FF"/>
<rect x="217.02" y="165.67" width="38.89" height="1.85" fill="#4584FF"/>
<rect x="223.79" y="156.29" width="25.37" height="1.57" fill="#4584FF"/>
<g style="mix-blend-mode:multiply">
<path d="M259.07 167.52V322.31H247.24V167.52H244.09V157.86H237.32V148.8H249.16V157.86H255.92V167.52H259.07Z" fill="url(#paint21_linear)"/>
</g>
<path d="M128.81 155.89H154.65V151.36H131.64L128.81 155.89Z" fill="#4584FF"/>
</g>
<path d="M454.22 290.53C457.813 293.158 461.103 296.176 464.03 299.53L465.03 309.35L467.86 304.27C470.28 307.54 479.81 325.42 480.3 335.35C481.12 352.01 477.96 353.57 477.96 353.57C467.46 347.4 459.85 333.97 457.1 325.57L462.76 325.97L455.94 321.33C453.61 312 452.2 297.7 454.22 290.53Z" fill="url(#paint22_linear)"/>
<path opacity="0.2" d="M458 299.88C458.47 300.98 459 302.07 459.42 303.17L460.8 306.47C461.72 308.677 462.63 310.887 463.53 313.1C465.317 317.52 467.087 321.953 468.84 326.4L471.48 333.06L472.77 336.4L473.39 338.08L474 339.76C474.66 341.6 477.9 351.06 478.53 352.91L478 353.61C477.56 352.54 474.73 344.55 474.29 343.47L472.98 340.14C472.56 339.03 472.13 337.92 471.71 336.8L470.47 333.44C469.67 331.19 468.85 328.95 468.03 326.71C466.377 322.23 464.71 317.757 463.03 313.29C461.35 308.823 459.64 304.367 457.9 299.92L458 299.88Z" fill="url(#paint23_linear)"/>
<path d="M494.19 262.26C496.837 267.703 498.875 273.421 500.27 279.31L501.87 287.42C502.71 292.88 502.87 320.37 497.18 332.6C487.65 353.12 482.87 353 482.87 353C474.15 339 473.49 318 475.5 306.19L482.05 310.24L476.78 300.36C479.93 287.6 487.23 269.59 494.19 262.26Z" fill="url(#paint24_linear)"/>
<path opacity="0.2" d="M492.77 275.86C492.65 277.47 492.54 279.09 492.4 280.7L491.98 285.54C491.69 288.77 491.39 291.99 491.08 295.22C490.413 301.66 489.747 308.103 489.08 314.55L488.08 324.21L487.52 329.04L487.21 331.45L486.88 333.85C486.51 336.48 484.43 349.85 484.01 352.5L482.94 353.01C483.09 351.44 484.73 340.06 484.89 338.49L485.42 333.67C485.61 332.06 485.79 330.45 486 328.84L486.63 324.03C487.09 320.82 487.52 317.62 487.95 314.41C488.803 307.99 489.623 301.567 490.41 295.14C491.197 288.713 491.96 282.28 492.7 275.84L492.77 275.86Z" fill="url(#paint25_linear)"/>
<path d="M528.21 324.58C528.024 324.807 527.86 325.052 527.72 325.31C527.991 324.524 528.325 323.761 528.72 323.03C527.453 324.921 526.371 326.931 525.49 329.03C525.438 329.651 525.335 330.266 525.18 330.87C525.984 328.68 526.999 326.574 528.21 324.58Z" fill="url(#paint26_linear)"/>
<path d="M517.72 355.49C518.861 352.928 519.817 350.288 520.58 347.59C520.28 347.2 520.58 346.42 521.17 345.47C521.56 343.97 521.93 342.47 522.29 340.99C522.65 339.51 522.94 338.31 523.29 336.99C523.257 337.071 523.231 337.155 523.21 337.24C522.91 336.85 523.21 336.07 523.8 335.11C524.15 333.9 524.52 332.71 524.95 331.53C524.77 331.87 524.57 332.08 524.32 332.12C524.511 331.818 524.631 331.476 524.67 331.12C523.569 334.33 522.648 337.598 521.91 340.91C521.91 341 521.91 341.09 521.84 341.18C521.91 342.32 521.76 343.18 521.31 343.33C520.599 346.314 519.721 349.255 518.68 352.14C518.68 352.88 518.49 353.4 518.14 353.55C517.76 354.47 517.36 355.4 516.91 356.33H517.09C517.275 356.032 517.486 355.751 517.72 355.49Z" fill="url(#paint27_linear)"/>
<path d="M532.29 318.88C532.326 318.916 532.346 318.964 532.346 319.015C532.346 319.066 532.326 319.114 532.29 319.15C530.748 320.818 529.378 322.637 528.2 324.58C529.98 322.28 532.76 323.13 535.93 320.86C539.1 318.59 540.06 315.98 539.05 315.1C538.28 314.42 536.24 314.38 533.17 317.17C531.362 318.854 529.856 320.836 528.72 323.03C529.709 321.57 530.805 320.186 532 318.89C532.035 318.846 532.087 318.82 532.143 318.818C532.199 318.816 532.252 318.839 532.29 318.88Z" fill="url(#paint28_linear)"/>
<path d="M528.21 324.58C529.388 322.637 530.758 320.818 532.3 319.15C532.336 319.114 532.356 319.066 532.356 319.015C532.356 318.964 532.336 318.916 532.3 318.88C532.264 318.841 532.213 318.818 532.16 318.818C532.107 318.818 532.056 318.841 532.02 318.88C530.825 320.176 529.729 321.56 528.74 323.02C528.345 323.751 528.011 324.514 527.74 325.3C527.874 325.046 528.031 324.805 528.21 324.58Z" fill="url(#paint29_linear)"/>
<path d="M528.21 324.58C529.388 322.637 530.758 320.818 532.3 319.15C532.336 319.114 532.356 319.066 532.356 319.015C532.356 318.964 532.336 318.916 532.3 318.88C532.264 318.841 532.213 318.818 532.16 318.818C532.107 318.818 532.056 318.841 532.02 318.88C530.825 320.176 529.729 321.56 528.74 323.02C528.345 323.751 528.011 324.514 527.74 325.3C527.874 325.046 528.031 324.805 528.21 324.58Z" fill="url(#paint30_linear)"/>
<path d="M532.05 333.52C534.86 331.73 535.95 329.15 535.14 328.09C534.33 327.03 532.39 327.14 529.14 329.66C527.113 331.201 525.33 333.038 523.85 335.11L523.34 336.99C524.19 334.19 528.65 335.68 532.05 333.52Z" fill="url(#paint31_linear)"/>
<path d="M523.21 337.24C523.231 337.155 523.257 337.071 523.29 336.99L523.8 335.11C523.18 336.07 522.91 336.85 523.21 337.24Z" fill="url(#paint32_linear)"/>
<path d="M523.21 337.24C523.231 337.155 523.257 337.071 523.29 336.99L523.8 335.11C523.18 336.07 522.91 336.85 523.21 337.24Z" fill="url(#paint33_linear)"/>
<path d="M520.58 347.59C521.27 344.43 525.92 346.09 529.42 343.86C532.23 342.07 533.33 339.5 532.51 338.43C531.69 337.36 529.76 337.48 526.51 340.01C524.475 341.549 522.688 343.39 521.21 345.47C521.02 346.17 520.82 346.88 520.62 347.59H520.58Z" fill="url(#paint34_linear)"/>
<path d="M520.58 347.59C520.78 346.88 520.98 346.17 521.17 345.47C520.55 346.42 520.28 347.2 520.58 347.59Z" fill="url(#paint35_linear)"/>
<path d="M520.58 347.59C520.78 346.88 520.98 346.17 521.17 345.47C520.55 346.42 520.28 347.2 520.58 347.59Z" fill="url(#paint36_linear)"/>
<path d="M517.74 356.26C519.56 355.1 523.03 356.67 526.27 355.44C529.51 354.21 530.97 351.94 530.38 350.74C529.79 349.54 527.88 349.25 524.15 351.07C521.785 352.191 519.614 353.684 517.72 355.49C517.61 355.75 517.49 356.01 517.37 356.26H517.74Z" fill="url(#paint37_linear)"/>
<path d="M517.37 356.26C517.49 356.01 517.61 355.75 517.72 355.49C517.496 355.73 517.292 355.987 517.11 356.26H517.37Z" fill="url(#paint38_linear)"/>
<path d="M517.37 356.26C517.49 356.01 517.61 355.75 517.72 355.49C517.496 355.73 517.292 355.987 517.11 356.26H517.37Z" fill="url(#paint39_linear)"/>
<path d="M525.19 330.86L524.95 331.53C525.048 331.314 525.129 331.09 525.19 330.86Z" fill="url(#paint40_linear)"/>
<path d="M525.23 322.57C524.56 318.47 523.23 317.06 521.9 317.28C520.57 317.5 519.61 320.12 520.43 323.35C521.33 326.87 524.9 328.82 524.67 331.11C524.93 330.41 525.21 329.71 525.5 329.02C525.66 326.867 525.569 324.702 525.23 322.57Z" fill="url(#paint41_linear)"/>
<path d="M524.32 332.12C524.57 332.12 524.77 331.87 524.95 331.53L525.19 330.86C525.345 330.256 525.448 329.641 525.5 329.02C525.21 329.71 524.93 330.41 524.67 331.11C524.632 331.469 524.513 331.815 524.32 332.12H524.32Z" fill="url(#paint42_linear)"/>
<path d="M524.32 332.12C524.57 332.12 524.77 331.87 524.95 331.53L525.19 330.86C525.345 330.256 525.448 329.641 525.5 329.02C525.21 329.71 524.93 330.41 524.67 331.11C524.632 331.469 524.513 331.815 524.32 332.12H524.32Z" fill="url(#paint43_linear)"/>
<path d="M519.9 333.83C518.27 330.01 516.64 328.96 515.41 329.49C514.18 330.02 513.86 332.8 515.41 335.73C517.41 339.38 522.2 340.22 521.3 343.29C521.48 342.58 521.65 341.87 521.82 341.17C521.555 338.64 520.907 336.166 519.9 333.83Z" fill="url(#paint44_linear)"/>
<path d="M521.84 341.17C521.67 341.87 521.5 342.58 521.32 343.29C521.76 343.13 521.91 342.31 521.84 341.17Z" fill="url(#paint45_linear)"/>
<path d="M521.84 341.17C521.67 341.87 521.5 342.58 521.32 343.29C521.76 343.13 521.91 342.31 521.84 341.17Z" fill="url(#paint46_linear)"/>
<path d="M516.74 344C515.11 340.18 513.48 339.13 512.24 339.66C511 340.19 510.7 342.97 512.24 345.9C514.24 349.55 519.04 350.39 518.13 353.46C518.31 353 518.49 352.54 518.66 352.08C518.52 349.292 517.869 346.553 516.74 344Z" fill="url(#paint47_linear)"/>
<path d="M518.69 352.1C518.52 352.56 518.34 353.02 518.16 353.48C518.5 353.36 518.66 352.84 518.69 352.1Z" fill="url(#paint48_linear)"/>
<path d="M518.69 352.1C518.52 352.56 518.34 353.02 518.16 353.48C518.5 353.36 518.66 352.84 518.69 352.1Z" fill="url(#paint49_linear)"/>
<path d="M512.8 352.93C511.47 348.99 509.93 347.82 508.66 348.25C507.39 348.68 506.86 351.43 508.2 354.48C508.486 355.124 508.863 355.723 509.32 356.26H513.69C513.462 355.133 513.165 354.021 512.8 352.93Z" fill="url(#paint50_linear)"/>
<path d="M471.75 336C471.81 334.08 471.59 332.05 472.5 330.35C473.41 328.65 475.5 327.5 477.27 328.35C478.7 329.01 479.33 330.67 480.13 332.05C481.206 333.878 482.776 335.365 484.66 336.34C485.854 337.109 487.35 337.239 488.66 336.69C490.31 335.77 490.5 333.47 490.48 331.56C490.48 327.99 490.41 324.42 490.38 320.85C490.259 318.936 490.448 317.014 490.94 315.16C491.446 313.299 492.832 311.804 494.65 311.16C496.543 310.595 498.538 311.662 499.12 313.55C499.195 314.344 499.215 315.143 499.18 315.94C499.155 316.753 499.626 317.501 500.37 317.83C501.178 317.924 501.975 317.586 502.47 316.94C504.351 314.891 505.882 312.547 507 310C508.134 307.465 509.556 305.069 511.24 302.86C512.941 300.64 515.464 299.198 518.24 298.86C520.98 298.7 523.91 300.38 524.61 303.07C525.31 305.76 523.75 308.51 522.05 310.7C519.52 313.951 516.533 316.817 513.18 319.21C512.526 319.574 512.008 320.138 511.7 320.82C511.28 322.1 512.5 323.36 513.76 323.82C515.23 324.131 516.728 324.292 518.23 324.3C519.72 324.47 521.34 325.13 521.91 326.53C522.7 328.53 521.07 330.53 519.47 331.89C516.254 334.593 512.597 336.724 508.66 338.19C507.214 338.604 505.858 339.282 504.66 340.19C503.426 341.144 502.97 342.798 503.54 344.25C504.391 345.538 505.969 346.137 507.46 345.74C508.907 345.332 510.314 344.79 511.66 344.12C514.29 343.12 517.66 343.29 519.38 345.56C520.428 347.144 520.672 349.129 520.04 350.92C519.406 352.676 518.426 354.288 517.16 355.66C516.97 355.88 516.77 356.09 516.57 356.3H474.97C472.27 350.05 471.54 342.82 471.75 336Z" fill="url(#paint51_linear)"/>
<path opacity="0.74" d="M497.48 332.17C497.391 331.903 497.327 331.629 497.29 331.35C497.19 330.82 497.07 330.05 496.93 329.1C496.65 327.2 496.36 324.55 496.05 321.64C495.74 318.73 495.4 316.09 495.1 314.19C494.95 313.24 494.82 312.47 494.72 311.95C494.658 311.677 494.621 311.399 494.61 311.12C494.726 311.375 494.81 311.644 494.86 311.92C495 312.44 495.16 313.2 495.34 314.15C495.71 316.04 496.08 318.68 496.4 321.6C496.72 324.52 496.97 327.08 497.18 329.07C497.28 329.97 497.36 330.72 497.43 331.33C497.484 331.606 497.501 331.889 497.48 332.17Z" fill="white"/>
<path opacity="0.74" d="M522.08 327.48C521.752 327.558 521.417 327.598 521.08 327.6C520.45 327.66 519.53 327.74 518.41 327.88C516.15 328.13 513.05 328.58 509.65 329.24C506.25 329.9 503.21 330.62 501.01 331.24C499.92 331.53 499.01 331.79 498.42 331.96C498.095 332.073 497.76 332.153 497.42 332.2C497.712 332.043 498.021 331.919 498.34 331.83C498.94 331.61 499.81 331.32 500.91 331C503.09 330.35 506.14 329.58 509.55 328.92C512.456 328.344 515.39 327.924 518.34 327.66C519.48 327.55 520.4 327.51 521.03 327.5C521.379 327.459 521.73 327.453 522.08 327.48Z" fill="white"/>
<path opacity="0.74" d="M485.32 356.26L484.8 355.05C483.6 352.24 482.07 348.3 480.44 343.93C478.81 339.56 477.32 335.6 476.18 332.76L474.82 329.41C474.68 329.04 474.56 328.74 474.46 328.49C474.41 328.385 474.373 328.274 474.35 328.16C474.35 328.16 474.42 328.26 474.52 328.46L474.95 329.35C475.31 330.13 475.81 331.26 476.41 332.67C477.61 335.48 479.14 339.42 480.77 343.8C482.4 348.18 483.89 352.12 485.03 354.96L485.56 356.26H485.32Z" fill="white"/>
<path opacity="0.74" d="M518.26 349.36L514.76 350.51C511.76 351.51 507.76 352.86 503.25 354.4C501.31 355.06 499.45 355.69 497.72 356.26H496.72L503.18 354.06C507.67 352.52 511.75 351.17 514.72 350.27C516.21 349.81 517.42 349.45 518.26 349.27L519.26 349.01C519.373 348.971 519.491 348.947 519.61 348.94C519.506 348.999 519.395 349.046 519.28 349.08L518.26 349.36Z" fill="white"/>
<path opacity="0.74" d="M521.62 300.67C521.48 300.79 521.29 300.96 521.06 301.18C520.56 301.62 519.82 302.28 518.89 303.18C516.267 305.633 513.834 308.28 511.61 311.1C510.19 312.88 508.72 314.89 507.17 317.1C505.62 319.31 504.01 321.65 502.39 324.19C500.67 326.833 499.101 329.571 497.69 332.39C496.96 333.85 496.31 335.39 495.64 336.95C494.97 338.51 494.3 340.1 493.64 341.71C491.53 346.71 489.64 351.64 488.09 356.31H487.74C489.28 351.59 491.19 346.65 493.32 341.57L495.32 336.81C495.98 335.25 496.64 333.71 497.38 332.23C498.807 329.406 500.386 326.662 502.11 324.01C503.75 321.47 505.39 319.12 506.94 316.93C508.49 314.74 509.94 312.73 511.41 310.93C513.661 308.118 516.132 305.49 518.8 303.07C519.74 302.21 520.49 301.57 521.01 301.14L521.6 300.66C521.664 300.599 521.734 300.546 521.81 300.5C521.752 300.563 521.689 300.62 521.62 300.67Z" fill="white"/>
<path d="M0 364.29C0 356.99 5.32 339.73 22 329.63C38.68 319.53 76.82 310.55 112.32 310.55C145.39 286 197.78 260 222.18 257.78C246.58 255.56 337.62 256.08 358.39 261.19C379.16 266.3 444.39 312.98 444.39 320.28V348.49C444.39 353.6 453.09 356.76 453.09 359.68V378.89C453.09 382.05 452.36 383.26 445.09 388.13C437.82 393 421.42 397.37 414.54 397.37H96.36C85.5 397.37 77.77 402.71 70.04 402.71H12.56C4.83 402.71 0 392.5 0 388.12V364.29Z" fill="url(#paint52_linear)"/>
<path d="M444.36 323.33V348.49C444.36 353.61 453.06 356.76 453.06 359.68V378.89C453.06 382.05 452.33 383.27 445.06 388.13C437.79 392.99 421.39 397.37 414.51 397.37H96.36C85.5 397.37 77.77 402.72 70.04 402.72H12.56C4.83 402.72 0 392.5 0 388.12V364.29C0.207082 360.049 1.19354 355.883 2.91 352C3.32 351 444.37 323.32 444.36 323.33Z" fill="url(#paint53_linear)"/>
<path d="M453.07 361V380.2C453.07 383.37 452.34 384.58 445.07 389.44C437.8 394.3 421.41 398.69 414.53 398.69H406.15L405.84 397.38H414.52C416.365 397.339 418.204 397.151 420.02 396.82C423.449 377.168 413.395 357.632 395.41 349H444.41V349.8C444.37 354.9 453.07 358.06 453.07 361Z" fill="url(#paint54_linear)"/>
<path d="M428.49 389.22C428.484 391.148 428.374 393.074 428.16 394.99C423.73 396.304 419.163 397.099 414.55 397.36H325.18C322.782 382.301 327.079 366.946 336.945 355.32C346.811 343.693 361.262 336.954 376.51 336.87C405.17 336.87 428.49 360.35 428.49 389.22Z" fill="url(#paint55_linear)"/>
<path d="M428.49 389.22C428.484 391.148 428.374 393.074 428.16 394.99C423.73 396.304 419.163 397.099 414.55 397.36H325.18C322.782 382.301 327.079 366.946 336.945 355.32C346.811 343.693 361.262 336.954 376.51 336.87C405.17 336.87 428.49 360.35 428.49 389.22Z" fill="url(#paint56_linear)"/>
<path d="M143 389.21C142.997 391.939 142.779 394.664 142.35 397.36H96.35C85.49 397.36 77.76 402.7 70.03 402.7H40.82C39.6539 398.298 39.0624 393.764 39.06 389.21C38.9935 360.409 62.2587 336.991 91.06 336.87C119.71 336.87 143 360.35 143 389.21Z" fill="url(#paint57_linear)"/>
<path d="M143 389.21C142.997 391.939 142.779 394.664 142.35 397.36H96.35C85.49 397.36 77.76 402.7 70.03 402.7H40.82C39.6539 398.298 39.0624 393.764 39.06 389.21C38.9935 360.409 62.2587 336.991 91.06 336.87C119.71 336.87 143 360.35 143 389.21Z" fill="url(#paint58_linear)"/>
<path d="M444.65 350H439.06C435.87 350 433.7 348.51 431.38 346.69C428.83 344.69 421.05 332.69 419.49 328.39C418.56 325.85 418.55 324.07 419.43 322.8C420.6 321.13 422.95 321.13 423.72 321.13H444.37V348.46C444.371 348.986 444.466 349.507 444.65 350Z" fill="#001C71"/>
<path d="M444.4 348.72H439.05C436.28 348.72 434.35 347.39 432.17 345.72C429.99 344.05 422.27 332.34 420.71 327.99C419.15 323.64 420.71 322.49 423.71 322.49H444.36V348.49C444.368 348.568 444.381 348.644 444.4 348.72Z" fill="#001C71"/>
<path d="M439.05 347.42H444.39V323.77H423.72C422.55 323.77 421.81 323.96 421.56 324.33C421.31 324.7 421.12 325.33 421.92 327.52C423.39 331.58 431 343.11 432.92 344.65C434.84 346.19 436.64 347.42 439.01 347.42H439.05Z" fill="#FF4438"/>
<path d="M420.71 389.22C420.704 391.761 420.483 394.296 420.05 396.8C418.234 397.127 416.395 397.314 414.55 397.36H333.07C329.841 380.811 336.301 363.865 349.729 353.667C363.156 343.468 381.214 341.791 396.289 349.342C411.365 356.894 420.836 372.359 420.71 389.22Z" fill="#000729"/>
<path d="M70.05 402.7H48.94C43.3313 385.152 49.1944 365.966 63.6537 354.551C78.1131 343.136 98.1362 341.886 113.903 351.414C129.67 360.943 137.873 379.251 134.49 397.36H96.36C85.5 397.36 77.77 402.71 70.05 402.7Z" fill="#000729"/>
<path d="M47.31 333.67C48.1434 333.584 48.955 333.97 49.4138 334.671C49.8727 335.372 49.9021 336.271 49.49 337C48.0362 339.716 46.3464 342.3 44.44 344.72C41.05 348.72 35.51 353.57 31.76 353.72C28.5 353.85 18.63 354.22 11.23 353.72C7.74001 353.48 6.11001 352.2 6.95001 349.65C8.06749 347.212 9.44551 344.902 11.06 342.76C12.79 340.5 16.13 339.06 17.98 338.54C30.36 335.05 40.91 334.36 47.31 333.67Z" fill="#001C71"/>
<path d="M182.32 270.3H189.94C192.35 270.3 191.53 272.67 189.67 273.49C188.67 273.95 182.06 277.41 170.47 284.25C158.88 291.09 140.55 304.95 136.47 307.51C133.111 309.509 129.268 310.547 125.36 310.51H112.36C145.75 285 182.32 270.3 182.32 270.3Z" fill="url(#paint59_linear)"/>
<path d="M208.9 277.75C225.08 272.52 253.9 271.43 257.68 271.43C261.46 271.43 261.43 273.49 261.19 275.68C260.95 277.87 255.87 303.41 255.19 306.2C254.51 308.99 253.26 311.43 249.19 311.49C245.12 311.55 158.14 314.95 153.67 314.71C149.2 314.47 151.56 309.92 153.67 308.26C171.23 294.4 192.72 283 208.9 277.75Z" fill="url(#paint60_linear)"/>
<path d="M430.85 306.17H413.22C409.6 306.17 406.87 303.87 401.14 299.97C393.905 295.116 387.1 289.649 380.8 283.63C377.41 280.49 374.31 277.75 376.51 276.75C377.39 276.35 381.22 274.75 384 273.54C400.33 283.355 415.982 294.257 430.85 306.17Z" fill="url(#paint61_linear)"/>
<path d="M446.38 373.64H453.06V362.29H446.38C443.243 362.29 440.7 364.833 440.7 367.97C440.7 371.107 443.243 373.65 446.38 373.65V373.64Z" fill="#001C71"/>
<path d="M453.06 371H446.38C444.755 370.907 443.485 369.562 443.485 367.935C443.485 366.308 444.755 364.963 446.38 364.87H453.06V371Z" fill="#FF4438"/>
<path d="M161.42 314V310.73C161.42 308.399 159.531 306.51 157.2 306.51C154.869 306.51 152.98 308.399 152.98 310.73V314C152.98 316.331 154.869 318.22 157.2 318.22C159.531 318.22 161.42 316.331 161.42 314Z" fill="#021D49"/>
<path d="M276.54 272.2C278.54 272.2 320.73 269.77 336.91 274.03C353.09 278.29 372.78 302.36 373.38 304.91C373.98 307.46 372.29 308.68 368.67 308.8C365.05 308.92 277.13 311 274.36 311C271.59 311 270.85 308.57 270.85 307.11C270.85 305.65 271.94 276.72 271.94 276.72C272.07 273.07 274.49 272.2 276.54 272.2Z" fill="url(#paint62_linear)"/>
<path d="M52.34 389C52.5054 368.053 69.5911 351.19 90.5384 351.301C111.486 351.411 128.393 368.452 128.339 389.399C128.284 410.347 111.288 427.299 90.34 427.3C69.2749 427.206 52.2681 410.065 52.34 389Z" fill="#021D49"/>
<path d="M85.17 389C85.1866 386.12 87.533 383.797 90.4132 383.81C93.2935 383.823 95.6191 386.166 95.6099 389.047C95.6007 391.927 93.2603 394.255 90.38 394.25C88.9929 394.245 87.6648 393.689 86.6877 392.704C85.7106 391.719 85.1647 390.387 85.17 389Z" fill="#CACBD7"/>
<path fill-rule="evenodd" clip-rule="evenodd" d="M79.6 413.38C79.9128 413.526 80.2549 413.598 80.6 413.59C81.3831 413.588 82.1184 413.213 82.58 412.58L90.4 401.77L98.23 412.58C98.8933 413.514 100.125 413.849 101.17 413.38C104.605 411.85 107.674 409.603 110.17 406.79C110.935 405.93 111.001 404.655 110.33 403.72L102.52 392.92L115.13 388.79C116.217 388.427 116.91 387.361 116.8 386.22C116.418 382.462 115.242 378.829 113.35 375.56C112.778 374.567 111.59 374.109 110.5 374.46L97.88 378.59V365.23C97.8867 364.079 97.0852 363.082 95.96 362.84C92.2944 362.06 88.5056 362.06 84.84 362.84C83.7169 363.085 82.9171 364.081 82.92 365.23V378.59L70.3 374.46C69.2094 374.109 68.0219 374.567 67.45 375.56C65.5592 378.829 64.3834 382.463 64 386.22C63.8822 387.354 64.562 388.419 65.64 388.79L78.25 392.92L70.44 403.72C69.7686 404.655 69.8351 405.93 70.6 406.79C73.098 409.601 76.1661 411.847 79.6 413.38ZM79.85 408C78.3122 407.156 76.8847 406.125 75.6 404.93L84.21 393.08C84.6628 392.445 84.7889 391.633 84.55 390.89C84.3172 390.147 83.7399 389.562 83 389.32L69.11 384.81C69.4551 383.085 70.0022 381.407 70.74 379.81L84.59 384.35C85.3275 384.589 86.1351 384.459 86.76 384C87.3971 383.534 87.7697 382.789 87.76 382V367.3C89.507 367.09 91.2729 367.09 93.02 367.3V381.97C93.0102 382.759 93.3828 383.504 94.02 383.97C94.6449 384.429 95.4525 384.559 96.19 384.32L110.04 379.78C110.778 381.377 111.325 383.055 111.67 384.78L97.81 389.32C97.07 389.562 96.4927 390.147 96.26 390.89C96.0227 391.633 96.1486 392.444 96.6 393.08L105.17 404.89C103.886 406.096 102.458 407.141 100.92 408L92.42 396.14C91.9588 395.498 91.2107 395.123 90.42 395.14C89.6304 395.129 88.8846 395.502 88.42 396.14L79.85 408Z" fill="#CACBD7"/>
<path d="M89.3 392.25H91.47C91.9152 392.252 92.3274 392.016 92.55 391.63L93.63 389.74C93.8593 389.351 93.8593 388.869 93.63 388.48L92.55 386.59C92.3284 386.202 91.9167 385.962 91.47 385.96H89.3C88.8527 385.96 88.44 386.201 88.22 386.59L87.13 388.48C86.9109 388.871 86.9109 389.349 87.13 389.74L88.22 391.63C88.4441 392.014 88.8553 392.25 89.3 392.25Z" fill="#E3E4EA"/>
<path fill-rule="evenodd" clip-rule="evenodd" d="M63.909 377.908C68.384 367.266 78.8354 360.373 90.38 360.45C97.9235 360.474 105.148 363.497 110.46 368.852C115.773 374.208 118.737 381.457 118.7 389C118.684 400.545 111.706 410.94 101.028 415.329C90.3502 419.718 78.0794 417.234 69.949 409.037C61.8187 400.841 59.4339 388.55 63.909 377.908ZM67.8398 398.35C71.6445 407.419 80.5457 413.295 90.38 413.23C103.724 413.186 114.512 402.344 114.49 389C114.506 379.166 108.586 370.294 99.4981 366.534C90.4107 362.774 79.9527 364.87 73.016 371.842C66.0793 378.813 64.0352 389.281 67.8398 398.35Z" fill="#E3E4EA"/>
<path d="M338.47 389C338.635 368.053 355.721 351.19 376.668 351.301C397.616 351.411 414.523 368.452 414.469 389.399C414.414 410.347 397.418 427.299 376.47 427.3C355.405 427.206 338.398 410.065 338.47 389Z" fill="#021D49"/>
<path d="M371.29 389C371.307 386.121 373.651 383.799 376.53 383.81C379.409 383.821 381.735 386.161 381.73 389.04C381.724 391.919 379.389 394.25 376.51 394.25C373.62 394.239 371.284 391.89 371.29 389Z" fill="#CACBD7"/>
<path fill-rule="evenodd" clip-rule="evenodd" d="M365.73 413.38C366.043 413.524 366.385 413.596 366.73 413.59C367.478 413.557 368.17 413.185 368.61 412.58L376.43 401.77L384.25 412.58C384.922 413.541 386.189 413.879 387.25 413.38C390.685 411.848 393.753 409.602 396.25 406.79C397.015 405.93 397.081 404.655 396.41 403.72L388.6 392.92L401.22 388.79C402.306 388.427 402.995 387.359 402.88 386.22C402.503 382.461 401.327 378.827 399.43 375.56C398.861 374.564 397.671 374.105 396.58 374.46L383.97 378.59V365.23C383.977 364.079 383.175 363.081 382.05 362.84C378.381 362.06 374.589 362.06 370.92 362.84C369.797 363.085 368.997 364.081 369 365.23V378.59L356.4 374.46C355.309 374.109 354.122 374.567 353.55 375.56C351.658 378.828 350.485 382.462 350.11 386.22C349.987 387.361 350.679 388.433 351.77 388.79L364.38 392.92L356.58 403.72C355.902 404.651 355.964 405.929 356.73 406.79C359.228 409.601 362.296 411.847 365.73 413.38ZM366 408C364.457 407.155 363.023 406.124 361.73 404.93L370.27 393.11C370.725 392.476 370.854 391.664 370.62 390.92C370.384 390.176 369.803 389.591 369.06 389.35L355.21 384.81C355.551 383.084 356.098 381.405 356.84 379.81L370.68 384.35C371.418 384.589 372.225 384.459 372.85 384C373.486 383.533 373.858 382.789 373.85 382V367.3C375.594 367.09 377.356 367.09 379.1 367.3V381.95C379.094 382.731 379.464 383.467 380.094 383.929C380.724 384.39 381.537 384.521 382.28 384.28L396.12 379.74C396.862 381.335 397.409 383.014 397.75 384.74L383.9 389.28C383.157 389.521 382.576 390.106 382.34 390.85C382.103 391.593 382.229 392.404 382.68 393.04L391.25 404.89C389.966 406.096 388.538 407.141 387 408L378.58 396.14C378.115 395.502 377.37 395.129 376.58 395.14C375.789 395.123 375.041 395.497 374.58 396.14L366 408Z" fill="#CACBD7"/>
<path d="M375.42 392.25H377.59C378.038 392.254 378.454 392.017 378.68 391.63L379.76 389.74C379.979 389.349 379.979 388.871 379.76 388.48L378.68 386.59C378.455 386.201 378.04 385.96 377.59 385.96H375.42C374.973 385.962 374.562 386.202 374.34 386.59L373.26 388.48C373.041 388.871 373.041 389.349 373.26 389.74L374.34 391.63C374.566 392.013 374.976 392.248 375.42 392.25Z" fill="#E3E4EA"/>
<path fill-rule="evenodd" clip-rule="evenodd" d="M350.039 377.908C354.514 367.266 364.965 360.373 376.51 360.45C384.053 360.476 391.275 363.5 396.587 368.855C401.899 374.21 404.865 381.457 404.83 389C404.814 400.545 397.836 410.94 387.158 415.329C376.48 419.718 364.209 417.234 356.079 409.037C347.949 400.841 345.564 388.55 350.039 377.908ZM353.963 398.357C357.771 407.425 366.675 413.299 376.51 413.23C389.848 413.175 400.627 402.338 400.61 389C400.626 379.165 394.704 370.292 385.616 366.533C376.527 362.774 366.068 364.872 359.132 371.845C352.197 378.819 350.155 389.289 353.963 398.357Z" fill="#E3E4EA"/>
<path d="M129.06 310.23C130.69 314.16 102.06 326.23 71.43 329.23C46.34 331.75 15.14 335.53 15.14 335.53L14.14 335.77V335.54C16.5235 333.265 19.1453 331.253 21.96 329.54C38.62 319.43 76.78 310.46 112.28 310.46H125.28C126.544 310.49 127.809 310.413 129.06 310.23V310.23Z" fill="url(#paint63_linear)"/>
<rect x="143.54" y="384.75" width="181" height="2.41" fill="#021D49"/>
<path d="M276.26 334.79C276.255 335.831 276.664 336.832 277.398 337.571C278.131 338.31 279.129 338.727 280.17 338.73H300.49C302.586 338.624 304.232 336.894 304.232 334.795C304.232 332.696 302.586 330.966 300.49 330.86H280.17C279.129 330.857 278.13 331.271 277.395 332.009C276.661 332.747 276.252 333.749 276.26 334.79Z" fill="#001C71"/>
<path d="M216.84 334.79C216.834 336.957 218.583 338.719 220.75 338.73H241.07C243.166 338.624 244.812 336.894 244.812 334.795C244.812 332.696 243.166 330.966 241.07 330.86H220.75C219.71 330.86 218.712 331.275 217.978 332.012C217.244 332.75 216.835 333.75 216.84 334.79Z" fill="#001C71"/>
<path opacity="0.2" d="M276.26 336.75C276.255 337.791 276.664 338.792 277.398 339.531C278.131 340.27 279.129 340.687 280.17 340.69H300.49C302.586 340.584 304.232 338.854 304.232 336.755C304.232 334.656 302.586 332.926 300.49 332.82H280.17C279.129 332.817 278.13 333.231 277.395 333.969C276.661 334.707 276.252 335.709 276.26 336.75Z" fill="#001C71"/>
<path opacity="0.2" d="M216.84 336.75C216.834 338.917 218.583 340.679 220.75 340.69H241.07C243.166 340.584 244.812 338.854 244.812 336.755C244.812 334.656 243.166 332.926 241.07 332.82H220.75C219.71 332.82 218.712 333.235 217.978 333.972C217.244 334.71 216.835 335.71 216.84 336.75Z" fill="#001C71"/>
<path opacity="0.5" d="M426.6 330.65C426.622 328.385 428.472 326.565 430.736 326.58C433.001 326.595 434.827 328.439 434.82 330.703C434.813 332.968 432.975 334.8 430.71 334.8C429.615 334.795 428.566 334.354 427.796 333.576C427.025 332.798 426.595 331.745 426.6 330.65Z" fill="white"/>
<path opacity="0.5" d="M444.36 328.33V341.17C444.03 341.228 443.695 341.261 443.36 341.27C440.011 340.948 437.455 338.134 437.455 334.77C437.455 331.406 440.011 328.592 443.36 328.27C443.694 328.261 444.029 328.281 444.36 328.33Z" fill="white"/>
<path d="M31.8 355C36.42 354.82 42.53 349 45.42 345.54C47.3795 343.058 49.1162 340.407 50.61 337.62C51.2347 336.53 51.2347 335.19 50.61 334.1C49.9959 333.02 48.8525 332.349 47.61 332.34H47.22C46.37 332.43 45.43 332.53 44.42 332.62C35.3915 333.339 26.4476 334.882 17.7 337.23C15.34 337.9 11.93 339.52 10.1 341.92C8.39909 344.178 6.95047 346.616 5.78 349.19C5.29476 350.375 5.40629 351.721 6.08 352.81C6.93 354.09 8.61 354.81 11.2 354.98C13.79 355.15 16.79 355.24 20.28 355.24C25.44 355.27 30.24 355.08 31.8 355Z" fill="url(#paint64_linear)"/>
<path d="M31.7 352.4C34.79 352.27 39.94 348.01 43.44 343.86C45.29 341.503 46.9328 338.99 48.35 336.35C48.5068 336.063 48.5029 335.714 48.3396 335.431C48.1763 335.147 47.8772 334.969 47.55 334.96H47.44C46.57 335.06 45.62 335.15 44.61 335.24C35.7329 335.941 26.9391 337.457 18.34 339.77C16.74 340.22 13.64 341.52 12.09 343.54C10.5692 345.568 9.25906 347.746 8.17999 350.04C7.98012 350.461 7.98012 350.949 8.17999 351.37C8.34999 351.63 8.99999 352.24 11.33 352.37C13.66 352.5 16.79 352.63 20.23 352.63C25.39 352.66 30.15 352.47 31.7 352.4Z" fill="white"/>
<path opacity="0.5" d="M20.21 352.66C17.91 352.66 15.8 352.66 13.92 352.55C12.87 350.398 12.3261 348.034 12.33 345.64C12.3319 344.765 12.4055 343.893 12.55 343.03C14.1964 341.507 16.1808 340.397 18.34 339.79C25.4337 337.835 32.6792 336.48 40 335.74C41.9012 338.084 43.0822 340.929 43.4 343.93C39.91 348.06 34.79 352.28 31.72 352.4C30.15 352.47 25.39 352.66 20.21 352.66Z" fill="url(#paint65_linear)"/>
<path d="M12.51 390.31C12.4274 390.712 12.5382 391.13 12.8093 391.438C13.0804 391.747 13.4805 391.91 13.89 391.88L28.3 390.59C30.8598 390.4 33.0912 388.777 34.06 386.4L38.06 376.62C38.2367 376.185 38.1674 375.689 37.8783 375.32C37.5892 374.95 37.1245 374.763 36.66 374.83L27.12 376.32C22.73 376.99 17.35 378.32 14.64 382.88C13.8204 384.703 13.2325 386.621 12.89 388.59L12.51 390.31Z" fill="#001C71"/>
<path d="M15.41 389.12C15.7233 387.448 16.1988 385.81 16.83 384.23C18.94 380.71 23.45 379.52 27.48 378.9L34.76 377.77L31.66 385.41C31.068 386.876 29.6963 387.879 28.12 388L15.41 389.12Z" fill="#F1F2F8"/>
<path d="M27.48 379.84C28.8901 379.996 30.0664 380.988 30.4585 382.351C30.8506 383.715 30.3809 385.18 29.2691 386.061C28.1574 386.943 26.6236 387.066 25.3856 386.373C24.1476 385.68 23.4503 384.309 23.62 382.9C23.7202 381.98 24.1849 381.138 24.9102 380.563C25.6356 379.988 26.5612 379.728 27.48 379.84Z" fill="white"/>
<path d="M20.53 382.68C21.5175 382.789 22.3416 383.483 22.6165 384.437C22.8914 385.392 22.5625 386.418 21.784 387.035C21.0054 387.652 19.9313 387.738 19.0646 387.253C18.1979 386.767 17.7103 385.806 17.83 384.82C17.9918 383.487 19.1957 382.533 20.53 382.68Z" fill="white"/>
<path d="M152.83 314.08H166.08C168.316 314.071 170.452 313.153 171.997 311.536C173.542 309.92 174.362 307.744 174.27 305.51C174.189 302.141 172.031 299.174 168.85 298.06C167.428 297.585 165.939 297.342 164.44 297.34C162.004 297.34 159.61 297.971 157.49 299.17L150.06 303.38C147.804 304.654 146.687 307.286 147.336 309.794C147.985 312.302 150.239 314.06 152.83 314.08Z" fill="url(#paint66_linear)"/>
<path d="M173.58 309.16C172.274 312.134 169.338 314.059 166.09 314.07H152.84C150.004 314.07 147.606 311.971 147.23 309.16L173.58 309.16Z" fill="url(#paint67_linear)"/>
<path d="M175.51 309.6C175.513 310.313 175.232 310.999 174.729 311.505C174.227 312.011 173.543 312.297 172.83 312.3H167C165.575 312.213 164.464 311.032 164.464 309.605C164.464 308.178 165.575 306.997 167 306.91H172.8C173.518 306.902 174.209 307.182 174.718 307.688C175.227 308.193 175.513 308.882 175.51 309.6Z" fill="#FFDA00"/>
<path d="M175.51 309.6C175.513 310.313 175.232 310.999 174.729 311.505C174.227 312.011 173.543 312.297 172.83 312.3H170.45C171.875 312.213 172.986 311.032 172.986 309.605C172.986 308.178 171.875 306.997 170.45 306.91H172.83C173.543 306.91 174.226 307.194 174.729 307.698C175.231 308.203 175.513 308.887 175.51 309.6Z" fill="#FFDA00"/>
<path d="M172.08 308.66C172.083 308.993 171.952 309.314 171.717 309.55C171.483 309.787 171.163 309.92 170.83 309.92H166.51C165.86 309.862 165.362 309.317 165.362 308.665C165.362 308.013 165.86 307.468 166.51 307.41H170.83C171.52 307.41 172.08 307.97 172.08 308.66Z" fill="#FFDA00"/>
<path d="M12.8 380.65C11.6572 384.36 10.1707 387.956 8.36 391.39C7.90191 392.221 7.0289 392.738 6.08 392.74H0.6C0.241471 391.668 0.0393917 390.55 0 389.42V376.81H10.5C12.46 376.81 13.44 378.39 12.8 380.65Z" fill="#001C71"/>
<path d="M17.55 350.8C15.6693 350.299 14.2775 348.711 14.0262 346.781C13.775 344.851 14.7141 342.961 16.4038 341.995C18.0936 341.029 20.1993 341.179 21.735 342.375C23.2707 343.57 23.9323 345.575 23.41 347.45C22.7089 349.987 20.092 351.483 17.55 350.8Z" fill="white"/>
<path d="M36.92 337.48C38.8007 337.981 40.1925 339.569 40.4438 341.499C40.695 343.429 39.7559 345.319 38.0662 346.285C36.3765 347.251 34.2707 347.101 32.735 345.905C31.1993 344.71 30.5377 342.705 31.06 340.83C31.7658 338.297 34.3788 336.803 36.92 337.48Z" fill="#FFDA00"/>
<path d="M28.21 350.59C25.2196 349.741 23.4799 346.633 24.32 343.64C24.7058 342.203 25.6495 340.98 26.9414 340.242C28.2332 339.504 29.7663 339.312 31.2 339.71C33.1435 340.246 34.6535 341.778 35.1612 343.729C35.6688 345.68 35.097 347.754 33.6612 349.169C32.2253 350.584 30.1435 351.126 28.2 350.59H28.21Z" fill="white"/>
<path d="M395.45 188.26C384.538 188.259 374.82 195.166 371.233 205.472C367.646 215.778 370.975 227.225 379.53 234V244L385.83 237.71C395.425 241.601 406.418 239.342 413.701 231.982C420.983 224.623 423.128 213.607 419.137 204.054C415.146 194.5 405.804 188.282 395.45 188.29V188.26Z" fill="url(#paint68_linear)"/>
<path d="M403.68 212.69H401.08V209.58C401.29 207.674 400.391 205.816 398.767 204.797C397.142 203.778 395.078 203.778 393.454 204.797C391.829 205.816 390.93 207.674 391.14 209.58V212.69H388.54V209.58C388.54 205.399 391.929 202.01 396.11 202.01C400.291 202.01 403.68 205.399 403.68 209.58V212.69Z" fill="#CACBD7"/>
<path d="M402.63 212.57H400V209.46C399.721 206.926 397.58 205.007 395.03 205.007C392.48 205.007 390.339 206.926 390.06 209.46V212.57H387.46V209.46C387.359 206.692 388.779 204.089 391.161 202.675C393.543 201.261 396.507 201.261 398.889 202.675C401.271 204.089 402.691 206.692 402.59 209.46L402.63 212.57Z" fill="#E3E4EA"/>
<path d="M389.28 212.53H404.63C405.122 212.53 405.52 212.928 405.52 213.42V218.61C405.52 223.343 401.683 227.18 396.95 227.18C392.217 227.18 388.38 223.343 388.38 218.61V213.42C388.38 212.928 388.778 212.53 389.27 212.53L389.28 212.53Z" fill="url(#paint69_linear)"/>
<mask id="mask0" mask-type="alpha" maskUnits="userSpaceOnUse" x="386" y="212" width="18" height="16">
<path d="M386.92 212.53H402.27C402.762 212.53 403.16 212.928 403.16 213.42V218.61C403.16 223.343 399.323 227.18 394.59 227.18C392.312 227.185 390.125 226.283 388.514 224.673C386.902 223.064 385.997 220.878 386 218.6V213.41C386 212.918 386.398 212.52 386.89 212.52L386.92 212.53Z" fill="url(#paint70_linear)"/>
</mask>
<g mask="url(#mask0)">
<path d="M386.92 212.53H402.27C402.762 212.53 403.16 212.928 403.16 213.42V218.61C403.16 223.343 399.323 227.18 394.59 227.18C392.312 227.185 390.125 226.283 388.514 224.673C386.902 223.064 385.997 220.878 386 218.6V213.41C386 212.918 386.398 212.52 386.89 212.52L386.92 212.53Z" fill="url(#paint71_linear)"/>
<g style="mix-blend-mode:multiply" opacity="0.1">
<rect x="394.59" y="212.53" width="8.57" height="14.64" fill="#E70013"/>
</g>
</g>
<g style="mix-blend-mode:multiply" opacity="0.85">
<path d="M396.7 217.89C396.706 216.986 396.057 216.21 395.166 216.055C394.275 215.901 393.403 216.413 393.104 217.267C392.805 218.12 393.167 219.065 393.96 219.5V221.66C393.96 222.152 394.359 222.55 394.85 222.55C395.342 222.55 395.74 222.152 395.74 221.66V219.5C396.329 219.177 396.696 218.561 396.7 217.89Z" fill="#301300"/>
</g>
<g style="mix-blend-mode:multiply" opacity="0.85">
<path d="M396.7 217.89C396.706 216.986 396.057 216.21 395.166 216.055C394.275 215.901 393.403 216.413 393.104 217.267C392.805 218.12 393.167 219.065 393.96 219.5V221.66C393.96 222.152 394.359 222.55 394.85 222.55C395.342 222.55 395.74 222.152 395.74 221.66V219.5C396.329 219.177 396.696 218.561 396.7 217.89Z" fill="#572200"/>
</g>
<g style="mix-blend-mode:soft-light" opacity="0.3">
<path d="M313.93 271.64L278.53 310.85L288.11 310.64L322.93 272.07C320.05 271.87 317 271.73 313.93 271.64Z" fill="white"/>
<path d="M351.57 281.94L326.45 309.76L336.03 309.54L357 286.36C355.22 284.83 353.41 283.34 351.57 281.94Z" fill="white"/>
</g>
<g style="mix-blend-mode:overlay" opacity="0.2">
<path d="M261.19 275.68C261.43 273.49 261.43 271.43 257.68 271.43H255.79L218.67 312.55L228.37 312.19L261.16 275.88C261.17 275.82 261.18 275.74 261.19 275.68Z" fill="white"/>
</g>
<g style="mix-blend-mode:overlay" opacity="0.2">
<path d="M213.84 276.37L179.84 313.98L189.53 313.64L225.15 274.18C221.25 274.78 217.37 275.5 213.84 276.37Z" fill="white"/>
</g>
<path d="M437.45 241.15C437.45 241.15 435.5 258.49 436.98 261.15C449.84 284.51 472.56 264.7 469.86 255.43C466.53 244 465.57 235.43 465.57 231.6C465.57 227.77 465.41 220.4 464.47 217.3C462.61 211.2 459.57 206.85 457.95 205.42C455.41 203.18 453.04 200.42 449.84 199.67C443.65 198.24 438.06 201.25 430.84 205.67C423.62 210.09 436.63 210.92 435.48 218.84C434.33 226.76 437.45 241.15 437.45 241.15Z" fill="#001C71"/>
<path d="M456.69 236.41C455.583 237.997 454.767 239.768 454.28 241.64C453.788 243.487 453.603 245.403 453.73 247.31C453.873 249.222 454.273 251.105 454.92 252.91C455.573 254.737 456.368 256.509 457.3 258.21C456.075 256.663 455.066 254.958 454.3 253.14C453.514 251.308 453.041 249.358 452.9 247.37C452.772 245.37 453.026 243.364 453.65 241.46C454.26 239.564 455.3 237.836 456.69 236.41V236.41Z" fill="url(#paint72_linear)"/>
<path d="M463 267.27C464.104 265.682 464.92 263.911 465.41 262.04C465.903 260.193 466.086 258.277 465.95 256.37C465.83 254.47 461.23 238.58 460.3 236.86C461.51 238.39 466.05 252.41 466.3 253.36C466.525 254.348 466.679 255.35 466.76 256.36C466.888 258.356 466.634 260.359 466.01 262.26C465.4 264.137 464.371 265.85 463 267.27Z" fill="url(#paint73_linear)"/>
<path d="M457.11 243.24C457.394 244.15 457.611 245.079 457.76 246.02C457.93 246.96 458.04 247.9 458.13 248.85C458.22 249.8 458.25 250.74 458.23 251.7C458.231 252.656 458.148 253.609 457.98 254.55C457.8 253.61 457.67 252.67 457.55 251.73C457.43 250.79 457.34 249.86 457.26 248.92C457.18 247.98 457.12 247.04 457.09 246.09C457.06 245.14 457.05 244.2 457.11 243.24Z" fill="url(#paint74_linear)"/>
<path d="M425.31 283.05C419.25 288.85 409.4 292.8 405.87 292.4C403.45 292.12 368.74 270.22 368.71 270.2L376.09 268.69C378.09 269.17 406.22 280.51 407.09 280.42C407.96 280.33 415.23 275.59 421.24 269.42C422.423 268.217 423.541 266.952 424.59 265.63C428.549 260.644 433.187 256.238 438.37 252.54C438.17 253.29 431.37 277.25 425.31 283.05Z" fill="url(#paint75_linear)"/>
<path d="M363.94 259.76L366.51 260.33L363.97 264.93L366.65 265.36L366.45 266.22L364.79 267.44L368.84 267.25L370.37 263.89L367.29 256.32L364.47 258.43L363.94 259.76Z" fill="#E0A195"/>
<path d="M365.54 251.26L366.25 270.83C366.28 271.5 366.698 272.09 367.32 272.34L373.69 274.84C374.202 275.039 374.779 274.976 375.237 274.671C375.694 274.367 375.975 273.859 375.99 273.31L376.56 250.68C376.573 250.206 376.384 249.749 376.041 249.421C375.698 249.093 375.233 248.926 374.76 248.96L367.11 249.52C366.207 249.589 365.516 250.354 365.54 251.26Z" fill="#001C71"/>
<path d="M461.48 457.35C465.35 458.63 472.77 461.44 472.22 462.83C471.83 463.83 450 462.95 449.08 462.05C448.43 461.41 448.69 454.36 449.81 454.67C450.59 454.28 461.48 457.35 461.48 457.35Z" fill="#001C71"/>
<path d="M454.85 446.23C454.92 449.23 454.31 452.75 454.74 453.97C454.98 454.65 463.8 457.97 463.8 458.63C463.8 459.77 458.12 459.56 453.88 458.32C450.59 457.32 450.2 456.04 449.96 455.26C449.802 452.94 449.369 450.648 448.67 448.43C445.52 440 454.63 435.86 454.85 446.23Z" fill="url(#paint76_linear)"/>
<path d="M410.47 457.35C406.6 458.63 399.18 461.44 399.73 462.83C400.12 463.83 421.95 462.95 422.87 462.05C423.52 461.41 423.26 454.36 422.14 454.67C421.36 454.28 410.47 457.35 410.47 457.35Z" fill="#001C71"/>
<path d="M417.1 446.23C417.03 449.23 417.64 452.75 417.21 453.97C416.97 454.65 408.15 457.97 408.15 458.63C408.15 459.77 413.83 459.56 418.07 458.32C421.36 457.32 421.75 456.04 421.98 455.26C422.149 452.941 422.585 450.649 423.28 448.43C426.43 440 417.32 435.86 417.1 446.23Z" fill="url(#paint77_linear)"/>
<path d="M431.79 208.33C431.79 208.33 426 211.12 425.16 219C424.32 226.88 437.62 241 437.62 241L431.79 208.33Z" fill="#001C71"/>
<path d="M414.76 315.65C412.771 325.279 411.266 335.001 410.25 344.78C409.44 352.19 408.9 366.67 409.34 388.12C409.68 404.53 415.92 451.5 415.92 451.5L424.13 450.82L431.32 344.76L434.15 344.68L447.25 450.4L456.74 450.05C456.74 450.05 455.21 397.27 459.4 349.71C460.97 331.94 456.05 325.57 454.4 319.15L414.76 315.65Z" fill="url(#paint78_linear)"/>
<g style="mix-blend-mode:multiply" opacity="0.3">
<path d="M434.1 344.71L419.61 339.52L425.96 344.76C425.96 344.76 423.89 411.24 425.13 429.82L431.32 344.76L434.1 344.71Z" fill="url(#paint79_linear)"/>
</g>
<path d="M427.6 320.59L428.24 338.19L429.74 320.51L427.6 320.59Z" fill="#001C71"/>
<path d="M445.57 322.85C445.57 322.85 454.57 332.02 456.92 338.98C456.92 339 448.76 331.47 445.57 322.85Z" fill="#001C71"/>
<path d="M411.49 331.93L420.72 323.44L412.14 328.62L411.49 331.93Z" fill="#001C71"/>
<path d="M456.52 252L455.81 278.82C455.81 278.82 448.92 283.92 447.17 292.51C445.86 298.98 455.57 317.78 454.55 319.08C452.869 319.649 451.127 320.018 449.36 320.18C442.79 321.18 431.36 322.24 423.76 320.92C417.67 319.92 413.52 316.3 413.85 315.92C414.18 315.54 428.85 293.75 425.69 286.71C425.698 286.68 425.698 286.65 425.69 286.62C424.091 285.239 422.738 283.595 421.69 281.76C421.492 281.368 421.36 280.945 421.3 280.51C421.3 280.51 428.14 262.05 437.3 253.57L450.65 247.45L456.52 252Z" fill="url(#paint80_linear)"/>
<path d="M441.65 249.38L437.23 253.51C437.23 253.51 435.59 261.14 439.07 259.99C444.65 258.15 451.83 248.45 451.83 248.45L449.83 246.76L441.65 249.38Z" fill="url(#paint81_linear)"/>
<path d="M450.92 235.24L449.74 249.35C449.74 249.35 446.64 253.35 441.74 252.13L441.38 242.52L450.92 235.24Z" fill="url(#paint82_linear)"/>
<g style="mix-blend-mode:multiply" opacity="0.5">
<path d="M442.57 245.79C444.19 245.64 447.78 245.07 450.18 242.89L450.77 236.8L441.12 241.69L441.55 245.03C441.664 245.495 442.092 245.813 442.57 245.79Z" fill="#ECBBA7"/>
</g>
<path d="M451.14 237.94C446.2 244.18 443.8 245.52 438.58 246.49C435.12 247.13 430.58 242.09 428.88 232.99C427.839 227.4 427.884 221.663 429.01 216.09C429.261 214.983 429.595 213.897 430.01 212.84C430.644 210.871 431.844 209.132 433.46 207.84C440.95 202.55 448.46 203.23 451.26 205.66C452.19 206.47 453.14 209.34 453.79 213.14C455.07 220.8 455.45 232.5 451.14 237.94Z" fill="url(#paint83_linear)"/>
<path d="M453.17 228.72C453.17 228.72 456.06 225.34 457.98 226.61C459.9 227.88 457.44 233.5 455.43 234.14C453.17 234.87 452.76 232.38 452.76 232.38L453.17 228.72Z" fill="url(#paint84_linear)"/>
<g style="mix-blend-mode:multiply">
<path d="M454.18 230.37C454.552 229.408 455.31 228.646 456.27 228.27C456.774 227.947 457.443 228.069 457.8 228.55C457.272 228.301 456.645 228.4 456.22 228.8C455.893 229.051 455.658 229.402 455.55 229.8C455.85 229.948 456.078 230.211 456.182 230.529C456.285 230.847 456.256 231.194 456.1 231.49C456.1 231.49 455.46 232.7 454.56 232.35C453.66 232 454.05 230.71 454.18 230.37Z" fill="#ECBBA7"/>
</g>
<path d="M442.05 227.63C442.12 228.63 441.61 229.51 440.91 229.56C440.21 229.61 439.59 228.82 439.52 227.8C439.45 226.78 439.96 225.91 440.66 225.86C441.36 225.81 442 226.61 442.05 227.63Z" fill="#021D49"/>
<path d="M431.56 228.72C431.62 229.55 431.21 230.25 430.64 230.29C430.07 230.33 429.57 229.69 429.52 228.86C429.47 228.03 429.87 227.34 430.44 227.3C431.01 227.26 431.51 227.9 431.56 228.72Z" fill="#021D49"/>
<path d="M432.56 234.31C432.56 233.75 432.79 233.21 433.87 231.38C434.74 229.91 434.5 227.38 434.37 226.47C433.967 228.32 433.346 230.116 432.52 231.82C431.44 233.64 431.16 234.19 431.2 234.75C431.24 235.31 433.68 236.75 434.74 236.25C434.895 236.163 435.01 236.02 435.06 235.85C433.93 235.61 432.58 234.73 432.56 234.31Z" fill="#E09C80"/>
<path d="M437.79 221.05L438.56 222.51C440.326 222.407 442.096 222.613 443.79 223.12L444.06 222.8C444.06 222.8 442.22 220.75 437.79 221.05Z" fill="#062D55"/>
<path d="M431.29 223.93L431.85 222.37C430.538 222.66 429.268 223.113 428.07 223.72L428.13 224.51C428.13 224.51 430.47 224 431.29 223.93Z" fill="#062D55"/>
<path d="M433.12 238.51L440.01 235.74C440.01 235.74 440.07 241.3 438.01 241.92C435.5 242.69 433.12 238.51 433.12 238.51Z" fill="#A25C75"/>
<path fill-rule="evenodd" clip-rule="evenodd" d="M435.23 241.07C435.23 241.07 436.53 240.5 439.71 239.26L440.01 235.74L433.12 238.51C433.694 239.462 434.405 240.324 435.23 241.07Z" fill="#8D4565"/>
<path fill-rule="evenodd" clip-rule="evenodd" d="M433.82 238.23L435.3 239.14C436.731 238.746 438.084 238.11 439.3 237.26L439.78 235.85L433.82 238.23Z" fill="white"/>
<path d="M447.17 292.49C445.86 298.96 455.57 317.76 454.55 319.06C452.869 319.629 451.127 319.998 449.36 320.16C449.382 319.492 449.355 318.824 449.28 318.16C449.05 316.21 445.19 292.16 440.5 288.48C437.08 285.78 429.57 286.19 425.69 286.62C425.698 286.59 425.698 286.56 425.69 286.53C424.091 285.149 422.738 283.505 421.69 281.67L421.3 280.42C421.3 280.42 425.39 282.79 436.21 282.59C444.478 282.646 451.833 277.349 454.4 269.49L455.89 278.77C455.89 278.77 448.92 283.9 447.17 292.49Z" fill="url(#paint85_linear)"/>
<path d="M444.46 303.23H444.55C444.98 303.1 445.78 302.06 446.8 300.46C449.48 296.26 453.64 288.21 456.29 282.94C457.2 281.13 457.93 279.66 458.38 278.78C458.53 278.48 460.6 274.62 461.43 267.19C461.87 263.19 461.17 258.19 456.43 251.91C454.713 254.155 453.181 256.536 451.85 259.03C451.27 260.19 449.11 265.48 446.85 271.25L446.6 271.88C446.47 272.18 446.36 272.49 446.25 272.79C443.7 279.33 441.18 286.04 440.8 287.79C440.12 291.23 442.62 303.14 444.46 303.23Z" fill="url(#paint86_linear)"/>
<path d="M434.73 284.72C434.12 284.3 433.63 283.72 433.05 283.26C431.532 282.015 429.942 280.86 428.29 279.8C425.14 277.73 421.85 275.92 418.95 274.17L418.13 273.68V273.75L417.66 273.47C413.66 271.05 410.77 269.34 410.77 269.34L409.62 271L414.71 277.66L415.07 278.12L414.97 278.17C416.72 280.53 418.64 282.92 420.61 285.3C422.41 287.49 424.24 289.69 425.99 291.87C430.264 296.911 435.814 300.71 442.06 302.87C443.81 303.36 445.15 303.34 445.71 302.68L445.78 302.6C447.66 299.94 449.33 294.54 434.73 284.72Z" fill="url(#paint87_linear)"/>
<path d="M409 267.26C408.44 266.36 407.79 265.519 407.06 264.75C406.48 264.33 406.14 262.65 405.85 262.44C405.56 262.23 405.34 263.33 405.38 264.3C405.42 265.27 409 267.26 409 267.26Z" fill="#E0A195"/>
<path d="M410.06 271.76C408.657 272.073 407.203 272.073 405.8 271.76C404.352 271.142 403.055 270.218 402 269.05L401.41 269.27C401.41 269.27 402.81 270.93 402.55 271.27C402.29 271.61 399.43 269.47 399.41 269.03C399.615 267.386 399.949 265.761 400.41 264.17L400.77 263.66C400.77 263.66 398.77 261.92 398.09 261.45C397.41 260.98 393.53 260.92 393.51 260.6C393.49 260.28 397.91 259.47 399.03 259.6C400.15 259.73 408.87 267.23 409.69 267.81C410.352 268.466 410.863 269.257 411.19 270.13L410.06 271.76Z" fill="url(#paint88_linear)"/>
<path d="M363.26 257.76C362.99 258.1 363.39 259.83 363.94 259.76C364.49 259.69 367.94 257.05 368.13 255.76C368.32 254.47 363.26 257.76 363.26 257.76Z" fill="#ECBBA7"/>
<path d="M363.69 260.54C363.272 261.196 363.272 262.034 363.69 262.69C363.69 262.69 363.31 264.41 363.96 264.93C364.61 265.45 368.96 263 369.73 262.03C370.5 261.06 369.26 260.63 369.26 260.63C369.558 260.169 369.711 259.629 369.7 259.08C369.63 258.34 364.34 259.72 363.69 260.54Z" fill="#ECBBA7"/>
<path d="M364.3 266C363.6 266.25 364.01 267.84 364.89 267.73C365.77 267.62 368.46 266.16 368.38 265.51C368.3 264.86 365.43 265.56 364.3 266Z" fill="#ECBBA7"/>
<path d="M430.87 205.67C427.39 207.94 426.71 212.67 434.17 217.56C437.621 219.908 441.436 221.672 445.46 222.78C448.739 223.626 451.785 225.202 454.37 227.39C454.37 227.39 459.64 217.99 457.37 210.87C454.59 202.18 442.62 198 430.87 205.67Z" fill="#001C71"/>
<path d="M373.64 253.49C374.209 253.49 374.67 253.029 374.67 252.46C374.67 251.891 374.209 251.43 373.64 251.43C373.071 251.43 372.61 251.891 372.61 252.46C372.61 253.029 373.071 253.49 373.64 253.49Z" fill="white"/>
<g style="mix-blend-mode:multiply" opacity="0.3">
<path d="M443.15 412.23L447.25 450.4L456.74 450.05C456.74 450.05 456.17 420.94 456.67 387.43C456.285 388.627 456.023 389.86 455.89 391.11C454 458.31 443.15 412.23 443.15 412.23Z" fill="url(#paint89_linear)"/>
</g>
<path d="M454.24 222.34C454.139 221.733 453.828 221.18 453.36 220.78C452.896 220.392 452.377 220.075 451.82 219.84C450.686 219.365 449.52 218.97 448.33 218.66C447.14 218.34 445.93 218.03 444.73 217.66C444.13 217.47 443.53 217.27 442.94 217.03C442.327 216.79 441.749 216.471 441.22 216.08C440.224 215.297 439.301 214.427 438.46 213.48C437.636 212.538 436.861 211.553 436.14 210.53C435.465 209.511 434.647 208.595 433.71 207.81C433.23 207.439 432.688 207.155 432.11 206.97C431.518 206.792 430.907 206.685 430.29 206.65C431.562 206.531 432.839 206.826 433.93 207.49C434.965 208.228 435.877 209.126 436.63 210.15C437.41 211.15 438.18 212.08 439.02 212.97C439.857 213.857 440.759 214.679 441.72 215.43C442.723 216.084 443.819 216.583 444.97 216.91C446.14 217.3 447.33 217.64 448.52 218.03C449.725 218.399 450.893 218.878 452.01 219.46C452.569 219.768 453.078 220.159 453.52 220.62C453.738 220.857 453.917 221.127 454.05 221.42C454.177 221.71 454.242 222.023 454.24 222.34Z" fill="url(#paint90_linear)"/>
<path d="M455.55 215.32C455.48 214.878 455.253 214.477 454.91 214.19C454.57 213.909 454.193 213.677 453.79 213.5C452.966 213.154 452.117 212.87 451.25 212.65C450.38 212.41 449.51 212.19 448.64 211.92C448.2 211.78 447.76 211.64 447.33 211.46C446.886 211.283 446.466 211.051 446.08 210.77C445.361 210.197 444.692 209.565 444.08 208.88C443.48 208.195 442.92 207.477 442.4 206.73C441.91 205.984 441.317 205.311 440.64 204.73C440.286 204.466 439.891 204.263 439.47 204.13C439.041 203.999 438.598 203.919 438.15 203.89C439.073 203.806 439.998 204.019 440.79 204.5C441.558 205.034 442.233 205.689 442.79 206.44C443.37 207.14 443.92 207.84 444.53 208.44C445.152 209.084 445.821 209.683 446.53 210.23C447.257 210.706 448.053 211.066 448.89 211.3C449.74 211.58 450.61 211.83 451.47 212.12C452.347 212.371 453.197 212.706 454.01 213.12C454.414 213.347 454.785 213.63 455.11 213.96C455.266 214.132 455.394 214.328 455.49 214.54C455.575 214.791 455.596 215.059 455.55 215.32Z" fill="url(#paint91_linear)"/>
<path opacity="0.5" d="M126 102.917H222.09C222.09 102.917 213.31 86.1072 195.91 87.0372C182.3 87.7672 175.07 94.8772 170.17 98.3472C165.79 101.457 161.34 100.927 152.82 98.3472C143 95.3772 131.63 97.4372 126 102.917Z" fill="url(#paint92_linear)"/>
<path opacity="0.5" d="M269 16.4998H371.38C371.38 16.4998 367.94 10.3898 362.16 10.1598C356.16 9.90978 353.34 11.9898 347.85 11.4598C343.57 11.0398 342.75 5.45978 334.64 5.03978C328.58 4.75978 324.59 7.36978 319.64 6.50978C310.09 4.87978 309.75 0.779777 299.15 0.069777C287.33 -0.760223 276.15 5.87978 269 16.4998Z" fill="url(#paint93_linear)"/>
<defs>
<linearGradient id="paint0_linear" x1="100.024" y1="121.21" x2="100.024" y2="174.86" gradientUnits="userSpaceOnUse">
<stop stop-color="#4584FF"/>
<stop offset="0.92" stop-color="white"/>
</linearGradient>
<linearGradient id="paint1_linear" x1="259.577" y1="126.42" x2="259.577" y2="325.69" gradientUnits="userSpaceOnUse">
<stop stop-color="#4584FF"/>
<stop offset="0.92" stop-color="white"/>
</linearGradient>
<linearGradient id="paint2_linear" x1="333.357" y1="8.17" x2="333.357" y2="82.13" gradientUnits="userSpaceOnUse">
<stop stop-color="#4584FF"/>
<stop offset="0.92" stop-color="white"/>
</linearGradient>
<linearGradient id="paint3_linear" x1="400.179" y1="54.5" x2="400.179" y2="348.91" gradientUnits="userSpaceOnUse">
<stop stop-color="#4584FF"/>
<stop offset="0.92" stop-color="white"/>
</linearGradient>
<linearGradient id="paint4_linear" x1="454.254" y1="89.79" x2="454.254" y2="326.86" gradientUnits="userSpaceOnUse">
<stop stop-color="#4584FF"/>
<stop offset="0.92" stop-color="white"/>
</linearGradient>
<linearGradient id="paint5_linear" x1="198.244" y1="80.74" x2="198.244" y2="153.81" gradientUnits="userSpaceOnUse">
<stop stop-color="#4584FF"/>
<stop offset="0.92" stop-color="white"/>
</linearGradient>
<linearGradient id="paint6_linear" x1="298.039" y1="136.291" x2="407.417" y2="206.86" gradientUnits="userSpaceOnUse">
<stop stop-color="#4584FF"/>
<stop offset="0.92" stop-color="white"/>
</linearGradient>
<linearGradient id="paint7_linear" x1="322.057" y1="39.56" x2="322.057" y2="323.05" gradientUnits="userSpaceOnUse">
<stop stop-color="#4584FF"/>
<stop offset="0.92" stop-color="white"/>
</linearGradient>
<linearGradient id="paint8_linear" x1="465.1" y1="54.5" x2="465.1" y2="348.91" gradientUnits="userSpaceOnUse">
<stop stop-color="#4584FF"/>
<stop offset="0.92" stop-color="white"/>
</linearGradient>
<linearGradient id="paint9_linear" x1="395.998" y1="20.03" x2="395.998" y2="88.24" gradientUnits="userSpaceOnUse">
<stop stop-color="#4584FF"/>
<stop offset="0.92" stop-color="white"/>
</linearGradient>
<linearGradient id="paint10_linear" x1="434.716" y1="20.03" x2="434.716" y2="88.24" gradientUnits="userSpaceOnUse">
<stop stop-color="#4584FF"/>
<stop offset="0.92" stop-color="white"/>
</linearGradient>
<linearGradient id="paint11_linear" x1="511.235" y1="89.79" x2="511.235" y2="326.86" gradientUnits="userSpaceOnUse">
<stop stop-color="#4584FF"/>
<stop offset="0.92" stop-color="white"/>
</linearGradient>
<linearGradient id="paint12_linear" x1="152.333" y1="126.42" x2="152.333" y2="325.69" gradientUnits="userSpaceOnUse">
<stop stop-color="#4584FF"/>
<stop offset="0.92" stop-color="white"/>
</linearGradient>
<linearGradient id="paint13_linear" x1="197.183" y1="204.155" x2="257.999" y2="275.16" gradientUnits="userSpaceOnUse">
<stop stop-color="#4584FF"/>
<stop offset="0.92" stop-color="white"/>
</linearGradient>
<linearGradient id="paint14_linear" x1="32.9058" y1="126.42" x2="32.9058" y2="325.69" gradientUnits="userSpaceOnUse">
<stop stop-color="#4584FF"/>
<stop offset="0.92" stop-color="white"/>
</linearGradient>
<linearGradient id="paint15_linear" x1="26.7321" y1="186.03" x2="26.7321" y2="220.16" gradientUnits="userSpaceOnUse">
<stop stop-color="#4584FF"/>
<stop offset="0.92" stop-color="white"/>
</linearGradient>
<linearGradient id="paint16_linear" x1="84.985" y1="206.629" x2="141.855" y2="290.474" gradientUnits="userSpaceOnUse">
<stop stop-color="#4584FF"/>
<stop offset="0.92" stop-color="white"/>
</linearGradient>
<linearGradient id="paint17_linear" x1="93.6478" y1="126.42" x2="93.6478" y2="325.69" gradientUnits="userSpaceOnUse">
<stop stop-color="#4584FF"/>
<stop offset="0.92" stop-color="white"/>
</linearGradient>
<linearGradient id="paint18_linear" x1="201.543" y1="126.42" x2="201.543" y2="325.69" gradientUnits="userSpaceOnUse">
<stop stop-color="#4584FF"/>
<stop offset="0.92" stop-color="white"/>
</linearGradient>
<linearGradient id="paint19_linear" x1="180.168" y1="144.02" x2="180.168" y2="171.99" gradientUnits="userSpaceOnUse">
<stop stop-color="#4584FF"/>
<stop offset="0.92" stop-color="white"/>
</linearGradient>
<linearGradient id="paint20_linear" x1="199.741" y1="144.02" x2="199.741" y2="171.99" gradientUnits="userSpaceOnUse">
<stop stop-color="#4584FF"/>
<stop offset="0.92" stop-color="white"/>
</linearGradient>
<linearGradient id="paint21_linear" x1="236.417" y1="142.012" x2="313.723" y2="285.546" gradientUnits="userSpaceOnUse">
<stop stop-color="#4584FF"/>
<stop offset="0.92" stop-color="white"/>
</linearGradient>
<linearGradient id="paint22_linear" x1="518.271" y1="291.469" x2="434.621" y2="269.763" gradientUnits="userSpaceOnUse">
<stop stop-color="#4584FF"/>
<stop offset="0.92" stop-color="white"/>
</linearGradient>
<linearGradient id="paint23_linear" x1="457.86" y1="353.615" x2="478.49" y2="353.615" gradientUnits="userSpaceOnUse">
<stop stop-color="#4584FF"/>
<stop offset="0.92" stop-color="white"/>
</linearGradient>
<linearGradient id="paint24_linear" x1="552.661" y1="229.728" x2="456.925" y2="218.449" gradientUnits="userSpaceOnUse">
<stop stop-color="#4584FF"/>
<stop offset="0.92" stop-color="white"/>
</linearGradient>
<linearGradient id="paint25_linear" x1="482.87" y1="353.29" x2="492.77" y2="353.29" gradientUnits="userSpaceOnUse">
<stop stop-color="#4584FF"/>
<stop offset="0.92" stop-color="white"/>
</linearGradient>
<linearGradient id="paint26_linear" x1="928.95" y1="-394.593" x2="980.599" y2="-415.221" gradientUnits="userSpaceOnUse">
<stop stop-color="#4584FF"/>
<stop offset="0.92" stop-color="white"/>
</linearGradient>
<linearGradient id="paint27_linear" x1="926.756" y1="-378.028" x2="971.679" y2="-386.982" gradientUnits="userSpaceOnUse">
<stop stop-color="#4584FF"/>
<stop offset="0.92" stop-color="white"/>
</linearGradient>
<linearGradient id="paint28_linear" x1="954.476" y1="-415.561" x2="981.41" y2="-484.001" gradientUnits="userSpaceOnUse">
<stop stop-color="#4584FF"/>
<stop offset="0.92" stop-color="white"/>
</linearGradient>
<linearGradient id="paint29_linear" x1="938.089" y1="-407.922" x2="987.905" y2="-457.423" gradientUnits="userSpaceOnUse">
<stop stop-color="#4584FF"/>
<stop offset="0.92" stop-color="white"/>
</linearGradient>
<linearGradient id="paint30_linear" x1="938.089" y1="-407.922" x2="987.905" y2="-457.423" gradientUnits="userSpaceOnUse">
<stop stop-color="#4584FF"/>
<stop offset="0.92" stop-color="white"/>
</linearGradient>
<linearGradient id="paint31_linear" x1="960.134" y1="-416.274" x2="982.285" y2="-485.742" gradientUnits="userSpaceOnUse">
<stop stop-color="#4584FF"/>
<stop offset="0.92" stop-color="white"/>
</linearGradient>
<linearGradient id="paint32_linear" x1="930.631" y1="-395.467" x2="982.899" y2="-418.041" gradientUnits="userSpaceOnUse">
<stop stop-color="#4584FF"/>
<stop offset="0.92" stop-color="white"/>
</linearGradient>
<linearGradient id="paint33_linear" x1="930.631" y1="-395.467" x2="982.899" y2="-418.041" gradientUnits="userSpaceOnUse">
<stop stop-color="#4584FF"/>
<stop offset="0.92" stop-color="white"/>
</linearGradient>
<linearGradient id="paint34_linear" x1="961.563" y1="-414.973" x2="984.417" y2="-484.333" gradientUnits="userSpaceOnUse">
<stop stop-color="#4584FF"/>
<stop offset="0.92" stop-color="white"/>
</linearGradient>
<linearGradient id="paint35_linear" x1="932.804" y1="-394.554" x2="985.148" y2="-417.369" gradientUnits="userSpaceOnUse">
<stop stop-color="#4584FF"/>
<stop offset="0.92" stop-color="white"/>
</linearGradient>
<linearGradient id="paint36_linear" x1="932.804" y1="-394.554" x2="985.148" y2="-417.369" gradientUnits="userSpaceOnUse">
<stop stop-color="#4584FF"/>
<stop offset="0.92" stop-color="white"/>
</linearGradient>
<linearGradient id="paint37_linear" x1="989.397" y1="-419.084" x2="997.978" y2="-488.019" gradientUnits="userSpaceOnUse">
<stop stop-color="#4584FF"/>
<stop offset="0.92" stop-color="white"/>
</linearGradient>
<linearGradient id="paint38_linear" x1="951.27" y1="-412.82" x2="984.87" y2="-478.64" gradientUnits="userSpaceOnUse">
<stop stop-color="#4584FF"/>
<stop offset="0.92" stop-color="white"/>
</linearGradient>
<linearGradient id="paint39_linear" x1="951.27" y1="-412.82" x2="984.87" y2="-478.64" gradientUnits="userSpaceOnUse">
<stop stop-color="#4584FF"/>
<stop offset="0.92" stop-color="white"/>
</linearGradient>
<linearGradient id="paint40_linear" x1="947.33" y1="-414.83" x2="980.93" y2="-480.65" gradientUnits="userSpaceOnUse">
<stop stop-color="#4584FF"/>
<stop offset="0.92" stop-color="white"/>
</linearGradient>
<linearGradient id="paint41_linear" x1="922.858" y1="-391.231" x2="971.908" y2="-406.105" gradientUnits="userSpaceOnUse">
<stop stop-color="#4584FF"/>
<stop offset="0.92" stop-color="white"/>
</linearGradient>
<linearGradient id="paint42_linear" x1="926.695" y1="-387.624" x2="975.075" y2="-401.354" gradientUnits="userSpaceOnUse">
<stop stop-color="#4584FF"/>
<stop offset="0.92" stop-color="white"/>
</linearGradient>
<linearGradient id="paint43_linear" x1="926.695" y1="-387.624" x2="975.075" y2="-401.354" gradientUnits="userSpaceOnUse">
<stop stop-color="#4584FF"/>
<stop offset="0.92" stop-color="white"/>
</linearGradient>
<linearGradient id="paint44_linear" x1="928.687" y1="-401.956" x2="982.331" y2="-432.069" gradientUnits="userSpaceOnUse">
<stop stop-color="#4584FF"/>
<stop offset="0.92" stop-color="white"/>
</linearGradient>
<linearGradient id="paint45_linear" x1="931.714" y1="-395.125" x2="984.052" y2="-417.943" gradientUnits="userSpaceOnUse">
<stop stop-color="#4584FF"/>
<stop offset="0.92" stop-color="white"/>
</linearGradient>
<linearGradient id="paint46_linear" x1="931.714" y1="-395.125" x2="984.052" y2="-417.943" gradientUnits="userSpaceOnUse">
<stop stop-color="#4584FF"/>
<stop offset="0.92" stop-color="white"/>
</linearGradient>
<linearGradient id="paint47_linear" x1="930.33" y1="-401.176" x2="983.973" y2="-431.375" gradientUnits="userSpaceOnUse">
<stop stop-color="#4584FF"/>
<stop offset="0.92" stop-color="white"/>
</linearGradient>
<linearGradient id="paint48_linear" x1="941.808" y1="-406.643" x2="991.02" y2="-457.28" gradientUnits="userSpaceOnUse">
<stop stop-color="#4584FF"/>
<stop offset="0.92" stop-color="white"/>
</linearGradient>
<linearGradient id="paint49_linear" x1="941.808" y1="-406.643" x2="991.02" y2="-457.28" gradientUnits="userSpaceOnUse">
<stop stop-color="#4584FF"/>
<stop offset="0.92" stop-color="white"/>
</linearGradient>
<linearGradient id="paint50_linear" x1="937.266" y1="-411.32" x2="983.826" y2="-466.12" gradientUnits="userSpaceOnUse">
<stop stop-color="#4584FF"/>
<stop offset="0.92" stop-color="white"/>
</linearGradient>
<linearGradient id="paint51_linear" x1="594.825" y1="339.999" x2="553.28" y2="171.962" gradientUnits="userSpaceOnUse">
<stop stop-color="#B7D0FF"/>
<stop offset="1" stop-color="#4584FF"/>
</linearGradient>
<linearGradient id="paint52_linear" x1="453.06" y1="256.557" x2="0" y2="256.557" gradientUnits="userSpaceOnUse">
<stop offset="0.03" stop-color="#4584FF"/>
<stop offset="1" stop-color="#004EC9"/>
</linearGradient>
<linearGradient id="paint53_linear" x1="-424.068" y1="2118.39" x2="-424.068" y2="2040.99" gradientUnits="userSpaceOnUse">
<stop offset="0.03" stop-color="#4584FF"/>
<stop offset="1" stop-color="#004EC9"/>
</linearGradient>
<linearGradient id="paint54_linear" x1="-496.643" y1="2013.95" x2="-524.084" y2="2133.49" gradientUnits="userSpaceOnUse">
<stop offset="0.03" stop-color="#4584FF"/>
<stop offset="1" stop-color="#004EC9"/>
</linearGradient>
<linearGradient id="paint55_linear" x1="312.27" y1="318.473" x2="313.018" y2="390.708" gradientUnits="userSpaceOnUse">
<stop stop-color="#BBD2FF"/>
<stop offset="1" stop-color="white"/>
</linearGradient>
<linearGradient id="paint56_linear" x1="-570.322" y1="2048.49" x2="-571.318" y2="2136.79" gradientUnits="userSpaceOnUse">
<stop offset="0.03" stop-color="#4584FF"/>
<stop offset="1" stop-color="#004EC9"/>
</linearGradient>
<linearGradient id="paint57_linear" x1="-725.295" y1="2126.69" x2="-724.413" y2="2054.45" gradientUnits="userSpaceOnUse">
<stop stop-color="#BBD2FF"/>
<stop offset="1" stop-color="white"/>
</linearGradient>
<linearGradient id="paint58_linear" x1="-849.305" y1="2038.93" x2="-850.485" y2="2127.22" gradientUnits="userSpaceOnUse">
<stop offset="0.03" stop-color="#4584FF"/>
<stop offset="1" stop-color="#004EC9"/>
</linearGradient>
<linearGradient id="paint59_linear" x1="112.3" y1="310.55" x2="191.43" y2="310.55" gradientUnits="userSpaceOnUse">
<stop offset="0.03" stop-color="#004EC9"/>
<stop offset="1" stop-color="#001C71"/>
</linearGradient>
<linearGradient id="paint60_linear" x1="-29.5839" y1="275.854" x2="22.1716" y2="405.228" gradientUnits="userSpaceOnUse">
<stop offset="0.03" stop-color="#004EC9"/>
<stop offset="1" stop-color="#001C71"/>
</linearGradient>
<linearGradient id="paint61_linear" x1="-495.68" y1="2178.99" x2="-440.6" y2="2178.99" gradientUnits="userSpaceOnUse">
<stop offset="0.03" stop-color="#004EC9"/>
<stop offset="1" stop-color="#001C71"/>
</linearGradient>
<linearGradient id="paint62_linear" x1="123.41" y1="335.757" x2="354.79" y2="335.757" gradientUnits="userSpaceOnUse">
<stop offset="0.03" stop-color="#004EC9"/>
<stop offset="1" stop-color="#001C71"/>
</linearGradient>
<linearGradient id="paint63_linear" x1="-915.564" y1="2168.32" x2="-683.53" y2="2359.42" gradientUnits="userSpaceOnUse">
<stop offset="0.03" stop-color="#4584FF"/>
<stop offset="1" stop-color="#004EC9"/>
</linearGradient>
<linearGradient id="paint64_linear" x1="5.44" y1="355.28" x2="51.07" y2="355.28" gradientUnits="userSpaceOnUse">
<stop stop-color="#BBD2FF"/>
<stop offset="1" stop-color="#BBD2FF"/>
</linearGradient>
<linearGradient id="paint65_linear" x1="-859.12" y1="2116.78" x2="-828.06" y2="2116.78" gradientUnits="userSpaceOnUse">
<stop stop-color="#BBD2FF"/>
<stop offset="1" stop-color="#BBD2FF"/>
</linearGradient>
<linearGradient id="paint66_linear" x1="-692.309" y1="2133.02" x2="-727.663" y2="2142.58" gradientUnits="userSpaceOnUse">
<stop offset="0.03" stop-color="#4584FF"/>
<stop offset="1" stop-color="#004EC9"/>
</linearGradient>
<linearGradient id="paint67_linear" x1="-724.22" y1="2143.37" x2="-697.87" y2="2143.37" gradientUnits="userSpaceOnUse">
<stop offset="0.03" stop-color="#4584FF"/>
<stop offset="1" stop-color="#004EC9"/>
</linearGradient>
<linearGradient id="paint68_linear" x1="337.265" y1="198.492" x2="383.676" y2="280.582" gradientUnits="userSpaceOnUse">
<stop offset="0.03" stop-color="#622AF9"/>
<stop offset="1" stop-color="#00E0E2"/>
</linearGradient>
<linearGradient id="paint69_linear" x1="366.37" y1="237.026" x2="406.56" y2="237.026" gradientUnits="userSpaceOnUse">
<stop stop-color="#FFDA00"/>
<stop offset="1" stop-color="#FF8300"/>
</linearGradient>
<linearGradient id="paint70_linear" x1="380.105" y1="266.172" x2="486.426" y2="257.746" gradientUnits="userSpaceOnUse">
<stop stop-color="#FFDA00"/>
<stop offset="1" stop-color="#FF8300"/>
</linearGradient>
<linearGradient id="paint71_linear" x1="380.105" y1="266.172" x2="486.426" y2="257.746" gradientUnits="userSpaceOnUse">
<stop stop-color="#FFDA00"/>
<stop offset="1" stop-color="#FF8300"/>
</linearGradient>
<linearGradient id="paint72_linear" x1="452.88" y1="258.18" x2="457.3" y2="258.18" gradientUnits="userSpaceOnUse">
<stop offset="0.15" stop-color="#622AF9"/>
<stop offset="1" stop-color="#001C71"/>
</linearGradient>
<linearGradient id="paint73_linear" x1="466.84" y1="236.813" x2="460.33" y2="236.813" gradientUnits="userSpaceOnUse">
<stop offset="0.15" stop-color="#622AF9"/>
<stop offset="1" stop-color="#001C71"/>
</linearGradient>
<linearGradient id="paint74_linear" x1="295.07" y1="254.498" x2="296.23" y2="254.498" gradientUnits="userSpaceOnUse">
<stop offset="0.15" stop-color="#622AF9"/>
<stop offset="1" stop-color="#001C71"/>
</linearGradient>
<linearGradient id="paint75_linear" x1="379.155" y1="301.93" x2="440.13" y2="270.528" gradientUnits="userSpaceOnUse">
<stop stop-color="#00E0E2"/>
<stop offset="1" stop-color="#00A8AA"/>
</linearGradient>
<linearGradient id="paint76_linear" x1="464.275" y1="461.912" x2="460.042" y2="447.255" gradientUnits="userSpaceOnUse">
<stop stop-color="#ECBBA7"/>
<stop offset="0.95" stop-color="#EAA889"/>
</linearGradient>
<linearGradient id="paint77_linear" x1="419.985" y1="465.468" x2="424.218" y2="450.81" gradientUnits="userSpaceOnUse">
<stop stop-color="#ECBBA7"/>
<stop offset="0.95" stop-color="#EAA889"/>
</linearGradient>
<linearGradient id="paint78_linear" x1="249.66" y1="314.452" x2="221.544" y2="438.384" gradientUnits="userSpaceOnUse">
<stop offset="0.15" stop-color="#622AF9"/>
<stop offset="1" stop-color="#001C71"/>
</linearGradient>
<linearGradient id="paint79_linear" x1="419.61" y1="429.82" x2="434.1" y2="429.82" gradientUnits="userSpaceOnUse">
<stop offset="0.09" stop-color="#E7B7CE"/>
<stop offset="1" stop-color="#F1DBE4"/>
</linearGradient>
<linearGradient id="paint80_linear" x1="256.152" y1="234.373" x2="228.611" y2="313.792" gradientUnits="userSpaceOnUse">
<stop stop-color="#00E0E2"/>
<stop offset="1" stop-color="#00A8AA"/>
</linearGradient>
<linearGradient id="paint81_linear" x1="437.048" y1="260.492" x2="452.321" y2="259.793" gradientUnits="userSpaceOnUse">
<stop stop-color="#ECBBA7"/>
<stop offset="0.95" stop-color="#EAA889"/>
</linearGradient>
<linearGradient id="paint82_linear" x1="441.314" y1="252.205" x2="450.754" y2="252.246" gradientUnits="userSpaceOnUse">
<stop stop-color="#ECBBA7"/>
<stop offset="0.95" stop-color="#EAA889"/>
</linearGradient>
<linearGradient id="paint83_linear" x1="455.111" y1="243.83" x2="451.406" y2="202.127" gradientUnits="userSpaceOnUse">
<stop stop-color="#ECBBA7"/>
<stop offset="0.95" stop-color="#EAA889"/>
</linearGradient>
<linearGradient id="paint84_linear" x1="452.759" y1="234.204" x2="458.609" y2="234.249" gradientUnits="userSpaceOnUse">
<stop stop-color="#ECBBA7"/>
<stop offset="0.95" stop-color="#EAA889"/>
</linearGradient>
<linearGradient id="paint85_linear" x1="259.22" y1="320.175" x2="293.81" y2="320.175" gradientUnits="userSpaceOnUse">
<stop stop-color="#00E0E2"/>
<stop offset="0.5" stop-color="#00A8AA"/>
</linearGradient>
<linearGradient id="paint86_linear" x1="283.217" y1="164.154" x2="189.839" y2="185.747" gradientUnits="userSpaceOnUse">
<stop stop-color="#00E0E2"/>
<stop offset="0.5" stop-color="#00A8AA"/>
</linearGradient>
<linearGradient id="paint87_linear" x1="215.782" y1="291.744" x2="266.988" y2="340.82" gradientUnits="userSpaceOnUse">
<stop stop-color="#00A8AA"/>
<stop offset="1" stop-color="#00E0E2"/>
</linearGradient>
<linearGradient id="paint88_linear" x1="393.674" y1="274.041" x2="411.439" y2="268.589" gradientUnits="userSpaceOnUse">
<stop stop-color="#ECBBA7"/>
<stop offset="0.95" stop-color="#EAA889"/>
</linearGradient>
<linearGradient id="paint89_linear" x1="281.15" y1="450.395" x2="294.74" y2="450.395" gradientUnits="userSpaceOnUse">
<stop offset="0.09" stop-color="#E7B7CE"/>
<stop offset="1" stop-color="#F1DBE4"/>
</linearGradient>
<linearGradient id="paint90_linear" x1="268.29" y1="222.348" x2="292.24" y2="222.348" gradientUnits="userSpaceOnUse">
<stop offset="0.15" stop-color="#622AF9"/>
<stop offset="1" stop-color="#001C71"/>
</linearGradient>
<linearGradient id="paint91_linear" x1="276.14" y1="215.329" x2="293.55" y2="215.329" gradientUnits="userSpaceOnUse">
<stop offset="0.15" stop-color="#622AF9"/>
<stop offset="1" stop-color="#001C71"/>
</linearGradient>
<linearGradient id="paint92_linear" x1="77.955" y1="94.9586" x2="83.0875" y2="125.943" gradientUnits="userSpaceOnUse">
<stop stop-color="#00E0E2"/>
<stop offset="1" stop-color="#00E0E2" stop-opacity="0.1"/>
</linearGradient>
<linearGradient id="paint93_linear" x1="151.419" y1="14.5081" x2="169.135" y2="77.0142" gradientUnits="userSpaceOnUse">
<stop stop-color="#00E0E2"/>
<stop offset="1" stop-color="#00E0E2" stop-opacity="0.01"/>
</linearGradient>
</defs>
</svg>
