<?xml version="1.0" encoding="utf-8"?>
<!-- Generator: Adobe Illustrator 16.0.0, SVG Export Plug-In . SVG Version: 6.00 Build 0)  -->
<!DOCTYPE svg PUBLIC "-//W3C//DTD SVG 1.1//EN" "http://www.w3.org/Graphics/SVG/1.1/DTD/svg11.dtd">
<svg version="1.1" id="Layer_1" xmlns="http://www.w3.org/2000/svg" xmlns:xlink="http://www.w3.org/1999/xlink" x="0px" y="0px"
	 width="142.508px" height="140.61px" viewBox="0 0 142.508 140.61" enable-background="new 0 0 142.508 140.61"
	 xml:space="preserve">
<g id="Page-1_1_">
	<g id="_x30_67---Car-Marker">
		<path id="Shape_20_" fill="#F3D55B" d="M137.505,134.493l-8.18-23.075l-4.996-13.943l-4.09-11.433l-3.648-10.271l-0.581-1.627
			c-0.317-0.972-1.232-1.623-2.254-1.603h-12.943c-1.272,2.642-2.692,5.208-4.252,7.691c-0.283,0.498-0.593,0.979-0.93,1.441
			c-0.976,1.511-1.999,2.975-2.998,4.345c-5.739,7.83-12.589,14.781-20.333,20.635l-1.069,0.744l-0.256-0.186
			c-3.292-2.363-6.399-4.973-9.294-7.808c-2.939-2.807-5.717-5.778-8.32-8.9c-2.328-2.817-4.492-5.765-6.483-8.83
			c-0.336-0.462-0.647-0.943-0.93-1.441c-1.576-2.481-3.012-5.049-4.299-7.691h-12.92c-1.028-0.061-1.975,0.563-2.323,1.533
			l-1.487,4.207l-7.135,20.565l-3.764,10.271l-4.648,12.781l-4.415,12.595c-0.119,0.418-0.119,0.861,0,1.278
			c0.234,1.09,1.209,1.86,2.324,1.835h128.04c0.757,0,1.467-0.369,1.901-0.989C137.657,135.998,137.763,135.205,137.505,134.493
			L137.505,134.493z"/>
		<path id="Shape_19_" fill="#E57E25" d="M116.522,75.702L92.633,86.019c1-1.371,2.022-2.834,2.998-4.345
			c0.336-0.462,0.646-0.943,0.93-1.441c1.56-2.483,2.98-5.05,4.252-7.691h12.943c0.979,0,1.852,0.613,2.185,1.533L116.522,75.702z"
			/>
		<path id="Shape_18_" fill="#24AE5F" d="M61.634,99.404l-21.333,9.295l-22.518-9.853l7.343-20.565l28.28,12.223
			C55.98,93.624,58.726,96.595,61.634,99.404L61.634,99.404z"/>
		<path id="Shape_17_" fill="#BDC3C7" d="M135.321,137.607h-14.082L60.82,111.558l10.085-4.345l0.325,0.186l1.046-0.744
			l22.982-9.899l6.182,2.649l9.295,4.02l18.59,7.994l8.227,23.075c0.26,0.72,0.149,1.521-0.296,2.144
			C136.81,137.259,136.086,137.623,135.321,137.607L135.321,137.607z"/>
		<path id="Shape_4_" fill="#24AE5F" d="M26.567,114.509l-17.103,7.39l4.555-12.781L26.567,114.509z"/>
		<path id="Shape_5_" fill="#3B97D3" d="M93.818,137.607H7.141c-1.115,0.025-2.09-0.745-2.324-1.835l42.339-18.288L93.818,137.607z"
			/>
		<path id="Shape_6_" fill="#E57E25" d="M124.26,97.406l-15.313-6.6l11.223-4.833L124.26,97.406z"/>
		<path id="Shape_7_" fill="#FFFFFF" d="M108.412,40.356c-0.036,11.168-2.636,22.18-7.599,32.185
			c-1.272,2.642-2.692,5.208-4.252,7.691c-0.283,0.498-0.593,0.979-0.93,1.441c-0.976,1.511-1.999,2.975-2.998,4.345
			c-5.739,7.83-12.589,14.781-20.333,20.635l-1.069,0.744l-0.256-0.186c-3.292-2.363-6.399-4.973-9.294-7.808
			c-2.939-2.807-5.717-5.778-8.32-8.9c-2.328-2.817-4.492-5.765-6.483-8.83c-0.336-0.462-0.647-0.943-0.93-1.441
			c-1.576-2.481-3.012-5.049-4.299-7.691c-4.963-10.005-7.563-21.017-7.599-32.185c0-20.534,16.646-37.18,37.181-37.18
			S108.412,19.822,108.412,40.356L108.412,40.356z"/>
		<path id="Shape_8_" fill="#000685" d="M71.231,109.722c-0.502,0-0.992-0.163-1.395-0.465l-0.209-0.163
			c-3.409-2.411-6.618-5.091-9.597-8.017c-3.007-2.863-5.846-5.896-8.505-9.086c-2.393-2.887-4.612-5.914-6.646-9.062
			c-0.367-0.509-0.709-1.036-1.022-1.581c-1.576-2.521-3.011-5.128-4.299-7.808c-5.111-10.317-7.79-21.669-7.832-33.184
			c0-21.817,17.687-39.504,39.504-39.504s39.504,17.687,39.504,39.504c-0.032,11.523-2.712,22.884-7.831,33.207
			c-1.306,2.714-2.764,5.352-4.369,7.901c-0.256,0.465-0.627,1-1,1.534c-0.952,1.486-1.998,2.974-3.021,4.392
			c-5.909,8.019-12.954,15.135-20.914,21.123l-0.232,0.163l-0.906,0.627C72.1,109.557,71.673,109.703,71.231,109.722z M71.231,5.151
			C51.913,5.318,36.348,21.039,36.375,40.356c0.042,10.814,2.562,21.474,7.366,31.163c1.27,2.575,2.69,5.074,4.252,7.482
			c0.252,0.463,0.54,0.906,0.86,1.325c1.955,3.016,4.081,5.917,6.367,8.691c2.546,3.054,5.262,5.963,8.133,8.714
			c2.483,2.43,5.114,4.704,7.877,6.809c7.411-5.67,13.977-12.369,19.497-19.892c0.975-1.325,1.975-2.766,2.927-4.229
			c0.306-0.416,0.586-0.851,0.837-1.301c1.542-2.444,2.946-4.973,4.205-7.576c4.81-9.694,7.339-20.362,7.39-31.185
			C106.114,21.039,90.549,5.318,71.231,5.151L71.231,5.151z"/>
		<path id="Shape_9_" fill="#FFFFFF" d="M91.309,37.685H51.154l4.648-10.643c1.455-3.386,4.773-5.592,8.458-5.624h13.942
			c3.719-0.005,7.083,2.207,8.552,5.624L91.309,37.685z"/>
		<path id="Shape_10_" fill="#000685" d="M93.121,44.238c-0.932-0.001-1.774-0.559-2.137-1.417l-6.368-14.85
			c-1.098-2.566-3.622-4.23-6.414-4.229H64.26c-2.792-0.001-5.316,1.663-6.413,4.229l-6.368,14.85
			c-0.302,0.796-1.015,1.364-1.859,1.479c-0.843,0.115-1.683-0.241-2.188-0.928c-0.503-0.687-0.592-1.593-0.229-2.364l6.367-14.942
			c1.854-4.249,6.055-6.988,10.689-6.972h13.942c4.635-0.016,8.835,2.723,10.689,6.972l6.367,14.872
			c0.5,1.181-0.052,2.543-1.231,3.044C93.744,44.123,93.437,44.21,93.121,44.238L93.121,44.238z"/>
		<path id="Shape_11_" fill="#000685" d="M50.317,56.275h9.295v9.295c0,1.284-1.041,2.324-2.324,2.324h-4.647
			c-1.284,0-2.324-1.04-2.324-2.324V56.275z"/>
		<path id="Shape_12_" fill="#000685" d="M82.85,56.275h9.295v9.295c0,1.284-1.04,2.324-2.323,2.324h-4.648
			c-1.284,0-2.324-1.04-2.324-2.324V56.275z"/>
		<path id="Shape_13_" fill="#000685" d="M96.793,44.656v6.971c0,2.567-2.082,4.648-4.648,4.648H50.317
			c-2.567,0-4.647-2.081-4.647-4.648v-6.971c0-3.85,3.121-6.971,6.971-6.971h37.181C93.671,37.685,96.793,40.806,96.793,44.656z"/>
		<path id="Shape_14_" fill="#F4D200" d="M59.612,46.98c0,1.283-1.041,2.323-2.324,2.323H45.67v-4.647h11.619
			C58.571,44.656,59.612,45.696,59.612,46.98z"/>
		<path id="Shape_15_" fill="#F4D200" d="M96.793,44.656v4.647H85.174c-1.284,0-2.324-1.04-2.324-2.323
			c0-1.284,1.04-2.324,2.324-2.324H96.793z"/>
		<path id="Shape_16_" fill="#F3D55B" d="M75.878,49.303h-9.295c-1.283,0-2.324-1.04-2.324-2.323c0-1.284,1.041-2.324,2.324-2.324
			h9.295c1.284,0,2.324,1.041,2.324,2.324C78.202,48.263,77.162,49.303,75.878,49.303z"/>
	</g>
</g>
</svg>
