<?xml version="1.0" encoding="utf-8"?>
<!-- Generator: Adobe Illustrator 16.0.0, SVG Export Plug-In . SVG Version: 6.00 Build 0)  -->
<!DOCTYPE svg PUBLIC "-//W3C//DTD SVG 1.1//EN" "http://www.w3.org/Graphics/SVG/1.1/DTD/svg11.dtd">
<svg version="1.1" id="Layer_1" xmlns="http://www.w3.org/2000/svg" xmlns:xlink="http://www.w3.org/1999/xlink" x="0px" y="0px"
	 width="142.508px" height="140.61px" viewBox="0 0 142.508 140.61" enable-background="new 0 0 142.508 140.61"
	 xml:space="preserve">
<path fill="#000685" d="M141.927,59.664l-23.852-30.984c-0.883-1.146-2.493-1.429-3.714-0.652l-15.4,9.794H78.877
	c-0.26,0-0.519,0.056-0.769,0.128l-15.573,4.483l-16.158-4.42l-15.701-9.985c-1.201-0.763-2.781-0.504-3.674,0.603L0.62,61.308
	c-0.948,1.174-0.792,2.889,0.352,3.873L14.8,77.08l12.405,16.718c-3.628,3.865-3.557,9.961,0.218,13.737
	c1.673,1.672,3.801,2.617,5.99,2.836c-0.076,0.496-0.115,1-0.115,1.51c0,2.638,1.027,5.118,2.892,6.982
	c1.865,1.866,4.346,2.893,6.983,2.893c0.036,0,0.071-0.002,0.105-0.003c-0.001,0.068-0.004,0.134-0.004,0.202
	c0,2.637,1.027,5.117,2.892,6.983c1.866,1.864,4.346,2.892,6.983,2.892c0.521,0,1.036-0.042,1.542-0.121
	c0.214,2.196,1.161,4.333,2.84,6.012c1.925,1.926,4.453,2.888,6.982,2.888c2.529,0,5.058-0.962,6.983-2.888l1.51-1.51l0.634,0.511
	c1.909,1.849,4.388,2.773,6.867,2.773c2.529,0,5.058-0.962,6.982-2.888c1.965-1.964,2.927-4.558,2.887-7.137
	c2.579,0.039,5.173-0.922,7.138-2.886c1.962-1.963,2.925-4.555,2.887-7.133c2.687,0.042,5.235-0.99,7.137-2.891
	c1.965-1.965,2.927-4.558,2.887-7.138c2.581,0.039,5.173-0.922,7.138-2.887c3.353-3.354,3.785-8.536,1.298-12.362l9.058-18.97
	l13.618-11.719C142.661,62.518,142.833,60.839,141.927,59.664z M29.782,34.082l11.29,7.179l-24.56,29.92l-9.842-8.47L29.782,34.082z
	 M31.375,97.521l3.407-3.407c0.104-0.104,0.212-0.201,0.323-0.292c0.667-0.544,1.473-0.868,2.328-0.945
	c0.024-0.002,0.049-0.002,0.073-0.003c0.122-0.01,0.244-0.016,0.367-0.015c1.167,0.016,2.253,0.494,3.057,1.343
	c1.579,1.669,1.494,4.396-0.189,6.079l-3.304,3.304c-1.671,1.671-4.391,1.671-6.062,0C29.704,101.911,29.704,99.191,31.375,97.521z
	 M40.142,114.912c-0.81-0.809-1.256-1.885-1.256-3.03s0.446-2.221,1.256-3.031l6.607-6.607c1.266-1.266,3.255-1.612,4.873-0.841
	c1.668,0.794,2.606,2.604,2.362,4.426c-0.131,0.972-0.583,1.888-1.276,2.582l-6.503,6.502c-0.81,0.81-1.886,1.256-3.031,1.256
	S40.952,115.722,40.142,114.912z M50.118,124.985c-0.81-0.809-1.256-1.885-1.256-3.03c0-1.145,0.446-2.222,1.256-3.032l6.606-6.607
	c1.354-1.353,3.525-1.644,5.182-0.68c1.514,0.881,2.306,2.609,2.046,4.332c-0.142,0.947-0.592,1.838-1.27,2.515l-6.501,6.501
	c-0.81,0.81-1.887,1.256-3.031,1.256C52.004,126.241,50.928,125.795,50.118,124.985z M61.482,133.771
	c-1.671-1.671-1.671-4.391,0-6.062l3.408-3.407c0.103-0.104,0.21-0.2,0.322-0.292c0.003-0.002,0.005-0.004,0.007-0.007
	c0.555-0.45,1.206-0.751,1.9-0.883c0.017-0.002,0.033-0.004,0.049-0.006c0.119-0.021,0.241-0.039,0.363-0.05
	c0.049-0.004,0.098-0.004,0.148-0.008c0.1-0.005,0.199-0.012,0.3-0.011c1.167,0.016,2.253,0.492,3.057,1.343
	c0.099,0.104,0.191,0.213,0.276,0.325c1.285,1.68,1.112,4.175-0.483,5.771l-3.287,3.287
	C65.872,135.442,63.153,135.441,61.482,133.771z M113.61,102.585c-1.671,1.672-4.39,1.671-6.062,0
	c-0.061-0.061-0.125-0.117-0.19-0.171L89.391,84.257c-1.086-1.097-2.855-1.105-3.952-0.02c-1.097,1.085-1.106,2.854-0.021,3.951
	l18.163,18.352c0.002,0.002,0.004,0.004,0.007,0.007c1.671,1.671,1.671,4.392,0,6.062c-0.81,0.81-1.887,1.256-3.031,1.256
	c-1.146,0-2.223-0.446-3.032-1.256l-12.15-12.276c-1.085-1.097-2.854-1.105-3.951-0.021c-1.097,1.086-1.106,2.855-0.021,3.952
	l11.964,12.088c0.061,0.076,0.126,0.149,0.196,0.219c1.671,1.671,1.671,4.392,0,6.062c-1.672,1.671-4.393,1.67-6.064-0.001
	l-6.631-6.701c-1.086-1.097-2.855-1.107-3.952-0.021c-1.097,1.085-1.105,2.854-0.021,3.951l6.446,6.513
	c0.061,0.076,0.126,0.15,0.197,0.219c1.671,1.671,1.671,4.392,0,6.063c-1.671,1.672-4.391,1.671-6.062,0
	c-0.193-0.193-0.419-0.341-0.634-0.506c-0.183-0.139-0.23-0.236-0.139-0.458c0.092-0.225,0.23-0.428,0.323-0.655
	c0.102-0.252,0.185-0.512,0.265-0.773c0.429-1.381,0.554-2.866,0.362-4.299c-0.37-2.75-1.882-5.231-4.174-6.801
	c-1.238-0.847-2.671-1.402-4.156-1.611c0.72-3.175-0.145-6.617-2.393-8.993c-1.851-1.955-4.35-3.052-7.039-3.089
	c-0.098-0.001-0.196-0.001-0.295,0c0.06-2.566-0.873-5.115-2.642-6.984c-1.852-1.955-4.351-3.052-7.039-3.089
	c-0.799-0.011-1.606,0.074-2.385,0.253c-0.333-2.314-1.499-4.457-3.266-5.988c-1.756-1.52-3.964-2.364-6.316-2.396
	c-2.476-0.036-4.908,0.877-6.747,2.537L20.401,75.251L46.243,43.77l8.236,2.252l-10.756,18.98c-1.301,2.295-1.629,4.959-0.926,7.501
	c0.704,2.543,2.354,4.659,4.649,5.959c0.144,0.082,0.288,0.159,0.435,0.233c0.011,0.005,0.022,0.011,0.034,0.016
	c0.386,0.193,0.783,0.358,1.185,0.497c1.874,0.649,3.897,0.72,5.849,0.181c2.542-0.704,4.658-2.355,5.958-4.649l6.99-12.334
	l12.48,0.885l33.234,33.233C115.281,98.194,115.281,100.914,113.61,102.585z M114.768,89.776L83.591,58.601
	c-0.059-0.06-0.121-0.116-0.185-0.17c-0.449-0.374-1.006-0.6-1.593-0.641l-15.281-1.084c-1.057-0.073-2.107,0.49-2.629,1.41
	l-7.858,13.869c-0.564,0.996-1.483,1.712-2.587,2.018c-1.103,0.305-2.259,0.162-3.256-0.402c-0.997-0.564-1.713-1.483-2.018-2.586
	c-0.306-1.104-0.164-2.261,0.402-3.256l10.491-18.515l4.251-1.223c0.028-0.009,0.055-0.02,0.083-0.028l15.866-4.582h19.17
	l23.933,30.424L114.768,89.776z M126.042,69.447l-22.132-28.15l11.296-7.184l20.68,26.863L126.042,69.447z"/>
<path fill="#F4D200" d="M86.335,32.574c0.715,0,1.431-0.272,1.977-0.818l19.087-19.088c1.092-1.091,1.092-2.86,0-3.952
	c-1.091-1.092-2.86-1.092-3.952,0L84.36,27.803c-1.092,1.091-1.092,2.86,0,3.952C84.906,32.301,85.621,32.574,86.335,32.574z"/>
<path fill="#F4D200" d="M54.196,31.755c0.545,0.546,1.261,0.818,1.977,0.818c0.714,0,1.43-0.272,1.976-0.818
	c1.091-1.092,1.091-2.861,0-3.952L39.061,8.716c-1.092-1.092-2.861-1.092-3.952,0c-1.092,1.091-1.092,2.86,0,3.952L54.196,31.755z"
	/>
<path fill="#F4D200" d="M71.254,32.574c1.543,0,2.794-1.251,2.794-2.794V13.983c0-1.543-1.251-2.794-2.794-2.794
	c-1.542,0-2.794,1.251-2.794,2.794V29.78C68.46,31.323,69.711,32.574,71.254,32.574z"/>
<path fill="#F4D200" d="M68.675,3.855c0.444,1.075,1.55,1.781,2.716,1.72c1.152-0.06,2.165-0.838,2.521-1.936
	c0.357-1.105-0.032-2.366-0.958-3.07c-0.945-0.72-2.263-0.76-3.251-0.107C68.601,1.192,68.174,2.642,68.675,3.855z"/>
</svg>
