<?xml version="1.0" encoding="utf-8"?>
<!-- Generator: Adobe Illustrator 16.0.0, SVG Export Plug-In . SVG Version: 6.00 Build 0)  -->
<!DOCTYPE svg PUBLIC "-//W3C//DTD SVG 1.1//EN" "http://www.w3.org/Graphics/SVG/1.1/DTD/svg11.dtd">
<svg version="1.1" id="Layer_1" xmlns="http://www.w3.org/2000/svg" xmlns:xlink="http://www.w3.org/1999/xlink" x="0px" y="0px"
	 width="142.508px" height="140.61px" viewBox="0 0 142.508 140.61" enable-background="new 0 0 142.508 140.61"
	 xml:space="preserve">
<g id="Page-1">
	<g id="_x30_01---Thinking" transform="translate(-1.000000, -1.000000)">
		<path id="Shape" fill="#000685" d="M10.358,87.871c0.686,0.476,1.41,0.894,2.165,1.251c0.903,0.461,2.413,1.232,2.519,1.775
			c0.133,0.712,0.048,1.447-0.244,2.111c-0.311,0.667-0.638,1.24-0.918,1.736c-0.765,1.348-2.041,3.605-0.114,5.182
			c0.45,0.417,1.228,1.02,1.939,1.564c-0.523,0.913-0.759,1.961-0.68,3.01c0.109,0.82,0.552,1.56,1.224,2.043
			c0.469,0.333,0.972,0.625,1.459,0.907c1.226,0.698,1.706,1.023,1.876,1.668c0.113,0.848,0.034,1.711-0.229,2.525
			c-0.123,0.542-0.242,1.082-0.319,1.637c-0.207,1.902,0.036,3.826,0.705,5.618c0.936,3.32,3.939,5.634,7.389,5.693
			c0.572-0.002,1.143-0.062,1.704-0.179c5.957-1.412,11.827-3.168,17.582-5.261c4.696,2.757,7.666,11.14,8.439,14.287
			c0.231,0.929,1.066,1.581,2.025,1.581l52.342-0.146c0.663-0.001,1.287-0.318,1.678-0.854c0.392-0.535,0.506-1.225,0.307-1.857
			c-0.516-1.413-1.227-2.747-2.113-3.962c-0.5-0.72-0.952-1.472-1.351-2.252c-0.943-1.912-1.73-3.897-2.354-5.937
			c-1.189-4.03-2.015-8.159-2.467-12.337c-0.732-6.239,0.214-12.56,2.74-18.311c1.542-3.189,3.441-6.193,5.664-8.953
			c1.251-1.689,2.551-3.438,3.716-5.276c2.004-3.114,3.458-6.549,4.296-10.156c0.24-1.113-0.458-2.213-1.567-2.47
			c-1.109-0.258-2.22,0.422-2.495,1.528c-0.733,3.148-2.003,6.146-3.754,8.863c-1.082,1.712-2.333,3.397-3.545,5.028
			c-2.413,3.011-4.472,6.289-6.137,9.77c-2.824,6.432-3.879,13.502-3.057,20.478c0.481,4.431,1.361,8.809,2.629,13.082
			c0.685,2.243,1.551,4.427,2.588,6.531c0.476,0.94,1.015,1.846,1.617,2.711l0.139,0.208l-47.299,0.142
			c-1.387-4.946-3.9-9.504-7.343-13.317l1.876-0.653c1.402-0.49,2.459-0.859,3.005-1.042c8.93-2.847,13.397-6.913,13.273-12.095
			c-0.006-0.553-0.235-1.081-0.637-1.462c-0.401-0.381-0.939-0.584-1.492-0.562c-1.151,0.027-2.062,0.982-2.036,2.133
			c0.05,2.134-1.708,5.257-10.376,8.019c-0.567,0.182-1.668,0.563-3.109,1.07c-1.55,0.54-3.514,1.228-5.683,1.964h-0.015
			c-5.864,2.151-11.848,3.961-17.921,5.422c-1.942,0.365-3.831-0.854-4.296-2.776c-0.448-1.177-0.624-2.44-0.515-3.695
			c0.061-0.417,0.159-0.855,0.254-1.28c0.444-1.456,0.516-2.999,0.209-4.489c-0.605-1.91-2.01-3.463-3.849-4.256l-0.449-0.257
			c0.225-0.457,0.494-0.89,0.805-1.293c0.35-0.443,0.504-1.01,0.428-1.57c-0.076-0.56-0.375-1.064-0.83-1.399
			c-0.499-0.367-1.668-1.251-2.544-1.948c0.101-0.182,0.209-0.381,0.315-0.561c0.327-0.576,0.702-1.252,1.065-2.017
			c0.661-1.46,0.854-3.09,0.554-4.665c-0.498-2.543-2.936-3.791-4.715-4.7c-0.599-0.286-1.174-0.62-1.718-0.999
			c-0.446-0.3-0.866-0.639-1.25-1.014c0-0.317,0.339-1.083,1.926-3.016c3.732-4.808,6.931-10.006,9.541-15.504
			c0.49-0.862,0.766-1.829,0.805-2.819c-0.219-2.098-1.334-4-3.059-5.213c-0.845-0.775-1.643-1.505-1.733-2.121
			c0.019-0.511,0.134-1.014,0.337-1.483c0.34-0.892,0.734-1.768,1.126-2.646c0.879-1.811,1.578-3.705,2.085-5.653
			c0.478-2.337,1.104-4.641,1.877-6.898c1.643-4.537,4.189-8.695,7.482-12.222c3.987-4.223,10.264-7.209,18.689-8.881
			c6.444-1.415,12.982-2.357,19.564-2.82c2.214-0.114,4.434-0.066,6.642,0.142c0.744,0.07,1.467-0.263,1.899-0.872
			c0.432-0.609,0.505-1.403,0.194-2.081c-0.312-0.679-0.962-1.14-1.706-1.208c-2.41-0.221-4.832-0.27-7.248-0.144
			c-6.785,0.471-13.526,1.438-20.169,2.895C40.314,14.733,33.48,18.03,28.817,22.96c-3.682,3.936-6.528,8.578-8.367,13.645
			c-0.845,2.465-1.531,4.982-2.054,7.536c-0.446,1.637-1.045,3.229-1.79,4.754c-0.417,0.949-0.846,1.897-1.222,2.884
			c-0.475,1.103-0.669,2.306-0.567,3.502c0.431,1.861,1.514,3.507,3.051,4.642c1.021,0.936,1.696,1.596,1.704,2.171
			c-0.076,0.316-0.195,0.621-0.355,0.905c-2.496,5.258-5.556,10.23-9.125,14.829c-1.51,1.841-3.095,3.987-2.763,6.135
			C7.774,85.619,8.865,87.027,10.358,87.871z"/>
		<path id="Shape_1_" fill="#000685" d="M32.185,40.946c1.256-3.481,3.203-6.673,5.723-9.384c2.779-2.942,7.586-5.109,14.288-6.441
			c1.129-0.224,1.864-1.321,1.641-2.451c-0.224-1.13-1.322-1.864-2.452-1.64c-7.567,1.505-13.121,4.083-16.507,7.662
			c-2.91,3.123-5.157,6.803-6.606,10.819c-0.702,2.083-1.273,4.208-1.712,6.362l4.073,0.903
			C31.032,44.803,31.55,42.856,32.185,40.946z"/>
		<path id="Shape_2_" fill="#F4D200" d="M75.812,21.575l-1.25,6.24c-1.206,0.396-2.38,0.884-3.512,1.459l-5.294-3.545
			c-1.655-1.083-3.843-0.856-5.239,0.544l-3.462,3.46c-1.428,1.402-1.659,3.62-0.551,5.287l3.528,5.269
			c-0.575,1.132-1.063,2.306-1.459,3.512l-6.231,1.251c-1.947,0.394-3.346,2.105-3.345,4.091v4.921
			c-0.001,1.983,1.394,3.693,3.336,4.089l6.239,1.251c0.396,1.206,0.884,2.38,1.459,3.512l-3.545,5.294
			c-1.083,1.654-0.855,3.842,0.544,5.239l3.462,3.461c1.405,1.421,3.618,1.651,5.285,0.549l5.27-3.529
			c1.132,0.576,2.306,1.064,3.512,1.46l1.251,6.23c0.393,1.948,2.104,3.349,4.091,3.347h4.921c1.983,0.001,3.693-1.394,4.089-3.336
			l1.251-6.239c1.206-0.396,2.38-0.884,3.511-1.46l5.295,3.545c1.654,1.083,3.842,0.856,5.239-0.544l3.459-3.46
			c1.428-1.401,1.659-3.62,0.551-5.286l-3.529-5.27c0.576-1.131,1.064-2.305,1.46-3.512l6.231-1.251
			c1.238-0.25,2.295-1.05,2.872-2.173l3.143,2.106c0.606,0.382,1.308,0.585,2.024,0.586c1,0,1.958-0.398,2.663-1.107l2.774-2.774
			c1.261-1.268,1.463-3.245,0.485-4.742l-2.69-4.024c0.39-0.784,0.728-1.594,1.009-2.423l4.719-0.94
			c1.765-0.347,3.036-1.898,3.03-3.697v-3.92c0.006-1.792-1.256-3.34-3.013-3.693l-4.74-0.945c-0.28-0.83-0.616-1.639-1.005-2.423
			l2.732-4.072c0.947-1.492,0.73-3.441-0.521-4.688l-2.773-2.773c-1.268-1.263-3.245-1.465-4.742-0.486l-4.025,2.69
			c-0.784-0.39-1.593-0.728-2.423-1.009l-0.943-4.719c-0.346-1.765-1.896-3.036-3.695-3.03h-3.92
			c-1.793-0.007-3.34,1.256-3.693,3.013l-0.944,4.74c-0.83,0.282-1.64,0.62-2.423,1.011l-4.073-2.731
			c-1.492-0.945-3.44-0.729-4.688,0.521l-1.876,1.876c-0.27-0.056-0.544-0.086-0.82-0.09h-4.921
			C77.918,18.237,76.209,19.632,75.812,21.575z M107.693,29.75l-0.974-0.974c3.614,0.484,6.489,3.271,7.085,6.869
			c0.596,3.598-1.227,7.163-4.493,8.786l-3.166-0.625c-0.396-1.206-0.884-2.38-1.459-3.512l3.544-5.294
			c1.087-1.654,0.863-3.844-0.538-5.243V29.75z M90.239,19.624l4.767,3.204c0.668,0.448,1.535,0.471,2.227,0.06
			c1.194-0.703,2.478-1.239,3.816-1.595c0.765-0.207,1.347-0.829,1.501-1.606l1.12-5.618h3.262l1.12,5.63
			c0.155,0.777,0.736,1.399,1.501,1.606c1.339,0.355,2.622,0.893,3.816,1.595c0.694,0.408,1.562,0.379,2.227-0.072l4.768-3.199
			l2.314,2.314l-3.197,4.769c-0.448,0.669-0.472,1.536-0.061,2.228c0.703,1.194,1.239,2.478,1.595,3.816
			c0.207,0.765,0.829,1.347,1.605,1.501l5.63,1.12v3.261l-5.619,1.12c-0.778,0.155-1.399,0.736-1.606,1.501
			c-0.356,1.339-0.893,2.623-1.595,3.816c-0.411,0.692-0.388,1.559,0.061,2.227l3.199,4.767l-2.315,2.315l-4.648-3.109v-2.131
			c0.001-1.221-0.532-2.381-1.459-3.176c3.671-3.537,4.823-8.95,2.91-13.675c-1.913-4.726-6.507-7.812-11.605-7.797
			c-1.261,0.008-2.512,0.213-3.709,0.609c-1.019-0.148-2.057,0.08-2.919,0.642l-5.266,3.528c-1.131-0.575-2.305-1.063-3.512-1.459
			l-1.251-6.231c-0.037-0.167-0.085-0.331-0.144-0.492L90.239,19.624z M78.4,29.869l1.501-7.459h4.921l1.5,7.466
			c0.155,0.774,0.736,1.395,1.5,1.601c1.723,0.465,3.378,1.151,4.923,2.044c0.689,0.399,1.545,0.372,2.207-0.071l6.31-4.221
			l3.495,3.477l-4.233,6.316c-0.443,0.662-0.471,1.518-0.071,2.207c0.892,1.545,1.579,3.2,2.043,4.923
			c0.207,0.763,0.827,1.343,1.601,1.499l7.46,1.491v4.923l-7.466,1.5c-0.775,0.156-1.395,0.736-1.602,1.5
			c-0.464,1.723-1.151,3.378-2.043,4.923c-0.399,0.688-0.372,1.545,0.071,2.207l4.222,6.31l-3.477,3.495l-6.317-4.233
			c-0.662-0.443-1.517-0.471-2.206-0.071c-1.545,0.892-3.201,1.579-4.923,2.044c-0.763,0.206-1.343,0.827-1.5,1.601l-1.493,7.459
			h-4.921l-1.499-7.465c-0.156-0.775-0.736-1.395-1.5-1.602c-1.724-0.464-3.378-1.151-4.924-2.043
			c-0.688-0.399-1.545-0.372-2.206,0.071l-6.31,4.221l-3.495-3.476l4.233-6.317c0.443-0.661,0.47-1.517,0.071-2.206
			c-0.893-1.545-1.58-3.201-2.044-4.923c-0.207-0.763-0.827-1.343-1.602-1.5l-7.459-1.493v-4.921l7.466-1.499
			c0.774-0.156,1.395-0.737,1.601-1.5c0.464-1.723,1.152-3.378,2.043-4.924c0.399-0.688,0.372-1.544-0.071-2.206l-4.221-6.31
			l3.477-3.495l6.316,4.233c0.662,0.443,1.518,0.47,2.207,0.071c1.546-0.892,3.201-1.579,4.923-2.043
			C77.669,31.261,78.246,30.642,78.4,29.869z"/>
		<path id="Shape_3_" fill="#F4D200" d="M82.362,66.202c8.062,0,14.598-6.535,14.598-14.597s-6.536-14.597-14.598-14.597
			s-14.597,6.535-14.597,14.597C67.774,59.663,74.304,66.193,82.362,66.202z M82.362,41.178c5.759,0,10.427,4.668,10.427,10.427
			s-4.667,10.427-10.427,10.427c-5.758,0-10.427-4.668-10.427-10.427C71.943,45.849,76.607,41.185,82.362,41.178z"/>
		<circle id="Oval" fill="#F4D200" cx="82.362" cy="51.604" r="2.085"/>
		<circle id="Oval_1_" fill="#000685" cx="26.058" cy="53.69" r="2.085"/>
	</g>
</g>
</svg>
