<?xml version="1.0" encoding="utf-8"?>
<!-- Generator: Adobe Illustrator 16.0.0, SVG Export Plug-In . SVG Version: 6.00 Build 0)  -->
<!DOCTYPE svg PUBLIC "-//W3C//DTD SVG 1.1//EN" "http://www.w3.org/Graphics/SVG/1.1/DTD/svg11.dtd">
<svg version="1.1" id="Layer_1" xmlns="http://www.w3.org/2000/svg" xmlns:xlink="http://www.w3.org/1999/xlink" x="0px" y="0px"
	 width="88.055px" height="88.055px" viewBox="0 0 88.055 88.055" enable-background="new 0 0 88.055 88.055" xml:space="preserve">
<g transform="translate(35 20)">
	<g>
		<circle id="a_15_" cx="9.027" cy="24.027" r="43.032"/>
	</g>
	<g>
		<circle id="a_1_" fill="#FFFFFF" stroke="#F4D200" stroke-width="2" stroke-miterlimit="10" cx="9.027" cy="24.027" r="43.032"/>
	</g>
</g>
<g>
	<path fill="#000685" d="M39.749,21.482v19.352h-16.45v-12.58c0-0.406,0.251-0.773,0.619-0.909L39.4,21.539
		C39.516,21.501,39.632,21.482,39.749,21.482L39.749,21.482z"/>
</g>
<g>
	<path fill="#F4D200" d="M56.198,28.254v12.58H39.749V21.482c0.116,0,0.231,0.019,0.348,0.057l15.481,5.806
		C55.945,27.481,56.198,27.848,56.198,28.254z"/>
</g>
<g>
	<path fill="#000685" d="M56.198,40.834c-0.078,17.533-16.082,21.23-16.237,21.269c-0.077,0.019-0.135,0.019-0.212,0.019V40.834
		H56.198z"/>
</g>
<g>
	<path fill="#F4D200" d="M39.749,40.834v21.287c-0.079,0-0.137,0-0.214-0.019c-0.154-0.038-16.159-3.735-16.236-21.269H39.749z"/>
</g>
<g>
	<circle fill="#39B54A" cx="59.1" cy="56.853" r="12.579"/>
</g>
<g>
	<path d="M59.1,70.829c-7.707,0-13.977-6.269-13.977-13.975c0-7.707,6.27-13.978,13.977-13.978c7.706,0,13.977,6.271,13.977,13.978
		C73.077,64.56,66.806,70.829,59.1,70.829z M59.1,46.102c-5.928,0-10.751,4.823-10.751,10.752c0,5.927,4.823,10.75,10.751,10.75
		c5.929,0,10.751-4.823,10.751-10.75C69.851,50.926,65.029,46.102,59.1,46.102z"/>
</g>
<g>
	<path d="M39.749,64.379c-0.104,0-0.208-0.009-0.308-0.029c-0.181-0.034-17.969-3.71-17.969-23.773V27.287
		c0-0.667,0.408-1.262,1.029-1.503l16.664-6.451c0.374-0.144,0.79-0.144,1.164,0l16.664,6.451c0.623,0.241,1.032,0.836,1.032,1.503
		v9.675c0,0.891-0.723,1.614-1.612,1.614c-0.891,0-1.613-0.723-1.613-1.614v-8.57l-15.051-5.825l-15.053,5.825v12.183
		c0,16.329,12.924,20.04,15.078,20.546h0.004c0.869-0.187,1.721,0.391,1.897,1.266c0.174,0.873-0.394,1.723-1.267,1.896
		l-0.399,0.074C39.923,64.372,39.836,64.379,39.749,64.379L39.749,64.379z"/>
</g>
<polyline fill="none" stroke="#000000" stroke-width="3.2664" stroke-linecap="round" stroke-linejoin="round" stroke-miterlimit="10" points="
	53.99,57.173 58.215,61.396 63.965,52.309 "/>
</svg>
