<?xml version="1.0" encoding="utf-8"?>
<!-- Generator: Adobe Illustrator 16.0.0, SVG Export Plug-In . SVG Version: 6.00 Build 0)  -->
<!DOCTYPE svg PUBLIC "-//W3C//DTD SVG 1.1//EN" "http://www.w3.org/Graphics/SVG/1.1/DTD/svg11.dtd">
<svg version="1.1" id="Layer_1" xmlns="http://www.w3.org/2000/svg" xmlns:xlink="http://www.w3.org/1999/xlink" x="0px" y="0px"
	 width="88.055px" height="88.055px" viewBox="0 0 88.055 88.055" enable-background="new 0 0 88.055 88.055" xml:space="preserve">
<g transform="translate(35 20)">
	<g>
		<circle id="a_15_" cx="9.027" cy="24.027" r="43.032"/>
	</g>
	<g>
		<circle id="a_1_" fill="#FFFFFF" stroke="#F4D200" stroke-width="2" stroke-miterlimit="10" cx="9.027" cy="24.027" r="43.032"/>
	</g>
</g>
<g>
	<g>
		<g>
			<path fill="#FF826E" d="M66.872,28.136c0.509,0.127,0.966,0.364,1.348,0.686l-0.009,0.009c-0.152-0.026-0.305-0.051-0.465-0.051
				c-1.873,0-3.389,1.516-3.389,3.389c0,1.872,1.516,3.388,3.389,3.388c0.618,0,1.193-0.178,1.693-0.465v3.854h-7.064
				c-0.508-1.44-1.66-2.592-3.1-3.101V28.78l-1.721-4.574c-0.49-1.33-1.753-2.203-3.167-2.203h-9.513h-8.666
				c-1.415,0-2.677,0.873-3.168,2.203l-1.059,2.821l-0.661,1.753v1.694v5.769c-0.745-0.44-1.609-0.687-2.541-0.687
				c-2.211,0-4.1,1.415-4.794,3.389h-5.37v-3.389c1.872,0,3.388-1.516,3.388-3.388c0-1.415-0.873-2.626-2.101-3.134
				c0.449-0.364,0.991-0.601,1.584-0.694l6.446-1.254l1.686-4.209c1.025-2.576,3.523-4.262,6.293-4.262h18.771
				c2.771,0,5.269,1.686,6.294,4.262l1.686,4.209L66.872,28.136z"/>
		</g>
		<g>
			<path fill="#FC6E51" d="M44.875,28.78v10.165h-11.3c-0.407-1.144-1.211-2.101-2.253-2.702v-5.769h2.542
				c0.703,0,1.338-0.288,1.795-0.746c0.263-0.262,0.475-0.583,0.593-0.948h0.008H44.875z"/>
		</g>
		<g>
			<path fill="#FC6E51" d="M59.275,28.78v7.064c-0.534-0.187-1.103-0.288-1.695-0.288c-2.21,0-4.1,1.415-4.794,3.389h-7.911V28.78
				H59.275z"/>
		</g>
		<g>
			<path fill="#69D6F4" d="M57.554,24.206l1.721,4.574h-14.4v-6.776h9.513C55.802,22.004,57.064,22.877,57.554,24.206z"/>
		</g>
		<g>
			<path fill="#69D6F4" d="M36.404,27.933c0-0.466-0.381-0.848-0.847-0.848h-3.422l-0.152-0.059l1.059-2.821
				c0.491-1.33,1.753-2.203,3.168-2.203h8.666v6.776H36.26h-0.008C36.353,28.517,36.404,28.23,36.404,27.933z"/>
		</g>
		<g>
			<path fill="#CCD1D9" d="M32.135,27.086h3.422c0.466,0,0.847,0.381,0.847,0.848c0,0.296-0.051,0.584-0.152,0.847
				c-0.119,0.365-0.331,0.687-0.593,0.948c-0.458,0.458-1.092,0.746-1.795,0.746h-2.542V28.78l0.661-1.753L32.135,27.086z"/>
		</g>
		<g>
			<path fill="#FCD770" d="M19.903,29.034c1.229,0.508,2.101,1.72,2.101,3.134c0,1.872-1.516,3.388-3.388,3.388v-3.871
				C18.616,30.618,19.116,29.653,19.903,29.034z"/>
		</g>
		<g>
			<path fill="#FCD770" d="M69.439,31.423v3.668c-0.5,0.287-1.075,0.465-1.693,0.465c-1.873,0-3.389-1.516-3.389-3.388
				c0-1.873,1.516-3.389,3.389-3.389c0.16,0,0.312,0.025,0.465,0.051l0.009-0.009C68.973,29.458,69.439,30.398,69.439,31.423
				L69.439,31.423z"/>
		</g>
		<g>
			<path fill="#CCD1D9" d="M23.698,40.638c0,0.593,0.102,1.161,0.288,1.694h-1.982c-1.872,0-3.388-1.516-3.388-3.388h5.37
				C23.8,39.478,23.698,40.046,23.698,40.638z"/>
		</g>
		<g>
			<path fill="#CCD1D9" d="M52.786,42.333H33.575c0.187-0.533,0.288-1.101,0.288-1.694c0-0.592-0.102-1.16-0.288-1.693h11.3h7.911
				c-0.186,0.533-0.288,1.101-0.288,1.693C52.498,41.232,52.6,41.8,52.786,42.333z"/>
		</g>
		<g>
			<path fill="#CCD1D9" d="M62.663,40.638c0-0.592-0.102-1.16-0.288-1.693h7.064c0,1.872-1.517,3.388-3.389,3.388h-3.676
				C62.561,41.8,62.663,41.232,62.663,40.638z"/>
		</g>
		<g>
			<path fill="#838F9B" d="M33.575,38.945c0.187,0.533,0.288,1.101,0.288,1.693c0,0.593-0.102,1.161-0.288,1.694
				c-0.695,1.974-2.583,3.389-4.794,3.389s-4.1-1.415-4.794-3.389c-0.187-0.533-0.288-1.101-0.288-1.694
				c0-0.592,0.102-1.16,0.288-1.693c0.695-1.974,2.583-3.389,4.794-3.389c0.932,0,1.796,0.246,2.541,0.687
				C32.364,36.844,33.168,37.801,33.575,38.945z"/>
		</g>
		<g>
			<path fill="#838F9B" d="M62.375,38.945c0.187,0.533,0.288,1.101,0.288,1.693c0,0.593-0.102,1.161-0.288,1.694
				c-0.694,1.974-2.584,3.389-4.795,3.389c-2.21,0-4.1-1.415-4.794-3.389c-0.186-0.533-0.288-1.101-0.288-1.694
				c0-0.592,0.103-1.16,0.288-1.693c0.694-1.974,2.584-3.389,4.794-3.389c0.593,0,1.161,0.102,1.695,0.288
				C60.715,36.353,61.867,37.505,62.375,38.945z"/>
		</g>
		<g>
			<circle fill="#CCD1D9" cx="28.781" cy="40.639" r="1.694"/>
		</g>
		<g>
			<circle fill="#CCD1D9" cx="57.58" cy="40.639" r="1.694"/>
		</g>
		<g>
			<path fill="#CCD1D9" d="M45.722,55.039v5.082H31.669c-1,2.482-3.43,4.235-6.276,4.235c-2.507,0-4.76-1.363-5.929-3.388v-0.848
				h5.082c0.466,0,0.847-0.381,0.847-0.847v-3.389c0-0.466-0.381-0.847-0.847-0.847h-5.082v-0.847
				c1.169-2.024,3.422-3.389,5.929-3.389c2.846,0,5.277,1.754,6.276,4.235H45.722z"/>
		</g>
		<g>
			<path fill="#FFC729" d="M69.439,55.039v5.082l-2.178,0.551c-0.169,0.542-0.397,1.059-0.651,1.559l1.152,1.939l-3.592,3.592
				l-1.94-1.151c-0.499,0.254-1.017,0.482-1.558,0.651l-0.551,2.178H55.04l-0.551-2.178c-0.543-0.169-1.059-0.397-1.56-0.651
				l-1.938,1.151l-3.592-3.592l1.152-1.939c-0.255-0.5-0.484-1.017-0.652-1.559l-2.177-0.551v-5.082l2.177-0.55
				c0.168-0.543,0.397-1.06,0.652-1.56l-1.152-1.939l3.592-3.592l1.938,1.152c0.501-0.255,1.017-0.483,1.56-0.652l0.551-2.177h2.54
				h2.542l0.551,2.177c0.541,0.169,1.059,0.397,1.558,0.652l1.94-1.152l3.592,3.592l-1.152,1.939c0.254,0.5,0.482,1.017,0.651,1.56
				L69.439,55.039z M64.357,57.58c0-3.744-3.032-6.776-6.777-6.776c-3.743,0-6.775,3.032-6.775,6.776s3.032,6.776,6.775,6.776
				C61.325,64.356,64.357,61.324,64.357,57.58z"/>
		</g>
		<g>
			<path fill="#FCD770" d="M57.58,50.803c3.745,0,6.777,3.032,6.777,6.776s-3.032,6.776-6.777,6.776
				c-3.743,0-6.775-3.032-6.775-6.776S53.837,50.803,57.58,50.803z M60.969,57.58c0-1.871-1.517-3.388-3.389-3.388
				c-1.871,0-3.388,1.517-3.388,3.388c0,1.872,1.517,3.389,3.388,3.389C59.452,60.969,60.969,59.452,60.969,57.58z"/>
		</g>
	</g>
	<g>
		<g>
			<path d="M60.78,70.286h-6.399l-0.604-2.374c-0.271-0.101-0.541-0.213-0.81-0.339l-2.109,1.255l-4.525-4.525l1.254-2.109
				c-0.125-0.269-0.237-0.539-0.338-0.81l-2.373-0.604V54.38l2.373-0.604c0.101-0.271,0.213-0.542,0.339-0.811l-1.253-2.107
				l4.524-4.525l2.109,1.254c0.268-0.125,0.538-0.238,0.81-0.339l0.604-2.374h6.399l0.605,2.374c0.27,0.101,0.541,0.213,0.81,0.339
				l2.108-1.254l4.525,4.525l-1.255,2.107c0.125,0.269,0.239,0.54,0.34,0.811l2.372,0.604v6.399l-2.373,0.604
				c-0.101,0.271-0.214,0.541-0.339,0.81l1.254,2.109l-4.524,4.525l-2.11-1.255c-0.269,0.125-0.538,0.238-0.81,0.339L60.78,70.286z
				 M55.697,68.592h3.767l0.507-1.994l0.447-0.143c0.474-0.151,0.952-0.353,1.425-0.597l0.418-0.215l1.774,1.056l2.662-2.663
				l-1.055-1.773l0.215-0.419c0.244-0.472,0.444-0.951,0.597-1.426l0.143-0.446l1.996-0.509v-3.765l-1.994-0.508l-0.143-0.447
				c-0.152-0.474-0.354-0.952-0.597-1.426l-0.215-0.418l1.055-1.774l-2.663-2.662l-1.773,1.055l-0.418-0.215
				c-0.473-0.244-0.951-0.444-1.426-0.597l-0.446-0.143l-0.509-1.995h-3.766l-0.507,1.994l-0.447,0.143
				c-0.475,0.152-0.953,0.354-1.426,0.597l-0.417,0.215l-1.775-1.055l-2.662,2.662l1.056,1.774l-0.215,0.418
				c-0.245,0.474-0.445,0.952-0.597,1.426l-0.143,0.447l-1.996,0.508v3.766l1.994,0.507l0.143,0.447
				c0.151,0.475,0.353,0.953,0.597,1.425l0.215,0.419l-1.055,1.774l2.662,2.661l1.774-1.055l0.417,0.215
				c0.473,0.245,0.952,0.445,1.426,0.597l0.447,0.144L55.697,68.592z"/>
		</g>
		<g>
			<path d="M57.58,65.204c-4.202,0-7.623-3.421-7.623-7.624c0-4.202,3.421-7.623,7.623-7.623c4.203,0,7.624,3.421,7.624,7.623
				C65.204,61.783,61.783,65.204,57.58,65.204z M57.58,51.65c-3.27,0-5.929,2.66-5.929,5.93c0,3.271,2.659,5.93,5.929,5.93
				c3.271,0,5.931-2.659,5.931-5.93C63.51,54.31,60.85,51.65,57.58,51.65z"/>
		</g>
		<g>
			<path d="M57.58,61.815c-2.335,0-4.234-1.9-4.234-4.235s1.899-4.235,4.234-4.235c2.336,0,4.235,1.9,4.235,4.235
				S59.916,61.815,57.58,61.815z M57.58,55.039c-1.4,0-2.54,1.14-2.54,2.541s1.14,2.541,2.54,2.541c1.401,0,2.542-1.14,2.542-2.541
				S58.981,55.039,57.58,55.039z"/>
		</g>
		<g>
			<path d="M67.746,36.403c-2.335,0-4.235-1.899-4.235-4.234c0-2.336,1.9-4.235,4.235-4.235c0.176,0,0.346,0.021,0.516,0.045
				l-0.166,1.688l-0.072-0.01c-0.092-0.012-0.184-0.029-0.277-0.029c-1.401,0-2.542,1.141-2.542,2.542
				c0,1.4,1.141,2.541,2.542,2.541c0.437,0,0.863-0.119,1.268-0.355l0.853,1.465C69.199,36.207,68.485,36.403,67.746,36.403
				L67.746,36.403z"/>
		</g>
		<g>
			<path d="M57.58,38.097c-1.4,0-2.54,1.141-2.54,2.541c0,1.401,1.14,2.542,2.54,2.542c1.401,0,2.542-1.141,2.542-2.542
				C60.122,39.238,58.981,38.097,57.58,38.097z M57.58,41.486c-0.466,0-0.847-0.38-0.847-0.848c0-0.466,0.381-0.847,0.847-0.847
				c0.467,0,0.848,0.38,0.848,0.847C58.427,41.106,58.047,41.486,57.58,41.486z"/>
			<path d="M28.781,38.097c-1.401,0-2.541,1.141-2.541,2.541c0,1.401,1.14,2.542,2.541,2.542c1.401,0,2.541-1.141,2.541-2.542
				C31.322,39.238,30.182,38.097,28.781,38.097z M28.781,41.486c-0.467,0-0.847-0.38-0.847-0.848c0-0.466,0.38-0.847,0.847-0.847
				s0.847,0.38,0.847,0.847C29.628,41.106,29.247,41.486,28.781,41.486z"/>
			<path d="M67.079,27.316l-3.79-0.948l-1.524-3.809c-1.164-2.91-3.941-4.792-7.077-4.792H35.91c-3.136,0-5.914,1.882-7.079,4.792
				l-1.513,3.783l-5.959,1.158c-2.081,0.321-3.591,2.081-3.591,4.187v7.258c0,2.335,1.9,4.235,4.235,4.235h1.427
				c0.954,1.999,2.99,3.388,5.349,3.388c2.359,0,4.396-1.389,5.349-3.388h18.102c0.954,1.999,2.99,3.388,5.349,3.388
				c2.359,0,4.396-1.389,5.35-3.388h3.121c2.335,0,4.235-1.9,4.235-4.235v-7.52C70.286,29.478,68.967,27.789,67.079,27.316
				L67.079,27.316z M28.549,27.829l1.855-4.64c0.906-2.265,3.067-3.727,5.506-3.727h18.777c2.438,0,4.6,1.462,5.505,3.727
				l1.845,4.613l4.63,1.158c1.134,0.283,1.926,1.297,1.926,2.464v6.672h-5.663c-0.586-1.228-1.58-2.222-2.808-2.808v-6.663
				l-1.771-4.721c-0.617-1.645-2.21-2.749-3.966-2.749H36.211c-1.756,0-3.349,1.104-3.965,2.749l-1.771,4.721v6.333
				c-0.537-0.161-1.105-0.25-1.694-0.25c-2.359,0-4.396,1.388-5.349,3.388h-3.968v-1.779c1.93-0.394,3.388-2.105,3.388-4.149
				c0-1.15-0.467-2.21-1.247-2.988c0.016-0.002,0.031-0.008,0.047-0.011L28.549,27.829z M32.169,35.78v-4.459h1.694
				c1.248,0,2.329-0.686,2.917-1.694h7.247v8.471H34.13C33.685,37.166,33.009,36.367,32.169,35.78L32.169,35.78z M54.385,22.85
				c1.054,0,2.009,0.663,2.38,1.65l1.286,3.433H45.722V22.85H54.385z M44.028,27.933h-6.776c0-0.935-0.76-1.694-1.694-1.694h-2.377
				l0.652-1.739c0.37-0.987,1.326-1.65,2.379-1.65h7.817V27.933z M32.169,28.934l0.375-1h3.013c0,0.934-0.76,1.693-1.694,1.693
				h-1.694V28.934z M45.722,29.627h12.705v5.15c-0.278-0.04-0.559-0.067-0.848-0.067c-2.358,0-4.395,1.388-5.349,3.388h-6.509
				V29.627z M20.042,30.075c0.688,0.466,1.115,1.239,1.115,2.093c0,1.103-0.71,2.035-1.694,2.385v-2.866
				C19.463,31.076,19.679,30.515,20.042,30.075z M22.004,41.486c-1.103,0-2.035-0.71-2.385-1.694h3.3
				c-0.04,0.278-0.067,0.56-0.067,0.847c0,0.288,0.028,0.57,0.067,0.848H22.004z M28.781,44.874c-2.335,0-4.235-1.899-4.235-4.235
				c0-2.335,1.9-4.235,4.235-4.235s4.235,1.9,4.235,4.235C33.016,42.974,31.116,44.874,28.781,44.874z M34.642,41.486
				c0.04-0.278,0.067-0.56,0.067-0.848c0-0.287-0.028-0.568-0.067-0.847h17.076c-0.04,0.278-0.067,0.56-0.067,0.847
				c0,0.288,0.027,0.57,0.067,0.848H34.642z M57.58,44.874c-2.335,0-4.234-1.899-4.234-4.235c0-2.335,1.899-4.235,4.234-4.235
				c2.336,0,4.235,1.9,4.235,4.235C61.815,42.974,59.916,44.874,57.58,44.874z M66.051,41.486h-2.608
				c0.04-0.278,0.068-0.56,0.068-0.848c0-0.287-0.028-0.568-0.068-0.847h4.994C68.085,40.776,67.154,41.486,66.051,41.486
				L66.051,41.486z"/>
			<path d="M25.392,49.957c-2.748,0-5.301,1.46-6.662,3.811l-0.114,0.196v1.922h5.929v3.389h-5.929v1.922l0.114,0.197
				c1.361,2.35,3.914,3.811,6.662,3.811c2.925,0,5.545-1.645,6.827-4.235h13.503v-1.694H31.101l-0.214,0.529
				c-0.912,2.251-3.069,3.706-5.494,3.706c-1.975,0-3.818-0.963-4.925-2.541h4.078c0.935,0,1.694-0.761,1.694-1.694v-3.389
				c0-0.934-0.76-1.693-1.694-1.693h-4.078c1.107-1.579,2.951-2.542,4.925-2.542c2.425,0,4.582,1.455,5.494,3.706l0.214,0.529
				h14.622v-1.693H32.219C30.937,51.6,28.317,49.957,25.392,49.957L25.392,49.957z"/>
		</g>
	</g>
</g>
</svg>
