<?xml version="1.0" encoding="utf-8"?>
<!-- Generator: Adobe Illustrator 16.0.0, SVG Export Plug-In . SVG Version: 6.00 Build 0)  -->
<!DOCTYPE svg PUBLIC "-//W3C//DTD SVG 1.1//EN" "http://www.w3.org/Graphics/SVG/1.1/DTD/svg11.dtd">
<svg version="1.1" id="Layer_1" xmlns="http://www.w3.org/2000/svg" xmlns:xlink="http://www.w3.org/1999/xlink" x="0px" y="0px"
	 width="88.055px" height="88.055px" viewBox="0 0 88.055 88.055" enable-background="new 0 0 88.055 88.055" xml:space="preserve">
<g>
	<g transform="translate(35 20)">
		<g>
			<circle id="a_14_" cx="9.027" cy="24.027" r="43.032"/>
		</g>
		<g>
			<circle id="a_1_" fill="#FFFFFF" stroke="#F4D200" stroke-width="2" stroke-miterlimit="10" cx="9.027" cy="24.027" r="43.032"/>
		</g>
	</g>
</g>
<g id="Wallet">
	<path fill="#A78966" d="M22.914,34.985h38.367c1.843,0,3.335,1.494,3.335,3.337v24.187c0,1.844-1.492,3.338-3.335,3.338H21.245l0,0
		V36.653C21.245,35.732,21.992,34.985,22.914,34.985z"/>
	<path fill="#806749" d="M64.616,38.322v24.187c0,1.844-1.492,3.338-3.335,3.338h-4.17c1.842,0,3.336-1.494,3.336-3.338V38.322
		c0-1.843-1.494-3.337-3.336-3.337h4.17C63.124,34.985,64.616,36.479,64.616,38.322z"/>
	<path fill="#FFD422" d="M61.314,19.972h-0.033c-4.606-0.009-8.349,3.718-8.357,8.324c-0.009,4.606,3.717,8.349,8.324,8.357h0.033
		c0.884,0.003,1.763-0.137,2.602-0.417c4.376-1.438,6.758-6.151,5.319-10.528C68.082,22.298,64.904,19.987,61.314,19.972z"/>
	<path fill="#EBBF00" d="M69.621,28.313c-0.002,3.603-2.315,6.798-5.738,7.923c-0.839,0.28-1.718,0.42-2.602,0.417h-0.033
		c-0.55,0.001-1.099-0.057-1.636-0.174c0.317-0.06,0.629-0.141,0.935-0.243c4.376-1.438,6.759-6.151,5.32-10.527
		c-0.936-2.847-3.326-4.973-6.262-5.57c0.551-0.111,1.112-0.167,1.676-0.167h0.033C65.908,19.99,69.621,23.719,69.621,28.313
		L69.621,28.313z"/>
	<path fill="#C0AB91" d="M59.612,41.657V66.68c-0.003,0.921-0.748,1.664-1.667,1.669H27.918V39.99h30.027
		C58.864,39.992,59.609,40.737,59.612,41.657z"/>
	<path fill="#A78966" d="M59.612,41.657V66.68c-0.003,0.921-0.748,1.664-1.667,1.669h-3.337c0.92-0.005,1.666-0.748,1.668-1.669
		V41.657c-0.002-0.92-0.748-1.665-1.668-1.667h3.337C58.864,39.992,59.609,40.737,59.612,41.657z"/>
	<path fill="#009698" d="M51.272,34.985v5.005h-3.337V23.308h-18.35v-3.336h21.687V34.985z"/>
	<path fill="#00B6BD" d="M47.935,23.308V39.99h-3.336V26.644H26.25v-3.336h3.336H47.935z"/>
	<path fill="#009698" d="M24.581,26.644h20.018V39.99H24.581V26.644z"/>
	<path fill="#A78966" d="M24.581,39.99h3.337v28.36h-3.337V39.99z"/>
	<path fill="#C0AB91" d="M21.245,39.99h3.336v28.36h-3.336V39.99z"/>
	<path fill="#A78966" d="M64.616,49.998v8.342H44.599c-0.92-0.003-1.666-0.748-1.668-1.669v-5.004
		c0.002-0.921,0.748-1.666,1.668-1.669H64.616z"/>
	<path fill="#806749" d="M56.276,49.998h8.34v8.342h-8.34V49.998z"/>
	<path d="M55.442,45.829h1.669v-2.503c0-0.461-0.374-0.834-0.835-0.834h-2.502v1.669h1.668V45.829z"/>
	<path d="M55.442,64.177h-1.668v1.669h2.502c0.461,0,0.835-0.374,0.835-0.835v-2.503h-1.669V64.177z"/>
	<path d="M70.456,28.313c0.003-5.067-4.103-9.177-9.17-9.18s-9.177,4.103-9.18,9.169c-0.002,2.134,0.742,4.203,2.102,5.849h-2.102
		V19.972c0-0.46-0.374-0.834-0.834-0.834H29.586c-0.46,0-0.833,0.374-0.833,0.834v2.502H26.25c-0.461,0-0.834,0.374-0.834,0.834
		v2.502h-0.834c-0.461,0-0.833,0.374-0.833,0.834v7.507h-0.834c-1.38,0.004-2.498,1.123-2.502,2.502v31.696
		c0,0.46,0.374,0.834,0.834,0.834h36.7c1.38-0.004,2.497-1.122,2.502-2.503h0.834c2.303,0,4.17-1.868,4.17-4.172V38.322
		c-0.004-0.575-0.13-1.144-0.366-1.668C68.35,35.161,70.449,31.904,70.456,28.313z M23.748,67.514h-1.668V40.823h1.668V67.514z
		 M23.748,39.156h-1.668v-2.502c0-0.461,0.374-0.834,0.834-0.834h0.834V39.156z M30.42,20.806h20.019v18.349h-1.669V23.308
		c0-0.46-0.373-0.834-0.834-0.834H30.42V20.806z M27.084,24.142h20.018v15.013h-1.668V26.644c0-0.46-0.374-0.834-0.834-0.834H27.084
		V24.142z M25.416,27.479h18.35v11.677h-18.35V27.479z M27.084,67.514h-1.668V40.823h1.668V67.514z M58.779,66.68
		c0,0.46-0.374,0.834-0.834,0.834H28.752V40.823h29.193c0.46,0,0.834,0.373,0.834,0.833v7.507h-14.18
		c-1.38,0.005-2.498,1.122-2.502,2.503v5.004c0.004,1.381,1.122,2.499,2.502,2.503h14.18V66.68z M63.783,62.509
		c-0.004,1.381-1.122,2.499-2.502,2.503h-0.834v-5.838h3.336V62.509z M63.783,57.505H44.599c-0.46,0-0.833-0.374-0.833-0.834v-5.004
		c0-0.46,0.373-0.834,0.833-0.834h19.184V57.505z M63.783,49.164h-3.336v-7.507c-0.005-1.379-1.122-2.498-2.502-2.501h-5.839v-3.336
		h3.92c1.536,1.089,3.372,1.671,5.255,1.668c0.75-0.004,1.498-0.1,2.227-0.283c0.179,0.345,0.273,0.729,0.275,1.118V49.164z
		 M61.281,35.819c-4.146,0-7.507-3.361-7.507-7.506c0-4.146,3.36-7.506,7.507-7.506c4.146,0,7.507,3.36,7.507,7.506
		C68.781,32.456,65.424,35.813,61.281,35.819z"/>
	<path d="M61.281,24.142c0.921,0,1.668,0.747,1.668,1.668h1.667c-0.005-1.517-1.033-2.839-2.502-3.218V21.64h-1.667v0.952
		c-1.78,0.459-2.854,2.274-2.395,4.055c0.379,1.473,1.707,2.501,3.229,2.5c0.921,0,1.668,0.747,1.668,1.668
		c0,0.922-0.747,1.668-1.668,1.668c-0.922,0-1.669-0.747-1.669-1.668h-1.667c0.006,1.517,1.033,2.838,2.502,3.218v0.952h1.667
		v-0.952c1.782-0.458,2.854-2.274,2.396-4.055c-0.38-1.473-1.709-2.502-3.229-2.5c-0.922,0-1.669-0.747-1.669-1.668
		S60.359,24.142,61.281,24.142z"/>
	<path d="M28.752,30.815h2.502v-1.668h-3.336c-0.461,0-0.834,0.374-0.834,0.834v3.336h1.668V30.815z"/>
	<path d="M40.429,33.317h1.668v-3.336c0-0.46-0.373-0.834-0.834-0.834h-3.337v1.668h2.502V33.317z"/>
	<path d="M45.433,53.336h1.668v1.666h-1.668V53.336z"/>
	<path d="M50.438,42.491h1.668v1.669h-1.668V42.491z"/>
	<path d="M47.101,42.491h1.668v1.669h-1.668V42.491z"/>
	<path d="M43.766,42.491h1.667v1.669h-1.667V42.491z"/>
	<path d="M40.429,42.491h1.668v1.669h-1.668V42.491z"/>
	<path d="M37.093,42.491h1.668v1.669h-1.668V42.491z"/>
	<path d="M33.757,42.491h1.668v1.669h-1.668V42.491z"/>
	<path d="M30.42,42.491h1.668v1.669H30.42V42.491z"/>
	<path d="M50.438,64.177h1.668v1.669h-1.668V64.177z"/>
	<path d="M47.101,64.177h1.668v1.669h-1.668V64.177z"/>
	<path d="M43.766,64.177h1.667v1.669h-1.667V64.177z"/>
	<path d="M40.429,64.177h1.668v1.669h-1.668V64.177z"/>
	<path d="M37.093,64.177h1.668v1.669h-1.668V64.177z"/>
	<path d="M33.757,64.177h1.668v1.669h-1.668V64.177z"/>
	<path d="M30.42,64.177h1.668v1.669H30.42V64.177z"/>
</g>
</svg>
