<?xml version="1.0" encoding="utf-8"?>
<!-- Generator: Adobe Illustrator 16.0.0, SVG Export Plug-In . SVG Version: 6.00 Build 0)  -->
<!DOCTYPE svg PUBLIC "-//W3C//DTD SVG 1.1//EN" "http://www.w3.org/Graphics/SVG/1.1/DTD/svg11.dtd">
<svg version="1.1" id="Layer_1" xmlns="http://www.w3.org/2000/svg" xmlns:xlink="http://www.w3.org/1999/xlink" x="0px" y="0px"
	 width="88.055px" height="88.055px" viewBox="0 0 88.055 88.055" enable-background="new 0 0 88.055 88.055" xml:space="preserve">
<g transform="translate(35 20)">
	<g>
		<circle id="a_15_" cx="9.027" cy="24.027" r="43.032"/>
	</g>
	<g>
		<circle id="a_1_" fill="#FFFFFF" stroke="#F4D200" stroke-width="2" stroke-miterlimit="10" cx="9.027" cy="24.027" r="43.032"/>
	</g>
</g>
<path fill="#E1EFFB" d="M50.336,46.009l5.403,5.403l-5.767,5.767c-0.23,0.232-0.566,0.327-0.885,0.252l0,0
	c-0.318-0.077-0.653,0.019-0.885,0.249l-2.777,2.776c-0.052,0.053-0.109,0.096-0.174,0.13l-3.01,1.579
	c-0.131,0.068-0.237,0.176-0.305,0.307L40.47,65.31c-0.071,0.138-0.186,0.249-0.326,0.317l-2.312,1.115
	c-0.122,0.059-0.225,0.151-0.297,0.267l-2.109,3.368c-0.087,0.137-0.231,0.229-0.391,0.249l-3.792,0.484
	c-0.352,0.047-0.651-0.253-0.606-0.604l0.485-3.792c0.021-0.161,0.112-0.305,0.25-0.39l3.368-2.11
	c0.116-0.072,0.208-0.176,0.267-0.298l1.115-2.311c0.067-0.14,0.18-0.255,0.317-0.326l2.838-1.467
	c0.131-0.068,0.238-0.174,0.307-0.305l1.579-3.01c0.034-0.064,0.077-0.123,0.129-0.175l2.776-2.776
	c0.231-0.231,0.327-0.566,0.251-0.886l0,0c-0.076-0.319,0.019-0.653,0.25-0.886L50.336,46.009z"/>
<path fill="#CCDFED" d="M52.876,48.548l-22.11,22.383c0.014,0.017,0.029,0.031,0.044,0.046c0.001,0.001,0.001,0.001,0.002,0.002
	c0.016,0.013,0.031,0.025,0.047,0.037c0.001,0.001,0.003,0.003,0.005,0.004c0.015,0.01,0.03,0.02,0.047,0.029
	c0.003,0.001,0.005,0.003,0.008,0.005c0.016,0.008,0.031,0.016,0.047,0.021c0.003,0.002,0.008,0.004,0.014,0.005
	c0.015,0.007,0.03,0.011,0.046,0.016c0.005,0.002,0.011,0.004,0.016,0.005c0.015,0.004,0.03,0.007,0.045,0.01
	c0.007,0,0.014,0.002,0.02,0.003c0.015,0.002,0.031,0.003,0.047,0.004c0.006,0,0.014,0.001,0.02,0.001
	c0.021-0.001,0.044-0.002,0.068-0.005l3.792-0.485c0.16-0.021,0.304-0.112,0.391-0.249l2.109-3.368
	c0.072-0.115,0.175-0.209,0.297-0.267l2.312-1.115c0.14-0.067,0.255-0.179,0.326-0.318l1.467-2.838
	c0.068-0.131,0.174-0.237,0.305-0.306l3.009-1.58c0.065-0.033,0.124-0.076,0.175-0.129l2.776-2.776
	c0.232-0.231,0.567-0.326,0.886-0.25c0.318,0.075,0.653-0.02,0.885-0.251l5.767-5.767L52.876,48.548z"/>
<path fill="#2C5871" d="M57.593,29.234l-8.985,11.612c-1.546,2-1.366,4.835,0.421,6.623l5.25,5.25
	c1.787,1.787,4.623,1.966,6.623,0.421l11.612-8.985c2.387-1.846,2.61-5.368,0.477-7.501l-7.896-7.897
	C62.96,26.624,59.439,26.848,57.593,29.234z M62.617,32.35l6.781,6.781c0.641,0.641,0.641,1.679,0,2.32
	c-0.64,0.641-1.679,0.641-2.319,0l-6.781-6.781c-0.641-0.641-0.641-1.68,0-2.32l0,0C60.939,31.71,61.976,31.71,62.617,32.35z"/>
<path fill="#1D4859" d="M72.991,36.655l-3.585-3.585c1.843,1.843,1.925,4.724,0.373,6.664c0.209,0.579,0.084,1.253-0.382,1.717
	c-0.53,0.531-1.333,0.62-1.957,0.272l-10.124,7.831c-1.999,1.547-4.837,1.367-6.624-0.42l-1.665-1.665
	c0.001,0.001,0.001,0.001,0.001,0.001l5.25,5.249c1.787,1.788,4.623,1.967,6.623,0.422l11.612-8.985
	C74.901,42.31,75.124,38.788,72.991,36.655z"/>
<path fill="#FF4C4C" d="M31.782,22.56L18.32,36.022c-1.038,1.039-1.038,2.721,0,3.759l10.415,10.415c1.039,1.038,2.72,1.038,3.758,0
	l13.463-13.462c1.207-1.207,1.812-2.89,1.652-4.589l-0.724-7.617c-0.146-1.536-1.36-2.751-2.895-2.896l-7.618-0.723
	C34.672,20.747,32.989,21.352,31.782,22.56z M41.203,24.722c0.714-0.715,1.874-0.715,2.589,0c0.714,0.715,0.714,1.874,0,2.589
	c-0.715,0.715-1.875,0.715-2.589,0C40.488,26.596,40.488,25.438,41.203,24.722z"/>
<path fill="#F33A3A" d="M47.607,32.144l-0.724-7.617c-0.146-1.536-1.36-2.751-2.895-2.896l-0.616-0.059l0.287,3.031
	c0.045,0.037,0.09,0.076,0.133,0.119c0.674,0.675,0.711,1.746,0.113,2.465l0.132,1.387c0.162,1.7-0.444,3.382-1.65,4.589
	L28.923,46.625c-1.038,1.039-2.719,1.039-3.758,0l3.569,3.569c1.039,1.039,2.72,1.039,3.759,0l13.463-13.462
	C47.162,35.526,47.768,33.844,47.607,32.144z"/>
<g>
	<path fill="#FFB125" d="M30.275,31.967l6.274,6.274c0.837,0.837,2.196,0.837,3.033,0l2.482-2.483c0.837-0.837,0.837-2.194,0-3.031
		l-6.274-6.275c-0.837-0.837-2.196-0.837-3.033,0l-2.482,2.482C29.437,29.771,29.437,31.13,30.275,31.967z"/>
	<path fill="#FFB125" d="M22.671,39.57l6.274,6.274c0.837,0.838,2.196,0.838,3.033,0l2.482-2.483c0.837-0.837,0.837-2.195,0-3.032
		l-6.274-6.276c-0.837-0.837-2.196-0.837-3.033,0l-2.482,2.484C21.834,37.375,21.834,38.733,22.671,39.57z"/>
</g>
<path fill="#FF4C4C" d="M43.793,24.722c0.351,0.351,0.528,0.809,0.535,1.269c0.171,0.652,0.658,1.428,1.42,2.229
	c0.465,0.489,1.012,0.968,1.623,1.43l-0.486-5.123c-0.146-1.536-1.36-2.751-2.895-2.896l-7.618-0.723
	c-0.171-0.017-0.343-0.023-0.514-0.024l-0.44,0.44l5.386,5.386c-0.271-0.662-0.138-1.451,0.4-1.988
	C41.918,24.007,43.077,24.007,43.793,24.722z"/>
<path d="M38.065,39.701c0.763,0,1.525-0.291,2.106-0.872l2.483-2.482c1.161-1.162,1.161-3.05,0-4.211l-6.274-6.275
	c-1.162-1.161-3.052-1.161-4.212,0l-2.483,2.483c-1.161,1.162-1.161,3.05,0,4.211l6.275,6.274
	C36.54,39.411,37.303,39.701,38.065,39.701z M30.864,29.523l2.483-2.482c0.255-0.256,0.59-0.383,0.926-0.383
	s0.672,0.127,0.927,0.383l6.275,6.274c0.247,0.248,0.384,0.576,0.384,0.926c0,0.351-0.136,0.68-0.384,0.928l-2.484,2.482
	c-0.247,0.248-0.576,0.384-0.926,0.384s-0.68-0.136-0.926-0.384l-6.275-6.275C30.352,30.866,30.352,30.034,30.864,29.523z"/>
<path d="M28.355,46.434c0.582,0.58,1.344,0.87,2.107,0.87s1.525-0.29,2.106-0.87l2.484-2.483c1.16-1.161,1.16-3.05,0-4.211
	l-6.275-6.274c-1.162-1.162-3.051-1.162-4.211,0l-2.483,2.482c-1.161,1.162-1.161,3.051,0,4.211L28.355,46.434z M23.26,37.126
	l2.483-2.482c0.254-0.256,0.59-0.383,0.926-0.383s0.671,0.127,0.927,0.383l6.274,6.274c0.512,0.512,0.512,1.343,0,1.854
	l-2.483,2.483c-0.51,0.512-1.342,0.512-1.853,0L23.26,38.98c-0.247-0.247-0.384-0.577-0.384-0.927
	C22.876,37.703,23.013,37.375,23.26,37.126z"/>
<path d="M73.58,36.065l-7.896-7.897c-1.188-1.187-2.828-1.805-4.502-1.699c-0.389,0.025-0.77,0.089-1.14,0.188
	c-1.353-1.031-2.987-1.976-4.78-2.743c-2.662-1.141-5.371-1.771-7.625-1.771l0,0c-0.312,0-0.61,0.012-0.896,0.037
	c-0.664-0.764-1.608-1.278-2.674-1.379l-7.618-0.723c-1.954-0.185-3.87,0.504-5.257,1.892l-7.971,7.97
	c-0.325,0.326-0.325,0.854,0,1.179c0.325,0.326,0.854,0.326,1.179,0l7.97-7.97c1.034-1.035,2.464-1.549,3.92-1.411l7.618,0.724
	c1.134,0.108,2.036,1.01,2.144,2.145l0.408,4.301c-0.009-0.006-0.017-0.013-0.023-0.02c-0.069-0.062-0.138-0.125-0.205-0.187
	c-0.059-0.055-0.116-0.109-0.173-0.165c-0.025-0.025-0.054-0.051-0.08-0.077c-0.079-0.08-0.158-0.159-0.234-0.238
	c-0.066-0.07-0.13-0.139-0.192-0.208c-0.014-0.017-0.029-0.033-0.044-0.05c-0.059-0.067-0.116-0.133-0.172-0.199
	c-0.012-0.014-0.022-0.029-0.036-0.044c-0.043-0.053-0.085-0.105-0.126-0.158c-0.017-0.021-0.033-0.043-0.051-0.065
	c-0.043-0.059-0.087-0.116-0.128-0.173c-0.02-0.028-0.04-0.056-0.058-0.085c-0.017-0.021-0.029-0.043-0.045-0.065
	c0.476-0.991,0.307-2.218-0.514-3.039c-1.039-1.039-2.73-1.039-3.769,0s-1.039,2.729,0,3.769c0.52,0.519,1.203,0.779,1.885,0.779
	c0.418,0,0.835-0.097,1.213-0.293c0.24,0.325,0.515,0.653,0.826,0.981c0.606,0.637,1.33,1.256,2.144,1.845l0.095,1.009
	c0.139,1.457-0.376,2.886-1.41,3.921l-13.46,13.459c-0.345,0.344-0.802,0.534-1.29,0.534s-0.945-0.19-1.29-0.534L18.909,39.191
	c-0.344-0.345-0.534-0.803-0.534-1.29c0-0.487,0.19-0.945,0.534-1.29l1.641-1.641c0.326-0.326,0.326-0.854,0-1.179
	c-0.324-0.326-0.854-0.326-1.179,0l-1.641,1.64c-1.361,1.362-1.361,3.576,0,4.938l10.415,10.415
	c0.659,0.659,1.536,1.022,2.469,1.022c0.933,0,1.81-0.362,2.469-1.022l13.462-13.463c1.318-1.317,2.005-3.112,1.912-4.962
	c0.822,0.476,1.701,0.918,2.622,1.313c0.519,0.222,1.039,0.425,1.557,0.606l-4.687,6.058c-1.603,2.071-1.609,4.931-0.121,7
	l-3.849,3.849c-0.434,0.434-0.614,1.072-0.473,1.667c0.009,0.036-0.002,0.076-0.03,0.104l-2.776,2.776
	c-0.11,0.11-0.203,0.238-0.277,0.377l-1.563,2.978l-2.806,1.45c-0.297,0.153-0.54,0.403-0.685,0.706l-1.101,2.281l-3.341,2.092
	c-0.35,0.221-0.582,0.581-0.633,0.991l-0.485,3.792c-0.056,0.426,0.088,0.844,0.392,1.146c0.261,0.262,0.607,0.404,0.969,0.404
	c0.058,0,0.119-0.005,0.177-0.013l3.792-0.483c0.411-0.054,0.771-0.285,0.991-0.635l2.092-3.341l2.281-1.101
	c0.302-0.146,0.552-0.389,0.706-0.686l1.45-2.807l2.978-1.562c0.139-0.073,0.266-0.167,0.376-0.277l2.777-2.776
	c0.026-0.027,0.064-0.038,0.103-0.029c0.596,0.142,1.234-0.039,1.667-0.474l3.849-3.847c1.013,0.728,2.214,1.099,3.422,1.099
	c1.258,0,2.521-0.401,3.578-1.22l4.461-3.451c0.363-0.281,0.432-0.805,0.148-1.17c-0.282-0.362-0.806-0.431-1.169-0.147l-4.46,3.449
	c-1.638,1.268-3.964,1.139-5.453-0.284c-0.001-0.001-0.002-0.002-0.004-0.004L54.9,52.161c-0.011-0.011-0.022-0.021-0.032-0.031
	l-5.249-5.249c-0.011-0.01-0.021-0.021-0.031-0.031l-0.032-0.034c-0.001-0.001-0.001-0.002-0.003-0.003
	c-1.424-1.49-1.551-3.817-0.284-5.454l5.067-6.551c1.546,0.416,3.037,0.637,4.37,0.637h0.001c0.397,0,0.772-0.02,1.128-0.058
	l6.655,6.655c0.482,0.482,1.115,0.723,1.75,0.723c0.633,0,1.267-0.242,1.749-0.723c0.965-0.966,0.965-2.534,0-3.498l-6.782-6.782
	c-0.467-0.467-1.088-0.724-1.749-0.724s-1.281,0.257-1.75,0.724c-0.467,0.467-0.724,1.089-0.724,1.75
	c0,0.087,0.006,0.176,0.015,0.262c-0.096,0.002-0.193,0.004-0.292,0.004h-0.001c-0.998,0-2.102-0.141-3.258-0.408l2.805-3.625
	c0.733-0.949,1.841-1.536,3.036-1.611c1.197-0.077,2.369,0.366,3.217,1.214l7.896,7.896c0.849,0.849,1.29,2.021,1.215,3.217
	c-0.076,1.195-0.664,2.303-1.612,3.037l-2.694,2.084c-0.364,0.282-0.431,0.806-0.149,1.17c0.283,0.363,0.806,0.431,1.17,0.147
	l2.694-2.082c1.327-1.027,2.147-2.576,2.255-4.251C75.387,38.891,74.767,37.251,73.58,36.065z M42.498,27.014
	c-0.267,0-0.517-0.104-0.706-0.292S41.5,26.284,41.5,26.018c0-0.267,0.104-0.517,0.292-0.706c0.188-0.189,0.439-0.292,0.706-0.292
	c0.041,0,0.082,0.003,0.123,0.008c-0.095,0.596-0.004,1.239,0.264,1.908C42.764,26.989,42.632,27.014,42.498,27.014z M48.951,48.572
	l4.225,4.226l-3.792,3.792c-0.027,0.026-0.066,0.038-0.104,0.029c-0.596-0.142-1.234,0.039-1.667,0.473l-2.765,2.765l-2.993,1.572
	c-0.284,0.148-0.512,0.377-0.659,0.662l-1.45,2.804l-2.277,1.098c-0.265,0.128-0.486,0.325-0.642,0.575l-2.036,3.251l-3.28,0.421
	l0.419-3.281l3.25-2.036c0.249-0.155,0.447-0.377,0.575-0.642l1.098-2.276l2.804-1.45c0.284-0.146,0.512-0.374,0.662-0.658
	l1.572-2.994l2.764-2.764c0.435-0.435,0.616-1.073,0.474-1.669c-0.009-0.037,0.003-0.075,0.029-0.103L48.951,48.572z M63.064,33.975
	l5.745,5.746c0.314,0.314,0.314,0.825,0,1.141c-0.151,0.152-0.354,0.236-0.569,0.236c-0.216,0-0.419-0.083-0.571-0.236l-5.945-5.944
	C62.277,34.679,62.727,34.364,63.064,33.975z M60.887,32.94c0.152-0.152,0.355-0.236,0.57-0.236c0.143,0,0.28,0.038,0.399,0.107
	c-0.234,0.312-0.647,0.558-1.205,0.723c0-0.007-0.001-0.016-0.001-0.024C60.651,33.294,60.735,33.092,60.887,32.94z M56.933,28.724
	l-3.219,4.162c-0.655-0.213-1.316-0.46-1.978-0.745c-1.263-0.541-2.436-1.171-3.47-1.856l-0.553-5.836
	c-0.021-0.218-0.06-0.431-0.113-0.637c0.013,0,0.023,0,0.037,0l0,0c2.033,0,4.509,0.581,6.969,1.635
	c1.353,0.58,2.604,1.261,3.689,2.003C57.781,27.796,57.321,28.223,56.933,28.724z"/>
</svg>
